<svg width="22" height="23" viewBox="0 0 22 23" fill="none" xmlns="http://www.w3.org/2000/svg">
<path d="M13.0607 5.13164C12.6618 6.70905 14.4251 7.95362 14.1758 9.87319C14.0792 10.6216 13.8794 11.1243 13.6833 11.5784C13.6874 14.5485 9.04968 14.7944 8.73089 11.8415C8.96279 11.0972 9.19176 10.4373 8.91243 9.1152C8.45441 6.94933 8.84552 4.68888 8.37706 3.70572C8.18551 3.28916 8.26199 3.03944 8.41315 2.63115C8.41315 0.403488 12.1259 0.403488 12.1259 2.63115C11.8987 2.99419 11.5536 3.37139 11.7065 4.19681C11.9646 5.58429 11.8129 6.43009 11.4351 7.64938C11.0573 8.8626 10.7348 12.6049 11.1989 13.9649C11.6629 15.3235 10.8578 16.8753 10.6668 17.808C10.6073 18.0988 10.5259 18.3269 10.4412 18.5024C10.4053 18.5767 10.3302 18.6111 10.256 18.6111C10.256 18.6111 10.2559 18.6111 10.2559 18.6111C10.1635 18.6111 10.0727 18.5578 10.0611 18.4624C10.0044 17.9993 9.85503 17.3065 9.52018 16.4889C8.89581 14.9633 9.58577 14.7977 9.26494 12.7385C8.9441 10.6762 8.30268 9.44418 8.71745 7.01796C9.03398 5.17289 8.09793 4.40209 8.07418 2.63115C8.07418 -0.00327533 12.4649 -0.00327533 12.4649 2.63115C12.4762 2.8904 12.4645 3.65532 12.3112 4.44099C11.7034 7.85409 13.483 8.06484 14.1295 11.2664L8.25413 11.5784C8.24805 11.5166 8.24257 11.4499 8.23773 11.3781C8.13301 9.89843 8.26226 8.25235 8.43539 6.69211C8.52195 5.9124 8.61948 5.15782 8.70422 4.4507C8.74658 4.09839 8.78575 3.76186 8.81875 3.44122C8.83525 3.27737 8.85021 3.1267 8.86326 2.97198C8.86978 2.90031 8.87582 2.81736 8.88134 2.75199C8.8841 2.71443 8.88673 2.67271 8.88922 2.64439C8.89047 2.62249 8.89168 2.60218 8.89286 2.58847C8.89344 2.58563 8.89402 2.56436 8.89459 2.56068C8.89467 2.56009 8.89474 2.55966 8.89481 2.5594C8.89484 2.55927 8.89488 2.55917 8.89491 2.55912C8.89493 2.5591 8.89495 2.55908 8.89497 2.55908C8.89497 2.55908 8.89497 2.55908 8.89497 2.55908C8.89497 2.55908 8.89498 2.55908 8.89498 2.55908C8.89498 2.55908 8.89498 2.55908 8.89498 2.55908C8.89498 2.55908 8.89498 2.55908 8.89498 2.55908C8.89498 2.55908 8.89498 2.55908 8.89498 2.55908C10.4317 2.55908 3.77251 2.55908 13.5052 2.55908H13.5052C13.5052 2.55908 13.5052 2.55908 13.5052 2.55908C13.5052 2.55908 13.5052 2.55908 13.5052 2.55908C13.5052 2.55908 13.5052 2.55908 13.5052 2.55908C13.5052 2.55908 13.5052 2.55909 13.5052 2.5591C13.505 2.55924 13.5049 2.5601 13.5047 2.56168C13.5045 2.56485 13.5042 2.57092 13.5039 2.57997C13.4823 2.91545 13.4722 3.24129 13.4809 3.51976C13.546 5.59658 13.7027 8.37123 13.3937 11.2864C13.2388 12.745 13.2879 14.3777 13.3056 16.0503C13.3143 16.8893 13.3153 17.7396 13.2764 18.5785C13.2553 19.022 13.2289 19.4105 13.1749 19.8911C13.167 19.9627 13.1621 19.9926 13.1498 20.0959C13.143 20.1515 13.1365 20.2043 13.1229 20.2904C13.1194 20.3124 13.1153 20.337 13.1098 20.3671C13.1048 20.396 13.0946 20.4558 13.0754 20.5364C13.0518 20.6239 13.0367 20.7242 12.9195 20.9893C12.8521 21.1252 12.7746 21.312 12.4978 21.6186C12.2513 21.8959 11.5537 22.4537 10.552 22.3668C9.56349 22.2648 9.07272 21.7008 8.86835 21.4404C8.65177 21.1485 8.59118 20.9772 8.53843 20.8492C8.43539 20.5573 8.46587 20.6175 8.45025 20.5686C8.44283 20.5384 8.43697 20.5121 8.43203 20.4884C8.42218 20.4412 8.41584 20.4044 8.41084 20.3728C8.40105 20.3101 8.39648 20.2677 8.39292 20.2316C8.37135 19.9494 8.38432 19.9825 8.38393 19.8929C8.38617 19.8273 8.38899 19.7385 8.39314 19.6999C8.40103 19.6037 8.41017 19.4696 8.42096 19.3667C8.43178 19.273 8.44377 19.1709 8.45698 19.0597C8.4616 19.0209 8.46625 18.9807 8.47095 18.9391C8.89608 15.7282 9.4281 11.2657 9.78588 9.18284C10.1476 7.08314 10.2292 6.5707 10.0082 4.54967C9.88112 3.3887 10.0009 1.7841 10.4681 0.43865C10.7033 -0.2477 11.0307 -0.0923524 11.1874 0.593559C11.4164 1.59816 11.2634 2.41686 11.6726 2.93404C12.4904 3.96182 12.8041 4.40982 12.3281 5.7047C11.8522 7.00706 12.9338 7.61887 12.8093 8.3785C12.6848 9.14334 12.0468 9.12196 12.5383 12.9833C12.8859 15.7106 13.0504 17.5676 13.1587 18.9391C13.1699 19.0975 13.1809 19.2291 13.1918 19.3388C13.2027 19.4718 13.2137 19.589 13.2252 19.6824C13.2311 19.7406 13.2373 19.7785 13.2418 19.7769C13.2427 19.7733 13.2436 19.7593 13.2392 19.7056C13.2367 19.6778 13.2333 19.6404 13.2227 19.5731C13.2172 19.539 13.21 19.4971 13.1971 19.4388C13.1906 19.4095 13.1827 19.376 13.1719 19.3358C13.1738 19.3429 13.1332 19.186 13.0668 19.0298C12.9847 18.8601 12.911 18.6076 12.4728 18.1735C12.2502 17.9646 11.8882 17.6998 11.3609 17.5679C10.8392 17.4287 10.2061 17.5024 9.78234 17.692C8.91939 18.0975 8.74568 18.5212 8.59755 18.7316C8.3563 19.1729 8.36476 19.2822 8.32875 19.3914C8.28178 19.5969 8.29377 19.5657 8.28896 19.5841C8.2848 19.607 8.28208 19.6229 8.27995 19.635C8.27575 19.6589 8.27382 19.668 8.27241 19.6708C8.26511 19.6582 8.26556 19.5193 8.26088 19.4432C8.21433 18.0746 8.85538 14.9942 8.71617 12.6297C8.57937 10.251 8.86488 5.41556 8.54925 3.4903C8.48928 3.1173 8.46613 2.81008 8.47073 2.57997C8.4708 2.57133 8.47089 2.56544 8.47098 2.56217C8.47102 2.56054 8.47107 2.55956 8.47112 2.55922C8.47113 2.55913 8.47114 2.55908 8.47116 2.55908C8.47116 2.55908 8.47116 2.55908 8.47116 2.55908C8.47116 2.55908 8.47116 2.55908 8.47116 2.55908C8.47116 2.55908 8.47116 2.55908 8.47116 2.55908C10.2904 2.55908 2.40687 2.55908 13.929 2.55908C13.929 2.55908 13.929 2.55908 13.929 2.55908C13.929 2.55908 13.929 2.55908 13.929 2.55908C13.929 2.55908 13.929 2.55908 13.929 2.55908C13.929 2.55909 13.929 2.55909 13.929 2.5591C13.929 2.55911 13.929 2.55914 13.929 2.55917C13.929 2.55931 13.9289 2.55959 13.9289 2.56002C13.9287 2.56092 13.9284 2.58471 13.9282 2.58597C13.9276 2.59836 13.927 2.61479 13.9262 2.6348C13.9246 2.66649 13.9225 2.69265 13.92 2.72844C13.915 2.7861 13.9082 2.85003 13.8998 2.90381C13.8829 3.01348 13.8594 3.11556 13.8308 3.21613C13.7737 3.40749 13.6959 3.5793 13.6086 3.76036C13.4341 4.11654 13.2217 4.4958 13.0607 5.13164Z" fill="black"/>
<path d="M13.386 13.4858C11.8133 13.0535 10.5306 14.7877 8.60437 14.4882C6.68627 14.1869 6.41978 13.2461 4.20006 13.3833C3.60466 13.4185 3.0291 13.394 2.42961 13.335C2.28406 13.3201 2.13018 13.3035 1.95067 13.2788C1.87939 13.2697 1.82628 13.2641 1.69592 13.2407C1.65266 13.2327 1.59134 13.2239 1.46315 13.1881C1.39582 13.168 1.3116 13.1449 1.15624 13.0731C1.00444 12.9809 0.742762 12.9332 0.326342 12.3462C0.130566 12.0572 -0.0517311 11.5227 0.0290871 10.9973C0.102472 10.4704 0.363239 10.1028 0.556442 9.90021C0.960669 9.50276 1.16395 9.47037 1.30197 9.40569C1.371 9.37983 1.42328 9.36399 1.46709 9.35163C1.48556 9.34652 1.48941 9.34557 1.49996 9.34281C1.51835 9.33806 1.53509 9.33401 1.55057 9.33044C1.6719 9.30322 1.7283 9.29783 1.77761 9.29183C1.8708 9.28191 1.9188 9.28081 1.96984 9.27901C2.08161 9.2784 2.14444 9.28265 2.24632 9.28603C2.36849 9.29476 2.54318 9.30489 2.66308 9.31591C2.78362 9.32687 2.91658 9.3381 3.06086 9.34898C3.93088 9.42545 4.65343 9.46959 5.11268 9.28994C6.09097 8.90554 6.19603 10.0677 7.58688 9.8096C8.98022 9.55151 9.82182 9.70321 11.0401 10.081C12.2553 10.4587 15.9945 10.7812 17.3577 10.3172C18.7202 9.85311 20.2596 10.6583 21.2018 10.8493C21.4932 10.9088 21.7158 10.9902 21.8916 11.0749C21.9782 11.1108 21.9987 11.1859 22 11.26C22 11.2601 22 11.2601 22 11.2602C22.0029 11.3525 21.9498 11.4433 21.8555 11.455C21.3954 11.5116 20.6947 11.661 19.8821 11.9959C18.3572 12.6202 18.1905 11.9303 16.1307 12.2511C14.0689 12.572 12.8349 13.2134 10.4109 12.7986C7.98744 12.3839 7.43237 14.1195 4.00966 13.1359C3.66574 13.0366 3.3518 12.9658 3.06086 12.9191C2.87818 12.8931 2.7389 12.875 2.6092 12.864C2.43793 12.8535 2.3494 12.8492 2.21887 12.8537C2.19473 12.8547 2.1815 12.8558 2.17108 12.8573C2.17063 12.8575 2.17832 12.8589 2.23955 12.8515C2.2729 12.8465 2.31508 12.8429 2.42458 12.8145C2.40994 12.8182 2.52149 12.791 2.63675 12.7407C2.75923 12.6737 2.96647 12.6342 3.30251 12.2055C3.46145 11.9929 3.62443 11.6097 3.60264 11.2021C3.58677 10.7941 3.41121 10.4683 3.26596 10.2849C2.95962 9.91924 2.78312 9.87639 2.67114 9.81374C2.45321 9.71934 2.39868 9.71983 2.34523 9.70532C2.2941 9.69469 2.28296 9.69361 2.28195 9.69318C2.17525 9.67565 2.29057 9.68492 2.31823 9.6798C2.42852 9.6757 2.5324 9.66441 2.6514 9.64929C3.09996 9.5868 3.52718 9.4487 3.9498 9.29035C4.81777 8.97381 5.73006 8.57652 7.26184 8.5114C10.6664 8.36692 14.9334 9.45958 16.981 9.40428C17.7187 9.38467 18.5604 9.34916 19.42 9.31361C19.4328 9.31336 19.4396 9.31311 19.4408 9.31287C19.4408 9.31285 19.4409 9.31283 19.4409 9.31282C19.4409 9.31281 19.4409 9.3128 19.4409 9.3128C19.4409 9.31279 19.4409 9.31279 19.4409 9.31279C19.4409 9.31279 19.4409 9.31279 19.4409 9.31279C19.4409 9.31279 19.4409 9.31279 19.4409 9.31279C19.4409 9.31279 19.4409 9.31279 19.4409 9.31279C19.4409 9.31279 19.4409 9.31279 19.4409 9.31279C19.4409 6.64722 19.4409 16.7764 19.4409 14.1108V14.1108C19.4409 14.1108 19.4409 14.1108 19.4409 14.1108C19.4409 14.1108 19.4409 14.1108 19.4409 14.1108C19.4409 14.1108 19.4409 14.1108 19.4409 14.1108C19.4409 14.1109 19.4408 14.1109 19.4406 14.1109C19.4402 14.111 19.4394 14.1111 19.4384 14.1111C19.4363 14.1112 19.4329 14.1114 19.4283 14.1115C19.4086 14.112 19.4064 14.1125 19.3919 14.113C19.3626 14.114 19.3406 14.1149 19.3166 14.1159C19.2612 14.1178 19.2181 14.1197 19.1646 14.1216C19.0633 14.1253 18.9563 14.1288 18.8593 14.1322C18.6504 14.1388 18.4485 14.1447 18.233 14.1495C17.813 14.159 17.38 14.1641 16.9391 14.1624C16.0563 14.159 15.1434 14.1285 14.212 14.052C13.0366 13.9553 11.7457 13.9961 10.4216 14.0512C7.62354 14.0472 7.39105 9.67812 10.1737 9.38561C12.092 9.09792 14.1231 8.74447 16.0719 8.78965C17.0659 8.81646 17.9799 8.81825 19.3689 8.89961C21.6268 8.89961 21.6268 12.6629 19.3689 12.6629C16.7718 12.3314 14.0606 11.9862 12.576 11.7302C10.4765 11.3685 9.96243 11.2869 7.94217 11.5079C6.78184 11.6349 5.17991 11.5152 3.82833 11.0479C3.14772 10.8128 3.30232 10.4854 3.98682 10.3287C4.98792 10.0996 5.81038 10.2527 6.32661 9.84346C7.35764 9.02568 7.79633 8.71196 9.09737 9.18795C10.3984 9.66387 11.0128 8.58226 11.7711 8.70674C12.5279 8.8313 12.5188 9.46928 16.3761 8.97774C17.5198 8.83228 18.5032 8.71888 19.3689 8.62824C21.9525 8.62824 21.9525 12.9343 19.3689 12.9343C17.7545 13.2524 16.1898 13.5442 15.2344 13.7278C14.2448 13.9196 12.4644 13.8867 10.6643 13.9902L10.4216 9.42055C11.2119 9.4607 12.0198 9.47094 12.7541 9.40915C13.578 9.33997 14.6989 9.31669 15.8903 9.30224C16.4851 9.29502 17.1039 9.29001 17.705 9.28257C18.0087 9.27885 18.3102 9.27453 18.6037 9.26902C18.7497 9.26627 18.8921 9.26322 19.0409 9.2598C19.1071 9.25809 19.1898 9.25629 19.2517 9.25438C19.2902 9.25343 19.3288 9.25246 19.3568 9.25145C19.3796 9.25095 19.3984 9.25044 19.412 9.24993C19.4145 9.24967 19.4363 9.24941 19.4395 9.24915C19.44 9.24912 19.4404 9.24909 19.4407 9.24905C19.4408 9.24904 19.4409 9.24902 19.4409 9.249C19.4409 9.249 19.4409 9.249 19.4409 9.24899C19.4409 9.24899 19.4409 9.24899 19.4409 9.24899C19.4409 9.24898 19.4409 9.24898 19.4409 9.24898C19.4409 9.24898 19.4409 9.24898 19.4409 9.24898C19.4409 9.24898 19.4409 9.24898 19.4409 9.24898C19.4409 9.24898 19.4409 9.24898 19.4409 9.24898C19.4409 10.8909 19.4409 3.77603 19.4409 14.1746C19.4409 14.1746 19.4409 14.1746 19.4409 14.1746C19.4409 14.1746 19.4409 14.1746 19.4409 14.1746C19.4409 14.1746 19.4409 14.1746 19.4409 14.1747C19.4407 14.1747 19.4398 14.1748 19.4382 14.1749C19.435 14.175 19.429 14.1751 19.42 14.1752C18.416 14.2043 17.5291 14.2434 16.9204 14.3357C14.9476 14.6322 14.9616 13.9165 13.386 13.4858Z" fill="black"/>
</svg>
