<svg width="36" height="36" viewBox="0 0 36 36" fill="none" xmlns="http://www.w3.org/2000/svg">
<rect width="36" height="36" rx="8" fill="white"/>
<path d="M24.2437 22.3531H21.5289V14.2469C21.5289 12.3149 19.9489 10.7488 17.9998 10.7488Lnan nanL17.9998 10.7488C16.0507 10.7488 14.4706 12.3149 14.4706 14.2469V22.3531H11.7559V14.0367C11.7559 10.6186 14.5513 7.84766 17.9998 7.84766Lnan nanL17.9998 7.84766C21.4482 7.84766 24.2437 10.6186 24.2437 14.0367V22.3531Z" fill="#FF952D"/>
<path d="M30 22.3551C30 25.5595 27.3792 28.1573 24.1463 28.1573H11.8537C8.62077 28.1573 6 25.5595 6 22.3551V15.9727H8.92683V21.5814C8.92683 23.6109 10.5867 25.2562 12.6341 25.2562H16.5366V15.9727H19.4634V25.2562H23.3659C25.4133 25.2562 27.0732 23.6109 27.0732 21.5814V15.9727H30V22.3551Z" fill="#FF952D"/>
</svg>
