<svg width="46" height="46" viewBox="0 0 46 46" fill="none" xmlns="http://www.w3.org/2000/svg">
<rect width="46" height="46" rx="12" fill="url(#paint0_linear_237_1792)"/>
<path d="M13.1709 26.876C13.1709 29.0744 14.9686 30.8572 17.1865 30.8574H21.415V20.7998H24.585V30.8574H28.8135C31.0314 30.8572 32.8291 29.0744 32.8291 26.876V20.7998H36V27.7139C36 31.1854 33.1605 34 29.6582 34H16.3418C12.8395 34 10 31.1854 10 27.7139V20.7998H13.1709V26.876ZM22.999 12C26.7346 12.0002 29.7627 15.0023 29.7627 18.7051V27.7139H26.8223V18.9326C26.8223 16.8398 25.1104 15.1428 22.999 15.1426C20.8875 15.1426 19.1758 16.8397 19.1758 18.9326V27.7139H16.2344V18.7051C16.2344 15.0021 19.2632 12 22.999 12Z" fill="white"/>
<defs>
<linearGradient id="paint0_linear_237_1792" x1="23" y1="0" x2="23" y2="46" gradientUnits="userSpaceOnUse">
<stop stop-color="#FFAE00"/>
<stop offset="1" stop-color="#FF7300"/>
</linearGradient>
</defs>
</svg>
