<svg width="818" height="312" viewBox="0 0 818 312" fill="none" xmlns="http://www.w3.org/2000/svg" xmlns:xlink="http://www.w3.org/1999/xlink">
<use xlink:href="#stroke0_1118_3040" transform="translate(254.676 185.609) scale(0.42529) rotate(155.704)"/>
<use xlink:href="#stroke0_1118_3040" transform="translate(133.381 121.651) scale(0.452848) rotate(-15.0585)"/>
<use xlink:href="#stroke0_1118_3040" transform="translate(200.763 117.799) scale(0.355032) rotate(17.8443)"/>
<use xlink:href="#stroke0_1118_3040" transform="translate(306.552 201.525) scale(0.315624) rotate(146.113)"/>
<use xlink:href="#stroke0_1118_3040" transform="translate(298.414 243.526) scale(0.302291) rotate(-171.074)"/>
<use xlink:href="#stroke0_1118_3040" transform="translate(337.895 202.961) scale(0.286332) rotate(131.927)"/>
<use xlink:href="#stroke0_1118_3040" transform="translate(318.498 131.944) scale(0.434609) rotate(52.2354)"/>
<use xlink:href="#stroke0_1118_3040" transform="translate(298.656 173.891) scale(0.294132) rotate(12.4644)"/>
<use xlink:href="#stroke0_1118_3040" transform="translate(318.715 278.443) scale(0.2957) rotate(-109.833)"/>
<use xlink:href="#stroke0_1118_3040" transform="translate(305.558 206.33) scale(0.345556) rotate(-19.828)"/>
<use xlink:href="#stroke0_1118_3040" transform="translate(451.459 286.547) scale(0.409811) rotate(165.397)"/>
<use xlink:href="#stroke0_1118_3040" transform="translate(357.588 323.379) scale(0.466123) rotate(-98.4821)"/>
<use xlink:href="#stroke0_1118_3040" transform="translate(356.676 259.434) scale(0.442388) rotate(-43.7054)"/>
<use xlink:href="#stroke0_1118_3040" transform="translate(507.21 203.156) scale(0.429778) rotate(72.869)"/>
<use xlink:href="#stroke0_1118_3040" transform="translate(416.753 238.61) scale(0.468885) rotate(-18.3483)"/>
<use xlink:href="#stroke0_1118_3040" transform="translate(543.243 232.829) scale(0.304175) rotate(67.9282)"/>
<use xlink:href="#stroke0_1118_3040" transform="translate(564.295 204.318) scale(0.445384) rotate(57.5592)"/>
<use xlink:href="#stroke0_1118_3040" transform="translate(639.827 326.483) scale(0.42854) rotate(164.495)"/>
<use xlink:href="#stroke0_1118_3040" transform="matrix(0.283452 -0.1332 0.1332 0.283452 539.735 259.137)"/>
<use xlink:href="#stroke0_1118_3040" transform="matrix(0.20774 -0.35222 0.35222 0.20774 542.078 294.416)"/>
<use xlink:href="#stroke0_1118_3040" transform="translate(725.823 284.579) scale(0.435669) rotate(140.586)"/>
<use xlink:href="#stroke0_1118_3040" transform="translate(609.694 217.914) scale(0.422294) rotate(-7.81582)"/>
<use xlink:href="#stroke0_1118_3040" transform="translate(655.758 301.699) scale(0.282895) rotate(-92.1198)"/>
<use xlink:href="#stroke0_1118_3040" transform="translate(794.751 224.209) scale(0.452316) rotate(109.05)"/>
<use xlink:href="#stroke0_1118_3040" transform="translate(745.338 327.533) scale(0.404165) rotate(-138.879)"/>
<use xlink:href="#stroke0_1118_3040" transform="translate(758.879 170.157) scale(0.376935) rotate(37.226)"/>
<use xlink:href="#stroke0_1118_3040" transform="translate(832.972 230.336) scale(0.408007) rotate(132.484)"/>
<use xlink:href="#stroke0_1118_3040" transform="translate(712.218 314.999) scale(0.430281) rotate(-124.932)"/>
<use xlink:href="#stroke0_1118_3040" transform="translate(669.97 276.824) scale(0.279128) rotate(-92.6287)"/>
<use xlink:href="#stroke0_1118_3040" transform="translate(738.592 215.29) scale(0.300235) rotate(104.813)"/>
<use xlink:href="#stroke0_1118_3040" transform="translate(714.673 308.321) scale(0.424816) rotate(-174.992)"/>
<use xlink:href="#stroke0_1118_3040" transform="translate(703.491 288.658) scale(0.403845) rotate(165.134)"/>
<use xlink:href="#stroke0_1118_3040" transform="translate(672.733 250.177) scale(0.297222) rotate(132.988)"/>
<use xlink:href="#stroke0_1118_3040" transform="translate(584.68 199.298) scale(0.285763) rotate(28.6198)"/>
<use xlink:href="#stroke0_1118_3040" transform="translate(529.065 222.417) scale(0.309788) rotate(-15.5165)"/>
<use xlink:href="#stroke0_1118_3040" transform="translate(544.829 192.093) scale(0.338596) rotate(30.8533)"/>
<use xlink:href="#stroke0_1118_3040" transform="translate(601.819 286.569) scale(0.389273) rotate(157.133)"/>
<use xlink:href="#stroke0_1118_3040" transform="translate(452.123 273.268) scale(0.326557) rotate(-61.4817)"/>
<use xlink:href="#stroke0_1118_3040" transform="translate(504.583 192.404) scale(0.365141) rotate(55.2801)"/>
<use xlink:href="#stroke0_1118_3040" transform="translate(470.871 207.51) scale(0.286683) rotate(44.9342)"/>
<use xlink:href="#stroke0_1118_3040" transform="translate(502.241 274.842) scale(0.278869) rotate(145.373)"/>
<use xlink:href="#stroke0_1118_3040" transform="translate(466.552 214.88) scale(0.325393) rotate(77.598)"/>
<use xlink:href="#stroke0_1118_3040" transform="translate(492.651 252.886) scale(0.463341) rotate(123.722)"/>
<use xlink:href="#stroke0_1118_3040" transform="translate(417.368 211.904) scale(0.327742) rotate(78.4268)"/>
<use xlink:href="#stroke0_1118_3040" transform="translate(343.214 340.559) scale(0.455807) rotate(-127.881)"/>
<use xlink:href="#stroke0_1118_3040" transform="translate(281.729 181.683) scale(0.445958) rotate(9.11583)"/>
<use xlink:href="#stroke0_1118_3040" transform="translate(383.939 255.073) scale(0.278236) rotate(114.785)"/>
<use xlink:href="#stroke0_1118_3040" transform="translate(380.366 210.647) scale(0.442405) rotate(64.3979)"/>
<use xlink:href="#stroke0_1118_3040" transform="translate(391.444 245.342) scale(0.338484) rotate(63.9473)"/>
<use xlink:href="#stroke0_1118_3040" transform="translate(357.763 402.826) scale(0.46617) rotate(-116.334)"/>
<use xlink:href="#stroke0_1118_3040" transform="translate(481.727 369.425) scale(0.413915) rotate(165.213)"/>
<use xlink:href="#stroke0_1118_3040" transform="translate(483.96 255.636) scale(0.419836) rotate(74.7453)"/>
<use xlink:href="#stroke0_1118_3040" transform="translate(490.885 236.401) scale(0.434415) rotate(58.7572)"/>
<use xlink:href="#stroke0_1118_3040" transform="translate(515.115 380.391) scale(0.410468) rotate(-153.103)"/>
<use xlink:href="#stroke0_1118_3040" transform="translate(493.467 211.898) scale(0.456567) rotate(25.5497)"/>
<use xlink:href="#stroke0_1118_3040" transform="translate(505.997 329.81) scale(0.31237) rotate(-101.34)"/>
<use xlink:href="#stroke0_1118_3040" transform="translate(476.803 290.949) scale(0.456973) rotate(-63.7802)"/>
<use xlink:href="#stroke0_1118_3040" transform="translate(590.712 193.92) scale(0.291983) rotate(63.4259)"/>
<use xlink:href="#stroke0_1118_3040" transform="translate(526.281 202.871) scale(0.280502) rotate(-19.6032)"/>
<use xlink:href="#stroke0_1118_3040" transform="translate(634.289 172.575) scale(0.440195) rotate(106.013)"/>
<use xlink:href="#stroke0_1118_3040" transform="translate(474.46 257.151) scale(0.44855) rotate(-91.9804)"/>
<use xlink:href="#stroke0_1118_3040" transform="translate(549.763 246.573) scale(0.380019) rotate(-170.59)"/>
<use xlink:href="#stroke0_1118_3040" transform="translate(513.938 118.986) scale(0.340166) rotate(65.9435)"/>
<use xlink:href="#stroke0_1118_3040" transform="translate(479.712 102.497) scale(0.364371) rotate(53.0345)"/>
<use xlink:href="#stroke0_1118_3040" transform="translate(431.544 79.0418) scale(0.442233) rotate(34.9164)"/>
<use xlink:href="#stroke0_1118_3040" transform="translate(414.133 79.5177) scale(0.392151) rotate(40.1739)"/>
<use xlink:href="#stroke0_1118_3040" transform="translate(358.426 88.2534) scale(0.362073) rotate(11.0688)"/>
<use xlink:href="#stroke0_1118_3040" transform="translate(368.777 211.515) scale(0.380747) rotate(-134.945)"/>
<use xlink:href="#stroke0_1118_3040" transform="translate(389.91 175.615) scale(0.30549) rotate(179.545)"/>
<use xlink:href="#stroke0_1118_3040" transform="translate(370.087 193.477) scale(0.414395) rotate(-169.621)"/>
<use xlink:href="#stroke0_1118_3040" transform="translate(355.023 62.3834) scale(0.415031) rotate(85.0468)"/>
<use xlink:href="#stroke0_1118_3040" transform="translate(190.751 138.938) scale(0.466605) rotate(-64.1785)"/>
<use xlink:href="#stroke0_1118_3040" transform="translate(303.277 86.8732) scale(0.294495) rotate(111.747)"/>
<use xlink:href="#stroke0_1118_3040" transform="translate(286.51 128.59) scale(0.319967) rotate(159.066)"/>
<use xlink:href="#stroke0_1118_3040" transform="translate(216.736 149.634) scale(0.27899) rotate(-140.474)"/>
<use xlink:href="#stroke0_1118_3040" transform="translate(250.056 103.009) scale(0.291973) rotate(143.928)"/>
<use xlink:href="#stroke0_1118_3040" transform="translate(113.871 43.9995) scale(0.393767) rotate(-11.9587)"/>
<use xlink:href="#stroke0_1118_3040" transform="translate(168.395 132.334) scale(0.280802) rotate(-153.28)"/>
<use xlink:href="#stroke0_1118_3040" transform="translate(104.534 120.488) scale(0.285465) rotate(-101.344)"/>
<use xlink:href="#stroke0_1118_3040" transform="translate(37.5344 69.8738) scale(0.407883) rotate(-46.2891)"/>
<use xlink:href="#stroke0_1118_3040" transform="translate(84.2907 130.533) scale(0.350908) rotate(-131.298)"/>
<use xlink:href="#stroke0_1118_3040" transform="translate(88.3971 115.453) scale(0.314967) rotate(-154.646)"/>
<use xlink:href="#stroke0_1118_3040" transform="translate(-2.14581 49.4367) scale(0.287526) rotate(-43.469)"/>
<use xlink:href="#stroke0_1118_3040" transform="translate(7.0747 102.562) scale(0.370429) rotate(-97.2068)"/>
<use xlink:href="#stroke0_1118_3040" transform="translate(79.6452 108.977) scale(0.299792) rotate(-143.702)"/>
<use xlink:href="#stroke0_1118_3040" transform="translate(142.009 37.7431) scale(0.284844) rotate(112.446)"/>
<use xlink:href="#stroke0_1118_3040" transform="translate(72.743 18.3146) scale(0.297288) rotate(1.46897)"/>
<use xlink:href="#stroke0_1118_3040" transform="translate(96.886 114.8) scale(0.314928) rotate(-104.429)"/>
<use xlink:href="#stroke0_1118_3040" transform="translate(113.131 144.603) scale(0.445958) rotate(-109.029)"/>
<use xlink:href="#stroke0_1118_3040" transform="translate(98.7532 79.0822) scale(0.431423) rotate(-48.5995)"/>
<use xlink:href="#stroke0_1118_3040" transform="translate(205.199 18.2494) scale(0.344547) rotate(43.6322)"/>
<use xlink:href="#stroke0_1118_3040" transform="translate(276.766 81.508) scale(0.283602) rotate(124.954)"/>
<use xlink:href="#stroke0_1118_3040" transform="translate(207.053 39.4821) scale(0.351225) rotate(9.95685)"/>
<use xlink:href="#stroke0_1118_3040" transform="translate(312.951 78.388) scale(0.29721) rotate(107.01)"/>
<use xlink:href="#stroke0_1118_3040" transform="translate(218.652 137.885) scale(0.360017) rotate(-69.6282)"/>
<use xlink:href="#stroke0_1118_3040" transform="translate(276.133 206.649) scale(0.464381) rotate(-117.872)"/>
<use xlink:href="#stroke0_1118_3040" transform="translate(343.98 186.11) scale(0.286814) rotate(-155.878)"/>
<use xlink:href="#stroke0_1118_3040" transform="translate(385.54 201.831) scale(0.371304) rotate(-171.984)"/>
<use xlink:href="#stroke0_1118_3040" transform="translate(440.378 127.578) scale(0.409533) rotate(111.992)"/>
<use xlink:href="#stroke0_1118_3040" transform="translate(333.716 131.381) scale(0.348548) rotate(-16.5683)"/>
<use xlink:href="#stroke0_1118_3040" transform="translate(470.518 109.455) scale(0.452643) rotate(83.8357)"/>
<use xlink:href="#stroke0_1118_3040" transform="translate(448.08 247.146) scale(0.350711) rotate(-144.941)"/>
<use xlink:href="#stroke0_1118_3040" transform="translate(431.551 120.38) scale(0.386763) rotate(18.0293)"/>
<use xlink:href="#stroke0_1118_3040" transform="translate(529.957 259.343) scale(0.431463) rotate(-167.883)"/>
<use xlink:href="#stroke0_1118_3040" transform="translate(465.768 156.13) scale(0.293238) rotate(-12.7816)"/>
<use xlink:href="#stroke0_1118_3040" transform="translate(574.964 228.565) scale(0.336383) rotate(179.185)"/>
<use xlink:href="#stroke0_1118_3040" transform="translate(531.376 91.8981) scale(0.451144) rotate(26.8888)"/>
<use xlink:href="#stroke0_1118_3040" transform="translate(633.45 212.735) scale(0.39495) rotate(176.051)"/>
<use xlink:href="#stroke0_1118_3040" transform="translate(675.225 132.337) scale(0.402313) rotate(120.66)"/>
<use xlink:href="#stroke0_1118_3040" transform="translate(656.761 88.8977) scale(0.314166) rotate(81.1209)"/>
<use xlink:href="#stroke0_1118_3040" transform="translate(578.303 170.007) scale(0.409507) rotate(-85.6001)"/>
<use xlink:href="#stroke0_1118_3040" transform="translate(711.412 95.9201) scale(0.295572) rotate(120.002)"/>
<use xlink:href="#stroke0_1118_3040" transform="translate(741.483 58.3386) scale(0.402425) rotate(104.4)"/>
<defs>
<g id="stroke0_1118_3040" data-figma-scatter-ref="stroke0_1118_3040_ref" data-figma-scatter="f0.25_w0_aj180_sj0.3_r0_s0_sw100">
<path d="M161.622 271.62C162.801 270.44 165.001 270.908 165.598 272.466C166.28 274.243 164.308 276.953 162.333 276.953C160.932 276.952 160.386 272.855 161.622 271.62ZM125.347 271.526C126.214 268.071 129.955 267.913 129.955 271.331C129.955 274.319 127.339 276.737 125.786 275.184C125.188 274.586 124.991 272.944 125.347 271.526ZM90.9548 269.953C92.4998 269.953 93.222 272.086 92.068 273.24C90.688 274.62 88.3711 272.708 89.4011 271.04C89.771 270.442 90.4698 269.953 90.9548 269.953ZM141.512 256.176C145.165 250.962 153.033 256.131 149.547 261.453C147.571 264.469 144.663 264.661 141.955 261.953C139.547 259.545 139.508 259.036 141.512 256.176ZM73.2048 251.23C75.5376 250.164 78.9543 251.195 78.9548 252.965C78.9548 254.503 74.0936 257.221 72.4626 256.595C70.1919 255.723 70.6521 252.397 73.2048 251.23ZM179.586 250.7C181.676 246.659 184.455 247.382 184.455 251.967C184.455 254.88 184.063 255.508 182.068 255.79C178.812 256.251 177.794 254.165 179.586 250.7ZM110.955 251.953C112.5 251.953 113.222 254.086 112.068 255.24C110.688 256.62 108.371 254.708 109.401 253.04C109.771 252.442 110.47 251.953 110.955 251.953ZM125.484 235.308C127.968 233.492 129.882 233.6 130.649 235.599C131.313 237.329 128.652 239.953 126.232 239.953C123.969 239.953 123.459 236.79 125.484 235.308ZM56.4548 232.953C58.3068 232.953 60.1711 235.593 59.7741 237.655C59.5331 238.905 58.5208 239.453 56.4548 239.453C53.15 239.453 51.913 236.914 53.9948 234.405C54.6577 233.606 55.7648 232.953 56.4548 232.953ZM160.318 235.45C161.227 233.081 165.455 233.896 165.455 236.439C165.455 238.645 162.346 239.744 160.716 238.114C160.151 237.549 159.972 236.351 160.318 235.45ZM196.198 234.11C197.852 232.456 202.454 233.054 202.455 234.923C202.455 236.69 198.218 238.991 196.312 238.261C194.617 237.61 194.566 235.742 196.198 234.11ZM90.9548 234.953C91.5047 234.953 91.9547 235.403 91.9548 235.953C91.9548 236.503 91.5048 236.953 90.9548 236.953C90.4049 236.953 89.9548 236.503 89.9548 235.953C89.9548 235.403 90.4049 234.953 90.9548 234.953ZM71.5514 214.259C74.027 212.449 74.6796 212.586 77.6345 215.541C81.1173 219.024 78.0602 223.076 73.2272 221.384C69.8362 220.196 68.8974 216.2 71.5514 214.259ZM34.9665 215.44C37.4415 212.458 42.9548 214.246 42.9548 218.031C42.9548 220.921 40.2601 222.413 37.3972 221.109C34.3162 219.705 33.3325 217.409 34.9665 215.44ZM179.159 214.523C181.95 212.567 185.454 214.484 185.455 217.966C185.455 221.094 183.104 222.358 179.705 221.057C176.335 219.766 176.077 216.681 179.159 214.523ZM214.155 215.153C216.556 212.752 221.955 214.69 221.955 217.953C221.955 220.669 218.715 222.192 215.52 220.978C212.789 219.94 212.14 217.168 214.155 215.153ZM107.319 217.446C108.12 215.36 111.324 215.917 111.767 218.219C112.165 220.284 109.278 221.677 107.755 220.153C107.169 219.567 106.973 218.349 107.319 217.446ZM143.431 216.992C144.483 215.289 148.382 216.176 148.769 218.206C148.952 219.17 148.36 220.245 147.451 220.594C145.466 221.355 142.421 218.627 143.431 216.992ZM123.155 197.153C125.911 194.397 132.955 197.004 132.955 200.779C132.955 203.022 129.938 205.953 127.629 205.953C123.218 205.953 120.231 200.077 123.155 197.153ZM231.155 197.153C233.347 194.961 237.885 195.705 239.141 198.463C240.423 201.275 237.199 205.953 233.981 205.953C230.36 205.953 228.414 199.894 231.155 197.153ZM53.0827 197.007C60.5555 193.946 64.7518 201.175 57.5075 204.629C53.4156 206.581 52.3072 205.961 51.3513 201.185C50.8033 198.446 51.0548 197.838 53.0827 197.007ZM196.205 196.962C197.443 196.453 199.58 196.13 200.955 196.244C205.799 196.649 204.127 203.891 198.873 205.265C194.383 206.438 191.907 198.732 196.205 196.962ZM160.564 197.487C163.37 194.681 166.955 196.37 166.955 200.498C166.955 203.092 163.864 206.133 162.245 205.132C159.905 203.686 158.907 199.144 160.564 197.487ZM88.5593 199.108C90.4402 196.423 92.1249 196.379 94.4548 198.953C96.2018 200.883 96.2018 201.023 94.4548 202.953C90.7188 207.081 85.4033 203.614 88.5593 199.108ZM18.2048 196.615C21.6617 195.22 24.3307 197.341 23.7819 201.046C23.2719 204.483 20.1722 205.903 18.3962 203.513C16.6233 201.125 16.517 197.296 18.2048 196.615ZM177.574 178.242C182.074 174.952 188.12 178.726 186.369 183.733C185.322 186.727 180.908 187.989 178.493 185.984C176.118 184.014 175.604 179.682 177.574 178.242ZM213.622 178.62C214.727 177.515 219.471 177.87 220.755 179.153C222.641 181.039 222.168 184.768 219.888 185.989C215.974 188.084 210.544 181.697 213.622 178.62ZM72.0075 181.391C73.1314 180.037 73.4588 180.028 74.7555 181.325C76.4955 183.065 75.6838 185.953 73.4548 185.953C71.31 185.953 70.4556 183.26 72.0075 181.391ZM106.155 179.153C107.61 177.698 109.02 177.648 112.39 178.929C116.93 180.655 115.094 185.953 109.955 185.953C105.588 185.953 103.354 181.954 106.155 179.153ZM143.339 180.395C144.582 177.156 149.462 180.083 148.774 183.655C148.301 186.112 143.609 186.104 143.134 183.645C142.943 182.651 143.035 181.188 143.339 180.395ZM35.3386 180.395C36.0985 178.414 40.8669 178.56 41.6462 180.589C42.5552 182.958 40.613 185.453 37.86 185.453C35.4112 185.453 34.2738 183.17 35.3386 180.395ZM249.136 180.234C249.767 179.474 251.447 178.987 252.869 179.152C256.507 179.575 256.625 184.287 253.011 184.798C249.914 185.235 247.422 182.3 249.136 180.234ZM1.62176 179.62C2.75172 178.489 3.84231 178.873 4.85028 180.757C6.07525 183.045 4.65825 185.437 2.55633 184.63C0.953362 184.015 0.367857 180.874 1.62176 179.62ZM195.155 161.153C199.2 157.108 205.563 162.129 203.137 167.453C200.971 172.208 193.955 170.297 193.955 164.953C193.955 163.523 194.495 161.813 195.155 161.153ZM122.99 161.888C125.209 157.743 133.337 161.845 132.76 166.819C132.498 169.085 131.921 169.497 128.635 169.768C122.714 170.255 120.308 166.899 122.99 161.888ZM159.2 162.108C160.917 160.391 166.018 161.077 167.349 163.203C168.87 165.631 167.004 168.364 163.544 168.775C158.898 169.328 156.169 165.139 159.2 162.108ZM17.8679 163.847C20.8558 161.398 23.3531 161.759 23.7731 164.704C24.2421 167.99 19.5737 170.013 17.1677 167.566C15.5488 165.919 15.5872 165.716 17.8679 163.847ZM53.3181 164.45C54.2271 162.081 58.4548 162.896 58.4548 165.439C58.4546 167.645 55.3465 168.744 53.7165 167.114C53.1515 166.549 52.972 165.351 53.3181 164.45ZM90.4011 165.04C91.191 163.762 92.6307 163.62 93.3298 164.751C94.2917 166.307 92.1385 168.536 90.8845 167.282C90.2495 166.647 90.0321 165.638 90.4011 165.04ZM233.455 164.953C233.939 164.17 234.514 164.112 235.181 164.779C235.731 165.329 235.854 166.307 235.455 166.953C234.971 167.736 234.396 167.794 233.729 167.127C233.179 166.577 233.056 165.599 233.455 164.953ZM72.155 143.153C74.201 141.107 75.9215 141.814 77.6335 145.405C79.4463 149.206 78.3548 151.953 75.0329 151.953C71.365 151.953 69.3911 145.917 72.155 143.153ZM140.99 143.888C143.209 139.743 151.337 143.845 150.76 148.819C150.498 151.085 149.921 151.497 146.635 151.768C140.714 152.255 138.308 148.899 140.99 143.888ZM214.371 144.31C215.315 141.85 219.296 143.115 220.383 146.22C221.148 148.402 220.991 149.346 219.635 150.702C216.554 153.783 212.585 148.965 214.371 144.31ZM104.622 142.62C105.751 141.49 112.484 141.883 113.755 143.153C116.971 146.369 114.013 150.953 108.721 150.953C104.846 150.953 102.025 145.217 104.622 142.62ZM248.622 142.62C251.659 139.582 258.199 144.269 256.629 148.359C255.819 150.469 251.281 151.469 249.442 149.942C247.938 148.694 247.395 143.847 248.622 142.62ZM35.155 143.153C36.8479 141.46 39.9777 141.664 42.1257 143.608C44.6817 145.921 44.4038 148.791 41.4958 150.116C36.8629 152.227 31.7242 146.584 35.155 143.153ZM178.001 143.398C180.63 140.23 185.955 142.327 185.955 146.531C185.955 149.786 183.572 151.325 180.239 150.22C177.156 149.198 176.032 145.771 178.001 143.398ZM1.18426 144.124C2.95012 142.358 5.40436 143.125 5.75262 145.551C6.10859 148.031 3.58934 150.41 1.46844 149.597C-0.35556 148.897 -0.51474 145.823 1.18426 144.124ZM125.522 126.879C128.986 123.051 132.286 125.737 130.077 130.585C129.266 132.364 128.29 132.997 126.706 132.771C123.867 132.366 123.266 129.372 125.522 126.879ZM90.9548 125.953C92.4118 125.953 94.1733 128.943 93.5983 130.44C93.2793 131.272 92.0897 131.953 90.9548 131.953C88.4109 131.953 87.3045 129.442 88.9665 127.44C89.6443 126.623 90.5397 125.953 90.9548 125.953ZM231.291 128.52C232.202 126.145 235.955 126.518 235.955 128.984C235.955 131.343 233.31 132.708 231.755 131.153C231.169 130.567 230.96 129.382 231.291 128.52ZM53.3386 125.395C54.5816 122.156 59.4621 125.083 58.7741 128.655C58.3011 131.112 53.6088 131.104 53.1345 128.645C52.9435 127.651 53.0347 126.187 53.3386 125.395ZM196.339 125.395C197.582 122.156 202.462 125.083 201.774 128.655C201.301 131.112 196.609 131.104 196.134 128.645C195.943 127.651 196.035 126.187 196.339 125.395ZM18.7048 123.033C21.1938 121.583 21.6583 121.691 23.3513 124.108C26.093 128.023 21.5169 132.115 18.155 128.753C16.4142 127.012 16.684 124.21 18.7048 123.033ZM161.551 123.259C163.914 121.531 164.32 121.594 166.508 124.013C168.958 126.719 167.37 129.453 163.346 129.453C159.801 129.453 158.626 125.398 161.551 123.259ZM176.792 108.412C178.282 105.142 183.179 105.008 185.398 108.176C187.404 111.039 187.359 112.233 185.143 114.97C181.634 119.302 174.413 113.633 176.792 108.412ZM35.1979 107.11C38.6209 103.687 45.9262 109.585 43.3542 113.694C42.0142 115.835 37.3673 116.54 35.3952 114.903C33.6272 113.436 33.51 108.798 35.1979 107.11ZM106.155 108.153C109.274 105.034 116.569 109.157 114.312 112.763C113.008 114.846 108.341 115.518 106.395 113.903C104.642 112.449 104.531 109.777 106.155 108.153ZM248.885 109.537C251.5 106.388 256.541 108.671 255.774 112.655C255.536 113.889 254.525 114.453 252.55 114.453C248.965 114.453 246.996 111.813 248.885 109.537ZM72.7048 108.014C75.4777 106.366 78.4171 107.183 78.7741 109.701C79.1151 112.099 74.9529 114.55 72.2829 113.525C70.3741 112.793 70.6471 109.236 72.7048 108.014ZM215.577 108.24C217.848 106.579 219.901 106.913 221.325 109.175C222.736 111.415 221.245 112.962 217.404 113.243C213.892 113.5 212.731 110.321 215.577 108.24ZM1.36395 110.329C1.86393 109.025 2.29819 108.896 3.18817 109.786C4.07716 110.675 4.07356 111.235 3.17156 112.137C1.6438 113.664 0.517033 112.537 1.36395 110.329ZM142.401 110.04C143.42 108.392 146.955 108.737 146.955 110.484C146.955 111.327 146.25 112.286 145.388 112.617C143.507 113.339 141.456 111.569 142.401 110.04ZM198.332 89.7538C199.769 88.8208 202.955 91.7971 202.955 94.0731C202.955 95.0681 202.085 96.3478 201.021 96.9179C195.912 99.6518 193.399 92.9558 198.332 89.7538ZM53.9899 90.8876C55.8619 87.3906 59.9547 89.2641 59.9548 93.6181C59.9548 96.521 56.4363 98.597 54.3913 96.9003C52.6944 95.4924 52.5651 93.5514 53.9899 90.8876ZM124.949 91.4599C126.748 89.2921 129.384 89.9791 129.775 92.7177C130.185 95.5927 127.358 96.7845 125.213 94.6405C123.886 93.3125 123.842 92.7938 124.949 91.4599ZM89.9548 92.453C89.9548 91.5361 90.439 90.9484 91.03 91.1454C91.6209 91.3424 92.1051 91.9311 92.1052 92.453C92.1052 92.975 91.621 93.5646 91.03 93.7616C90.439 93.9584 89.9548 93.3699 89.9548 92.453ZM106.012 73.8466C107.322 71.3997 110.172 71.4303 112.421 73.9159C114.452 76.1589 113.962 78.3446 111.082 79.8856C108.331 81.3569 104.461 76.7474 106.012 73.8466ZM71.7048 71.0331C74.3617 69.4851 75.3919 69.7252 77.9968 72.4979C80.7467 75.4249 79.87 78.213 76.0202 78.7831C71.4303 79.4631 67.953 73.2192 71.7048 71.0331ZM178.705 71.0331C181.256 69.5472 182.435 69.7213 184.38 71.871C188.234 76.1299 184.175 80.7468 179.008 77.9813C176.476 76.6264 176.293 72.4382 178.705 71.0331ZM214.155 72.1532C216.97 69.3383 222.522 71.8079 221.788 75.5477C221.237 78.3477 218.469 79.5078 215.533 78.1698C212.799 76.9248 212.163 74.1451 214.155 72.1532ZM34.9665 72.4403C36.6944 70.3586 40.3146 70.5883 42.4206 72.9159C45.6806 76.5179 42.054 80.2297 37.363 78.0927C34.3142 76.7037 33.3375 74.4023 34.9665 72.4403ZM143.955 74.452C145.696 72.3551 148.455 72.9691 148.455 75.453C148.455 77.662 145.336 78.7338 143.691 77.0888C142.956 76.3538 143.035 75.5609 143.955 74.452ZM91.4548 52.953C93.1596 52.953 95.0944 53.4933 95.7546 54.1532C98.5466 56.9452 95.7296 62.953 91.6286 62.953C87.2179 62.9526 84.2312 57.0771 87.155 54.1532C87.8149 53.4932 89.7498 52.9531 91.4548 52.953ZM123.2 54.1083C125.267 52.0413 129.919 53.1572 131.727 56.1522C134.87 61.3581 127.017 65.7348 123.512 60.7304C121.632 58.0474 121.526 55.7823 123.2 54.1083ZM234.455 52.953C238.789 52.953 240.43 57.6659 237.3 61.1239C235.255 63.3829 234.127 63.4187 231.784 61.2977C229.695 59.4067 229.388 55.9202 231.155 54.1532C231.815 53.4933 233.3 52.9531 234.455 52.953ZM53.2048 53.9618C59.9138 51.1998 63.8957 56.4948 58.3747 60.8368C54.8289 63.6256 53.1163 63.5071 51.9304 60.3886C50.4444 56.4786 50.7419 54.9758 53.2048 53.9618ZM160.564 54.4872C163.37 51.6813 166.955 53.3701 166.955 57.4979C166.955 60.0919 163.864 63.1327 162.245 62.1317C159.905 60.6855 158.907 56.1441 160.564 54.4872ZM195.587 54.2323C198.69 51.9604 203.399 52.9831 203.752 56.0048C204.176 59.6408 200.641 62.5122 196.284 62.0712C194.057 61.8459 193.515 55.7487 195.587 54.2323ZM17.3473 55.3749C18.0766 53.4732 21.3902 53.5672 23.0251 55.537C24.5491 57.374 23.2487 60.2546 20.6647 60.7636C18.8228 61.126 16.5544 57.4408 17.3473 55.3749ZM106.155 36.1532C107.628 34.6802 109.479 34.6282 112.021 35.9882C115.627 37.9182 113.772 42.953 109.455 42.953C105.545 42.9528 103.522 38.7862 106.155 36.1532ZM177.155 35.1532C178.855 33.4532 183.471 33.6656 185.005 35.5136C188.37 39.5695 181.517 45.325 177.395 41.9032C175.645 40.4512 175.515 36.7932 177.155 35.1532ZM35.9948 36.4052C37.4888 34.6052 39.0418 34.5655 41.3727 36.2694C43.4967 37.8224 43.1708 40.7877 40.7048 42.3407C37.2398 44.5227 33.338 39.6062 35.9948 36.4052ZM71.155 36.1532C73.9848 33.3233 79.3609 36.035 78.8005 40.0087C78.5425 41.8396 77.7501 42.5343 75.6452 42.7753C70.9402 43.3153 68.1341 39.1742 71.155 36.1532ZM144.168 37.1415C145.639 35.6695 146.962 36.0172 148.367 38.244C149.929 40.72 146.723 43.835 144.505 41.995C142.643 40.4492 142.527 38.7813 144.168 37.1415ZM214.033 37.3593C215.127 36.0413 215.465 36.0355 216.737 37.3075C218.339 38.9095 217.62 40.953 215.455 40.953C213.373 40.9529 212.623 39.0582 214.033 37.3593ZM195.979 22.9296C199.6 19.3086 204.362 21.486 203.791 26.5018C203.483 29.2058 203.13 29.453 199.57 29.453C194.623 29.453 192.788 26.1205 195.979 22.9296ZM122.99 18.8876C125.233 14.6976 132.366 18.4534 131.789 23.5214C131.523 25.8602 130.909 26.5165 128.754 26.7655C123.152 27.4112 120.424 23.6833 122.99 18.8876ZM54.11 19.5575C58.552 16.4465 62.0997 21.7018 58.0378 25.3778C56.5088 26.7618 55.6998 26.8869 54.0378 25.9979C51.3411 24.5539 51.3753 21.4734 54.11 19.5575ZM163.455 17.953C166.798 17.953 168.127 23.2547 165.179 24.8329C161.481 26.8119 158.169 22.1392 161.155 19.1532C161.815 18.4933 162.85 17.9532 163.455 17.953ZM91.9548 21.953C92.5047 21.953 92.9547 22.4031 92.9548 22.953C92.9548 23.503 92.5048 23.953 91.9548 23.953C91.4049 23.9529 90.9548 23.5029 90.9548 22.953C90.9548 22.4032 91.4049 21.9532 91.9548 21.953ZM107.061 1.75477C108.525 -0.979662 111.39 -0.0898075 111.772 3.21669C112.171 6.67755 109.3 8.145 107.349 5.47743C106.397 4.17543 106.317 3.14477 107.061 1.75477ZM142.264 1.58876C143.043 -0.437771 147.288 -0.554549 148.915 1.40517C150.968 3.87805 149.761 6.45278 146.55 6.45302C143.362 6.45302 141.297 4.10976 142.264 1.58876Z" fill="url(#paint0_linear_1118_3040)"/>
</g>
<path id="stroke0_1118_3040_ref" d="M180.661 154.406C216.485 172.537 252.31 190.667 301.204 211.288C350.098 231.91 410.976 254.473 448.293 267.312C485.609 280.151 497.52 282.583 513.196 284.297C528.873 286.01 547.955 286.931 584.961 282.501C621.967 278.071 676.319 268.263 711.627 259.877C746.934 251.492 761.549 244.826 767.316 239.847C773.083 234.868 769.558 231.776 767.125 230.399C764.693 229.022 763.459 229.453 744.636 232.877C725.813 236.301 689.438 242.705 640.907 247.72C592.376 252.735 532.791 256.168 490.626 259.676C448.46 263.183 425.521 266.661 409.81 266.793C394.098 266.925 386.31 263.605 374.244 260.11C346.132 251.967 328.293 250.17 326.637 252.502C324.63 255.329 327.099 259.874 328.439 263.142C330.364 267.835 336.79 274.864 346.321 284.929C357.851 297.104 372.275 308.302 385.087 317.774C395.021 325.118 402.253 327.176 406.595 327.781C411.312 328.437 419.721 327.391 437.149 324.005C448.767 321.748 465.307 316.699 482.169 310.431C499.03 304.163 515.53 296.395 527.646 289.714C539.763 283.034 546.996 277.676 553.082 272.482C564.323 262.888 570.272 252.051 572.472 240.895C574.699 229.599 572.713 221.477 570.48 217.665C568.799 214.795 563.698 211.396 540.39 200.201C517.081 189.006 475.128 170.469 391.431 145.487C307.734 120.506 183.564 89.6434 112.554 70.4969C41.5444 51.3504 27.4586 44.8557 55.8409 49.5308C84.2232 54.206 155.5 70.2479 200.241 82.2207C244.982 94.1934 261.027 101.611 284.29 113.299C307.553 124.987 337.548 140.721 362.49 152.493C387.432 164.265 406.412 171.598 424.056 177.143C441.7 182.688 457.433 186.222 470.5 187.971C483.567 189.719 493.491 189.574 503.447 188.499C513.403 187.423 523.09 185.42 537.262 180.595C551.434 175.769 569.798 168.181 596.724 151.092C623.651 134.004 658.583 107.645 681.297 89.2001"/>
<linearGradient id="paint0_linear_1118_3040" x1="244.756" y1="174.914" x2="-13.1198" y2="299.733" gradientUnits="userSpaceOnUse">
<stop stop-color="#FAFAF9" stop-opacity="0"/>
<stop offset="1" stop-color="#FAFAF9"/>
</linearGradient>
</defs>
</svg>
