<svg width="83" height="88" viewBox="0 0 83 88" fill="none" xmlns="http://www.w3.org/2000/svg">
<path d="M30.7645 28.4631C31.3891 27.8657 31.9043 27.3531 32.0297 27.0584L53.79 54.4158C53.7919 54.5433 53.2181 55.0678 52.4758 55.7934C52.0961 56.1646 48.7893 58.7406 47.0156 58.7663C45.8579 58.783 44.944 58.3399 44.6749 58.3438L44.6748 58.3438C44.1747 58.351 43.341 58.3631 42.5051 58.2143C41.3251 58.0044 40.8766 58.1472 39.9996 57.929C39.1241 57.7111 38.6744 57.4698 38.154 57.1517C37.5798 56.8007 37.1827 56.5827 36.5264 56.069C35.4461 55.2234 34.8518 54.7072 34.2495 54.0808C33.2323 53.0228 32.3607 52.1707 31.7472 51.4462C31.3242 50.9466 30.7652 50.3856 30.2816 49.7203C29.9027 49.1992 29.4662 48.749 29.1016 48.0958C28.7863 47.5308 28.8315 46.9011 28.3758 46.3176C27.9521 45.775 27.6641 44.9735 27.4294 44.4443C26.9522 43.3683 26.6497 42.1222 26.5494 41.2414C26.3754 39.7141 26.3813 37.9422 26.3679 37.0124C26.3561 36.1964 26.6892 33.8619 26.9462 33.3019C27.1799 32.7928 27.6031 32.0591 27.9454 31.5485C28.2878 31.0378 28.4955 30.7515 28.844 30.2493C29.2719 29.6325 29.4036 29.6325 29.9817 28.9466C30.6481 28.156 30.1578 29.0434 30.7645 28.4631Z" fill="#FFD400"/>
<path d="M50.0393 56.0781C50.6719 55.7807 51.2689 55.1881 51.4803 54.7749C51.6531 54.5035 51.8219 54.2262 51.9859 53.9552C52.0669 53.8206 52.1484 53.6857 52.2131 53.5667C52.2443 53.5084 52.2735 53.4511 52.2778 53.4204C52.2788 53.4068 52.2753 53.3961 52.2431 53.4256C52.2254 53.4436 52.2023 53.4661 52.1522 53.5441C52.1276 53.5836 52.0931 53.6406 52.0491 53.7428C52.0077 53.8593 51.9205 54.009 51.9134 54.4429L52.3212 55.584C51.9014 55.2134 51.4922 54.7866 51.122 54.2484C49.7651 52.2755 50.0304 51.6074 48.2176 49.5537C46.405 47.5001 45.0349 45.0925 44.0761 44.2987C43.1174 43.505 43.6437 42.9221 42.4323 41.6756C41.221 40.4291 40.6476 39.5457 39.903 38.2051C39.1584 36.8644 36.4336 33.0934 35.1395 31.9634C33.8454 30.8334 33.0657 28.9907 32.4437 28.0043C32.25 27.697 32.1156 27.4409 32.0242 27.2352C31.9855 27.1481 31.9981 27.0836 32.0368 27.0528C32.0368 27.0527 32.0368 27.0527 32.0369 27.0527C32.085 27.0144 32.1736 27.0285 32.2535 27.1164C32.6414 27.5435 33.255 28.1549 34.0625 28.8115C35.5681 30.0357 35.337 30.4841 37.0976 32.3539C38.8582 34.2238 40.1501 35.161 41.8082 37.6899C43.4664 40.2187 44.8025 40.0397 46.9354 43.7747C49.0683 47.5095 50.2939 47.1064 53.0567 50.3213C53.8156 51.2044 54.5776 52.1919 55.3178 53.2006C55.4965 53.4473 55.7512 54.0831 55.7419 54.3876C55.7377 54.8333 55.6498 55.013 55.599 55.1591C55.5504 55.2812 55.5032 55.3686 55.4704 55.4265C55.3986 55.5511 55.3536 55.611 55.3127 55.667C55.2332 55.7726 55.1803 55.8315 55.1304 55.8871C55.0347 55.992 54.9595 56.0655 54.8872 56.1353C54.7443 56.2723 54.6181 56.3851 54.4925 56.4967C54.2433 56.7173 54.0067 56.9203 53.7744 57.1219C51.296 58.9121 49.5745 59.9928 47.0376 60.2864C46.914 60.2885 46.7967 60.2874 46.6831 60.2843C46.2502 60.2726 45.81 60.2144 45.3867 60.1242C45.1755 60.0796 44.9667 60.0265 44.7771 59.9757C44.6832 59.9507 44.592 59.9257 44.526 59.9097C44.4935 59.9017 44.4668 59.8962 44.4655 59.8972C44.4754 59.8962 44.4588 59.9144 44.6976 59.92C43.9854 59.9488 43.1408 59.9612 42.2212 59.8103C41.8803 59.7556 41.5829 59.7283 41.191 59.7121C40.8104 59.6988 40.1641 59.6627 39.6059 59.5113C38.8848 59.3444 37.9346 58.9357 37.3249 58.508C37.1239 58.375 36.9081 58.2363 36.673 58.076C36.3155 57.834 35.9327 57.5516 35.5855 57.2712C34.8218 56.6537 33.9498 55.9791 33.133 55.1543C32.3044 54.319 31.417 53.5239 30.5114 52.4927C30.0857 52.0037 29.4891 51.3967 28.9809 50.6659C28.7019 50.2509 28.1741 49.639 27.8021 48.883C27.7941 48.8669 27.7861 48.8507 27.7781 48.8344C27.5199 48.3244 27.4486 47.86 27.3955 47.6029C27.3425 47.3333 27.3259 47.2571 27.2878 47.1672C26.7146 46.3287 26.5197 45.5518 26.2995 44.9454C25.8616 43.745 25.6249 42.5653 25.5501 41.3552C25.4788 39.6433 25.6032 38.135 25.6816 37.0223C25.698 36.757 25.7325 36.5508 25.7652 36.3535C26.0551 34.8689 26.2199 34.1205 26.5767 33.1323C26.8542 32.5721 27.1365 32.0332 27.5697 31.2966C27.6645 31.1383 27.765 30.9714 27.873 30.7942C28.0372 30.5247 28.2225 30.2448 28.4204 29.9554C28.5801 29.7179 28.8003 29.4498 29.0218 29.2429C29.2352 29.0406 29.4256 28.8575 29.627 28.6477C29.6915 28.5799 29.7546 28.516 29.8283 28.4472C29.8655 28.4127 29.9028 28.3789 29.9544 28.3374C29.9807 28.3167 30.0076 28.2956 30.0515 28.2675C30.1041 28.2432 30.1283 28.1924 30.3423 28.1736C30.4516 28.1651 30.6082 28.2354 30.6652 28.2972C30.7269 28.3569 30.74 28.3876 30.7448 28.394C30.7607 28.4186 30.6717 28.286 30.5204 28.2662C30.2691 28.266 30.3464 28.3093 30.3443 28.2964C30.3794 28.2832 30.4447 28.2383 30.5058 28.1927C30.8723 27.911 31.2426 27.6475 31.5814 27.3852C31.9102 27.1349 32.0363 27.0215 32.1011 27.0988C32.1653 27.1878 32.0688 27.5004 31.8041 27.8539C31.5501 28.1995 31.2825 28.4854 31.0357 28.7467C30.96 28.8235 30.8925 28.8974 30.7642 28.9853C30.7253 29.0096 30.6895 29.034 30.608 29.0612C30.545 29.0877 30.3291 29.1128 30.1788 28.9927C30.0521 28.8868 30.0323 28.828 30.0852 28.9011C30.1111 28.9358 30.227 29.0125 30.3259 29.0148C30.4259 29.0203 30.4675 28.9982 30.4921 28.9899C30.5972 28.9327 30.4828 29.0197 30.457 29.0659C30.4139 29.1217 30.3738 29.1792 30.3321 29.2419C30.1712 29.4819 30.0301 29.7063 29.9422 29.9196C29.7663 30.3266 29.7614 30.5478 29.6833 30.8316C29.5262 31.3434 29.3197 31.7391 28.9347 32.2116C28.7921 32.3834 28.6169 32.5826 28.409 32.8117C28.1232 33.1271 27.9432 33.447 27.8532 33.7182C27.8608 33.7456 27.8337 33.9766 27.8446 34.1371C27.8511 34.3092 27.8695 34.4805 27.8866 34.6451C27.9211 34.9757 27.9498 35.2823 27.8767 35.5968C27.7758 36.0495 27.5782 36.3269 27.4884 36.9962C27.4494 37.7335 27.3896 38.9393 27.7316 40.9935C27.7384 41.0308 27.7452 41.0678 27.7522 41.1044C27.9685 42.158 28.3462 43.1408 28.7275 43.8685C29.0993 44.6386 29.3695 45.1625 29.5833 45.3746C30.0079 45.8794 30.2142 46.4787 30.3213 46.817C30.4303 47.1713 30.4907 47.2919 30.516 47.3064C30.759 47.6885 31.0833 48.0241 31.463 48.4759C31.524 48.5489 31.5889 48.63 31.6569 48.7205C31.9507 49.1146 32.3781 49.6033 33.0068 50.3797C33.6014 51.1494 34.4839 52.0981 35.3423 53.0302C35.8408 53.5761 36.4011 54.0503 37.0005 54.4865C37.1519 54.5967 37.3139 54.7151 37.4869 54.842C37.9155 55.1597 38.3252 55.4037 38.986 55.7906C39.4922 56.0958 39.8015 56.2216 40.3884 56.3661C40.6674 56.4333 40.8799 56.4472 41.3368 56.4648C41.7854 56.4809 42.3223 56.5306 42.7901 56.6125C43.3755 56.7089 44.0054 56.7112 44.6509 56.682C45.0286 56.6869 45.1011 56.727 45.2103 56.7451C45.3058 56.7664 45.374 56.7842 45.4335 56.7995C45.5537 56.8308 45.6433 56.8548 45.7295 56.8762C45.899 56.9186 46.0418 56.9485 46.173 56.9693C46.435 57.011 46.6479 57.0158 46.8196 56.9992C46.8805 56.9934 46.9366 56.9866 46.9898 56.9793C47.0463 56.9468 47.3733 56.86 47.5987 56.7918C47.841 56.7218 48.0654 56.6694 48.2929 56.6235C48.7487 56.527 49.2293 56.4638 50.0393 56.0781Z" fill="black"/>
<path d="M48.7998 31.7999C49.1133 32.161 49.5611 32.8347 50.0476 33.6336C50.509 34.2836 50.9496 34.7995 51.3037 35.4178C51.6897 36.092 52.0903 36.3368 52.3498 37.1501C52.4702 37.5277 52.6154 38.0878 52.7785 38.6855C52.9445 39.2938 53.1291 39.9412 53.325 40.4753C53.7484 41.6292 54.1056 42.4133 54.3474 43.0895C54.5892 43.7658 54.9415 44.4153 55.0424 45.1162C55.1399 45.7945 55.3259 46.6878 55.4558 47.628C55.6489 49.0254 55.693 51.0736 55.485 51.7578C55.2344 52.582 55.0319 53.4644 54.4429 53.9215C53.8113 54.4118 53.1163 55.0005 50.7425 54.821C49.1782 54.7027 48.2148 54.9368 46.2212 54.5468C45.0011 54.3082 43.9426 54.186 42.9041 53.4041C41.609 52.4291 39.9573 51.4239 39.0906 50.1462C38.0286 48.5806 37.5704 47.9846 36.992 47.152C36.1942 46.0035 35.6821 45.1722 35.0071 44.2632C33.473 42.1969 32.9114 41.5136 32.4105 40.7136C31.9354 39.955 30.6217 39.2906 30.4155 34.9574C30.2533 31.5509 30.1813 30.7773 30.7248 30.0166C31.379 29.1008 32.0104 28.127 32.7471 27.613C33.4948 27.0913 34.1769 26.2681 34.9841 26.0532C36.3251 25.6961 38.2993 25.6725 39.124 25.8542C39.9697 26.0406 41.1867 26.3769 42.0967 26.9171C43.586 27.801 44.5804 28.3938 45.4884 29.1882C46.2174 29.826 46.9717 30.2631 47.6704 30.7806C47.6997 30.7996 47.7303 30.8198 47.7623 30.8413C47.8551 30.9037 47.9543 30.9857 48.0578 31.0826C48.3171 31.2968 48.566 31.5306 48.7998 31.7999Z" fill="#FFD500"/>
<path d="M41.4452 50.7886C42.08 51.4491 42.9026 51.7865 43.8084 52.2029C44.551 52.4472 45.1396 52.2688 46.604 52.59C46.6606 52.6036 46.7158 52.6175 46.7714 52.6318C48.4265 53.0553 49.046 53.2485 50.8438 53.4809C51.2664 53.5452 51.7743 53.5756 52.2918 53.476C52.5642 53.4222 52.791 53.3526 52.9738 53.2672C53.1614 53.1798 53.3109 53.0799 53.6127 52.8519C53.7019 52.8856 54.0456 52.1309 54.2766 51.3905C54.3033 51.3591 54.3539 51.0676 54.3718 50.8535C54.3932 50.624 54.402 50.3916 54.4013 50.175C54.3995 49.7396 54.3599 49.3607 54.2838 49.0731C54.1316 48.5051 54.1922 48.1649 54.2677 47.7922C54.354 47.3271 54.4544 46.8121 54.179 45.7854C54.1326 45.6082 54.0904 45.4341 54.0536 45.2584C53.924 44.739 53.6104 44.1593 53.391 43.4315C53.223 42.8464 53.029 42.1953 52.856 41.4314C52.8109 41.2341 52.7492 40.9919 52.6765 40.7133C52.4263 39.791 52.2036 38.5053 51.8828 37.2991C51.7542 36.7256 51.2849 36.3109 50.897 35.6507C50.4827 34.9559 49.9284 34.3718 49.5338 33.9231C49.4794 33.8636 49.4254 33.8054 49.376 33.7551C48.6095 32.9821 48.0049 31.8935 47.4586 31.2929C47.2523 31.1053 47.093 30.9652 46.8702 30.8326C46.629 30.6927 46.3922 30.5221 46.2071 30.3706C46.1959 30.3643 46.1666 30.3406 46.1569 30.3322C46.0545 30.211 45.9816 30.0962 45.9154 29.9973C45.865 29.9215 45.821 29.8522 45.7787 29.7885C45.6399 29.5716 45.4974 29.4242 45.3593 29.2992C45.2851 29.232 45.2635 29.1678 45.2846 29.1228C45.2846 29.1228 45.2846 29.1228 45.2846 29.1227C45.3107 29.0675 45.4058 29.0427 45.5312 29.1049C45.7089 29.192 45.9153 29.3276 46.0994 29.5076C46.2493 29.6485 46.3937 29.8103 46.5489 29.9164L46.5063 29.8838C46.7019 29.9708 46.8964 30.0394 47.1194 30.0885C47.3482 30.1355 47.6585 30.236 47.9185 30.3462C47.9653 30.3653 48.0105 30.3846 48.0557 30.405C49.6467 31.4088 49.6139 32.0168 50.5121 33.2343C50.7336 33.552 51.0298 33.901 51.4249 34.3744C51.6063 34.594 51.7817 34.8186 51.9423 35.0522C52.117 35.2936 52.3237 35.4814 52.5873 35.7811C52.8514 36.0773 53.1009 36.4817 53.2528 36.862C53.7035 37.9493 54.002 38.957 54.3761 40.0897C54.5296 40.5397 54.6895 41.0201 54.86 41.5649C54.9931 41.992 55.1395 42.376 55.2825 42.7552C55.5282 43.4094 55.9914 44.0083 56.2413 44.9437C56.454 45.6083 56.7384 46.3587 56.9042 47.4279C57.0301 48.2931 57.061 49.2653 56.8775 50.5404C56.7927 51.054 56.7555 51.4501 56.5555 52.0832C56.1944 52.9329 56.0723 53.9439 55.1333 54.811C54.0968 55.9564 52.3332 56.5523 50.6075 56.6063C50.0506 56.6452 49.4437 56.7358 48.4419 56.7585C47.62 56.7748 46.694 56.6859 45.8381 56.5053C44.8452 56.2972 43.0906 56.0113 41.7757 54.9028C40.5001 53.8201 38.8625 52.7354 37.7742 51.0391C37.2589 50.1878 36.7902 49.4716 36.3752 48.9167C36.1698 48.6411 35.949 48.3469 35.7216 48.0346C35.0669 47.1442 34.4086 46.1445 33.7076 45.2281C32.8689 44.1044 31.9827 43.061 31.0458 41.5681C31.0393 41.511 30.3879 40.7877 30.0795 40.1728C29.1944 38.4791 28.999 36.7422 28.8698 35.031C28.8166 34.2111 28.751 33.3848 28.7098 32.5048C28.6921 32.0574 28.6724 31.6104 28.7156 31.05C28.7409 30.5266 28.9641 29.6403 29.4037 29.0728C30.0231 28.2497 30.5549 27.254 31.8583 26.3391C31.9715 26.2728 32.1045 26.1822 32.2498 26.0773C32.7663 25.7452 33.3094 25.0844 34.6282 24.7166C36.2576 24.4276 37.6156 24.3999 39.366 24.756C40.4876 25.0794 41.5791 25.4722 42.5681 26.1229C43.9101 27.0355 45.1488 27.916 45.9013 28.7089C45.9025 28.7101 45.9036 28.7112 45.9047 28.7124C47.214 30.0138 48.1889 30.4893 49.1055 31.5346C49.5291 32.0271 49.913 32.581 50.4195 33.3131C51.333 34.6518 52.3519 36.6284 52.8741 38.4647C53.0038 38.9279 52.9552 39.1452 52.8557 39.1097C52.764 39.089 52.5932 38.8626 52.3474 38.47C51.6196 37.3118 51.1582 36.2761 50.5791 35.7932C49.4109 34.8449 48.9512 34.4065 48.2759 32.8558C48.202 32.6937 48.1193 32.5496 48.0499 32.451C47.3144 31.4984 46.3165 31.6391 45.556 30.9933C45.2199 30.7125 45.0456 30.4812 44.7004 30.0889C44.3434 29.6429 43.6739 29.0192 41.5153 27.8966C41.2728 27.7721 40.9741 27.6527 40.6295 27.5461C40.0282 27.3609 39.4164 27.2367 38.8394 27.1457C37.6873 27.0583 36.182 27.2694 35.3789 27.5355C35.2105 27.5787 34.4877 28.345 33.6879 28.9614C33.5371 29.0856 33.3261 29.3263 33.14 29.5796C32.8947 29.9065 32.5513 30.3859 32.0935 30.9944C32.0245 31.0898 32.0234 31.0176 31.9673 31.2769C31.9228 31.5142 31.9028 31.8942 31.8956 32.2916C31.8825 33.096 31.9019 33.999 31.9283 34.8854C31.9527 35.7137 32.0446 36.5119 32.231 37.1802C32.3422 37.5796 32.4867 38.0132 32.6895 38.399C32.7909 38.5917 32.9025 38.7668 33.0479 38.9524C33.1961 39.1568 33.3806 39.2929 33.7683 39.8633C34.4257 40.8704 35.4638 42.1484 36.3147 43.2923C37.1629 44.4237 37.8106 45.433 38.39 46.1809C38.6216 46.4847 38.842 46.7566 39.0404 46.9913C39.9067 48.0154 40.2473 48.6275 40.4888 49.1978C40.6103 49.5866 40.7454 50.0496 41.4452 50.7886Z" fill="black"/>
<path d="M47.7903 45.2181C47.4996 45.3336 47.2433 45.422 47.0181 45.4896C46.7919 45.5679 46.5486 45.6341 46.3459 45.6514C46.083 45.6738 45.8881 45.614 45.8862 45.3919C45.8854 45.2987 45.9586 45.1838 46.0353 45.0724C46.0435 45.0604 46.0519 45.0484 46.0604 45.0365C46.0509 45.0273 46.0419 45.0175 46.0334 45.0072C45.9952 44.9607 46.0065 44.8987 46.0706 44.8384C46.2213 44.6965 46.4148 44.5678 46.5811 44.4582C46.7301 44.3599 47.0059 44.2395 47.2745 44.2065C47.3204 44.0935 47.3686 43.9763 47.4189 43.8563C47.5455 43.5542 47.6259 43.3218 47.6758 43.1055C47.7039 42.5948 47.675 42.1302 47.6427 41.9605C47.5912 41.6905 47.585 41.4264 47.5133 40.9448C47.4976 40.8391 47.4035 40.5341 47.2966 40.1691C47.2878 40.1528 47.2798 40.1366 47.2727 40.1203C47.1539 39.847 47.0271 39.6295 46.9177 39.3604C46.7932 39.054 46.5556 38.7405 46.2439 38.2977C46.0215 37.9817 45.6061 37.7835 45.2784 37.5833C44.626 37.1847 44.1041 36.8366 43.486 36.5172C43.1774 36.3577 42.624 36.222 42.1711 36.1622C41.8357 36.1179 41.5683 36.0872 41.3188 36.0625C41.2375 36.0545 41.1581 36.0278 41.0821 36.0126C41.0507 36.0245 41.02 36.0368 40.9898 36.0496C40.9157 36.0811 40.8514 36.112 40.795 36.1427C40.5929 36.2526 40.4922 36.3593 40.4058 36.4779C40.1997 36.7608 40.0206 37.0284 39.892 37.2689C39.7711 37.4948 39.6282 37.7447 39.5211 38.0488C39.4385 38.2834 39.373 38.7685 39.3678 39.3238C39.3612 40.0335 39.2582 40.9153 39.2375 41.4541C39.2827 41.5392 39.3292 41.6258 39.3734 41.7159C39.4075 41.7855 39.3953 41.8827 39.386 41.8935C39.25 42.0509 39.2226 41.8409 39.2375 41.4541C39.1619 41.3119 39.09 41.1739 39.0387 41.0305C38.959 40.8074 38.875 40.5869 38.8605 39.9243C38.8327 38.6561 38.8624 37.7105 38.9116 37.4862C39.0025 37.0715 39.1263 36.5409 39.3416 36.1364C39.4817 35.8732 39.6404 35.6176 39.8763 35.4294C40.1033 35.2484 40.3058 34.8877 41.0961 34.871C42.3908 34.8436 43.0798 34.9927 43.6088 35.134C44.0422 35.2498 44.7025 35.5232 45.0597 35.7012C45.3869 35.8641 45.6886 35.965 45.9551 36.1829C46.2365 36.4128 46.4641 36.7254 47.3104 37.3306C47.6672 37.5857 48.031 37.7284 48.2275 38.0541C48.4229 38.3777 48.8357 38.9366 49.0977 39.4316C49.2447 39.7094 49.2985 40.5325 49.2551 41.1184C49.2308 41.4452 49.219 41.786 49.1444 42.0715C49.0534 42.4196 48.9856 42.8791 48.8278 43.3172C48.7264 43.5989 48.6975 43.9193 48.5731 44.2169C48.4162 44.5921 48.3222 45.0068 47.7903 45.2181Z" fill="#FFD500"/>
<path d="M47.2136 44.4023C47.0709 44.5037 47.1118 44.5125 47.1496 44.4615C47.1938 44.4121 47.2611 44.3188 47.3526 44.2087C47.3001 44.2696 47.2137 44.4098 47.1933 44.5818C47.1714 44.7529 47.2146 44.8746 47.2211 44.8969C47.3815 45.2239 47.347 45.0848 47.2578 45.0698C47.4476 45.1884 47.4295 45.1532 47.3613 45.2095C47.3025 45.2494 47.1688 45.3493 47.1914 45.3842C47.0442 45.5257 46.9295 45.6598 46.9124 45.733C46.9816 45.6695 47.0984 45.5803 47.2031 45.2979C47.328 45.0298 47.2392 44.4441 47.0095 44.2044C46.8675 44.0025 46.678 43.9131 46.6141 43.8809C46.5421 43.8463 46.5441 43.838 46.5742 43.8221C46.6415 43.7937 46.8 43.7496 47.0523 43.705C46.9674 43.7145 46.782 43.7019 46.4503 43.9179C46.1056 44.1392 45.9498 44.5874 46.0465 44.3527C46.0806 44.282 46.0845 44.2608 46.0358 44.3674C46.0132 44.4263 45.966 44.5182 45.9396 44.7504C45.9057 44.9656 45.9756 45.4395 46.2208 45.7416C46.3845 45.9769 46.7019 46.1656 46.9117 46.214C47.1275 46.2699 47.2477 46.2572 47.3213 46.2525C47.4633 46.2362 47.461 46.2259 47.4477 46.2351C47.404 46.2545 47.2921 46.309 47.0987 46.4096C47.0864 46.4159 47.072 46.4234 47.0577 46.4307C47.1384 46.381 47.2272 46.3412 47.4102 46.1516C47.4856 46.0719 47.6311 45.8873 47.7142 45.6497C47.8189 45.375 47.8261 45.0015 47.7385 44.7301C47.5427 44.178 47.3308 44.0872 47.2224 43.9849C47.1169 43.906 47.0476 43.8714 46.9995 43.847C46.8139 43.7613 46.7936 43.7698 46.7556 43.7581C46.6972 43.7463 46.6964 43.7505 46.6913 43.7518C46.6764 43.7574 46.7341 43.7573 46.5993 43.7689C46.2812 43.7983 46.0528 43.9902 46.0332 44.0261C45.9968 44.0745 46.0379 44.0506 46.0791 44.0129C46.1687 43.932 46.2895 43.7983 46.4045 43.6765C46.7997 43.2657 47.0202 43.0532 47.4417 42.4594C47.581 42.2956 47.7265 42.0789 47.8713 41.8124C47.9362 41.7232 47.9868 41.5112 47.8418 41.0687C47.8306 41.0337 47.8187 40.9974 47.8058 40.9582C47.7354 40.7513 47.6582 40.5862 47.546 40.4C47.4042 40.165 47.2253 39.9193 47.0423 39.7033C46.9502 39.5953 46.8599 39.4906 46.7769 39.3985C46.7049 39.3133 46.585 39.2089 46.6497 39.2526C46.6834 39.269 46.7135 39.3003 46.8821 39.3404C46.9465 39.3552 47.1093 39.374 47.2695 39.3332C47.4426 39.2968 47.637 39.1686 47.7254 39.0643C47.9227 38.8278 47.9085 38.725 47.9252 38.6762C47.9344 38.6204 47.9315 38.6092 47.931 38.6032C47.9248 38.5977 47.9296 38.7054 47.943 38.7989C47.97 38.9988 48.0183 39.2259 48.0692 39.4438C48.1206 39.6629 48.1771 39.8791 48.2339 40.0875C48.2625 40.1925 48.2915 40.2964 48.3205 40.4013C48.3507 40.5194 48.3751 40.5705 48.4189 40.8101C48.4854 41.2377 48.5244 41.6315 48.5939 41.7791C48.6065 41.8291 48.6153 41.8673 48.6232 41.9003C48.8216 42.8378 48.6168 43.1689 48.4198 43.7871C48.3032 44.2187 48.0233 44.5545 47.9254 44.7641C47.8324 44.9782 47.7226 45.1797 47.6526 45.3607C47.6374 45.4002 47.6241 45.4369 47.6129 45.471C47.5627 45.6016 47.5529 45.6637 47.4424 45.882C47.4292 45.9033 47.4167 45.928 47.3689 45.9865C47.3563 46.0015 47.3409 46.019 47.3188 46.0407C47.3047 46.0541 47.305 46.0551 47.2705 46.0842C47.206 46.1301 47.108 46.2304 46.8327 46.255C46.5445 46.2935 46.2004 46.0329 46.137 45.8726C46.0513 45.7181 46.048 45.5942 46.0462 45.5952C46.0419 45.5597 46.0409 45.5333 46.0406 45.5114C46.0451 45.353 46.0562 45.361 46.0579 45.339C46.0654 45.3037 46.0682 45.2938 46.0714 45.2806C46.0779 45.2556 46.0816 45.242 46.0854 45.2277C46.0931 45.1995 46.1 45.1754 46.1061 45.1538C46.1191 45.1089 46.1318 45.0666 46.1441 45.0265C46.1691 44.9449 46.1941 44.8674 46.2194 44.7915C46.2697 44.6404 46.3217 44.4949 46.3743 44.3555C46.4802 44.0749 46.5906 43.8132 46.7085 43.5585C47.0001 42.9571 47.0957 42.6379 47.1578 41.7943C47.1688 41.6776 47.179 41.5415 47.1895 41.3894C47.2032 41.2395 47.2013 41.0788 47.1645 40.927C47.1256 40.7542 47.0639 40.699 46.8628 40.2985C46.7827 40.0738 46.6528 39.8212 46.5398 39.514C46.4388 39.2232 46.18 38.8672 45.9429 38.5095C45.8015 38.2866 45.453 38.0979 45.0956 37.8825C44.4398 37.4755 43.8343 37.0958 43.3073 36.8629C43.0634 36.7621 42.7618 36.7138 42.5401 36.6982C42.3947 36.6882 42.2476 36.6781 42.104 36.6705C41.8239 36.6537 41.5444 36.6261 41.2662 36.5943C41.0468 36.5624 40.9241 36.5192 40.9896 36.5265C41.1269 36.5343 41.2691 36.3807 41.2493 36.3824C41.2493 36.3716 41.2229 36.4191 41.2006 36.4749C41.1521 36.5912 41.0995 36.7539 41.0038 36.93C40.5926 37.6688 40.1895 38.4384 39.9264 38.9946C39.9053 39.0398 39.8839 39.0852 39.8635 39.1269C39.7537 39.3283 39.6707 39.4947 39.6061 39.6418C39.5909 39.6793 39.5781 39.7248 39.5675 39.7697C39.5473 39.8587 39.5121 39.9052 39.4747 39.9053C39.4746 39.9053 39.4746 39.9053 39.4746 39.9053C39.4294 39.9054 39.3784 39.8415 39.3804 39.7083C39.3814 39.672 39.3841 39.6342 39.3889 39.5954C39.4253 39.4098 39.4803 39.2121 39.5514 39.0021C39.6882 38.5153 39.8308 37.9068 39.9795 37.2139C40.034 36.9652 40.0878 36.7498 40.1619 36.5386C40.1898 36.4386 40.2117 36.3048 40.2583 36.1375C40.2844 36.052 40.3099 35.9568 40.395 35.8212C40.4605 35.6918 40.7319 35.4766 40.9774 35.491C41.271 35.5042 41.3544 35.5642 41.3685 35.5599C41.641 35.5954 41.9145 35.6436 42.2325 35.6968C42.637 35.7752 43.0518 35.8245 43.7017 36.0998C43.8954 36.1919 44.1035 36.295 44.3272 36.4094C44.7911 36.6473 45.2019 36.8697 45.5952 37.0647C45.9248 37.2375 46.3887 37.3634 46.8264 37.8877C47.0861 38.2127 47.3812 38.483 47.6611 39.0582C47.7504 39.2441 47.8931 39.4713 48.0393 39.7869C47.9882 39.7063 48.2598 40.0587 48.3807 40.3699C48.5164 40.6992 48.5639 41.0439 48.5637 41.3599C48.5584 41.7343 48.5674 42.1112 48.5207 42.6175C48.4681 43.2319 48.257 43.7631 48.1098 44.1458C47.9958 44.4433 47.9062 44.7248 47.8302 44.9989C47.7925 45.1352 47.7578 45.2708 47.7267 45.4034C47.7111 45.4699 47.6964 45.5354 47.6832 45.5991C47.6767 45.6306 47.6705 45.6621 47.6662 45.689C47.6639 45.7029 47.6621 45.7157 47.6624 45.7222C47.6626 45.725 47.6631 45.7278 47.6669 45.718C47.6685 45.7138 47.6721 45.7043 47.6794 45.6703C47.6765 45.644 47.7116 45.6593 47.6859 45.3689C47.6713 45.2929 47.6594 45.1791 47.5378 44.9934C47.4336 44.8082 47.0698 44.5754 46.7716 44.6008C46.4783 44.6146 46.343 44.7187 46.2606 44.7733C46.1585 44.8527 46.1969 44.8256 46.1724 44.8464C46.1229 44.8935 46.0979 44.9249 46.0784 44.9497C46.041 44.9984 46.0276 45.022 46.0162 45.0406C45.9841 45.0702 46.0505 44.8959 46.0743 44.8023C46.1819 44.4854 46.2932 44.2483 46.3268 44.0981C46.4951 43.6779 46.5763 43.4775 46.5443 43.5072C46.5641 43.3147 46.5792 43.0918 46.5888 42.8481C46.6 42.6259 46.5968 42.2666 46.5993 42.1595C46.5389 41.7007 46.563 41.4304 46.5458 41.0888C46.5692 41.1515 46.5413 40.9877 46.5285 40.9055C46.4456 40.4173 46.342 39.9466 46.2601 39.504C46.2195 39.2798 46.1791 39.0652 46.157 38.8028C46.1545 38.6591 46.115 38.5564 46.2058 38.2109C46.2383 38.1164 46.2805 37.9938 46.4243 37.8397C46.5572 37.6853 46.8504 37.5642 47.0332 37.5693C47.4155 37.58 47.4987 37.681 47.6105 37.7367C47.8972 37.9308 47.9779 38.0372 48.1067 38.1547C48.2238 38.2681 48.3291 38.372 48.4326 38.4723C48.7355 38.7724 48.9995 39.0586 49.2544 39.3894C49.4729 39.6729 49.6766 40.0184 49.8271 40.3707C50.0329 40.8636 50.4043 41.6725 49.9715 42.8191C49.867 43.1075 49.7456 43.4133 49.5557 43.7686C49.4618 43.985 49.1938 44.5512 48.9011 45.006C48.8405 45.1022 48.7786 45.1974 48.7154 45.2915C48.6107 45.4467 48.5105 45.6032 48.3406 45.8242C48.2509 45.9362 48.1506 46.0683 47.9394 46.2509C47.7457 46.4249 47.3087 46.6893 46.8325 46.7174C46.5422 46.7335 46.4589 46.716 46.2954 46.6978C46.2167 46.6864 46.1412 46.6758 46.007 46.6414C45.931 46.6177 45.8708 46.6151 45.6373 46.4993C45.5793 46.4676 45.4981 46.4261 45.3662 46.3185C45.2538 46.2025 44.992 46.0612 44.8423 45.4273C44.7807 45.1371 44.8413 44.7617 44.9445 44.5453C45.0375 44.3306 45.1735 44.1714 45.2449 44.0988C45.4262 43.9193 45.512 43.8794 45.6002 43.8262C45.7281 43.7561 45.962 43.6148 46.2596 43.4894C46.4179 43.4259 46.589 43.3529 46.905 43.3025C47.066 43.2814 47.273 43.2576 47.5847 43.3217C47.8876 43.3758 48.3369 43.6137 48.5786 43.9537C48.8396 44.2749 48.9182 44.7762 48.8826 45.0204C48.8549 45.2815 48.7991 45.4016 48.7668 45.4866C48.6979 45.6458 48.6757 45.6732 48.6879 45.6508C48.7506 45.4938 48.5698 46.022 48.1496 46.3031C47.7433 46.5783 47.4631 46.5875 47.2903 46.6079C47.1405 46.6136 46.911 46.6423 46.5796 46.6385C46.4105 46.634 46.2105 46.6264 45.9303 46.5543C45.6618 46.4849 45.2414 46.3109 44.9252 45.9186C44.6168 45.5998 44.4927 44.8583 44.6531 44.4811C44.7892 44.0878 44.9651 43.924 45.092 43.7986C45.384 43.5393 45.6197 43.4036 45.8091 43.2869C46.2159 43.0437 46.4828 42.9612 46.8727 42.8796C47.2446 42.8276 47.7619 42.7211 48.4736 43.1438C48.5699 43.2095 48.6809 43.286 48.8224 43.4141C48.9576 43.5477 49.161 43.7166 49.3244 44.1557C49.3615 44.2662 49.4436 44.5308 49.3987 44.8639C49.3567 45.1981 49.1891 45.4758 49.0594 45.6256C49.0392 45.6415 48.9937 45.6977 48.902 45.8112C48.8021 45.919 48.6846 46.1229 48.2648 46.3571C47.7951 46.5742 47.4661 46.6785 47.0115 46.7869C46.782 46.834 46.5554 46.8866 46.1694 46.8718C45.9742 46.8531 45.7064 46.8498 45.3123 46.5963C44.8867 46.3434 44.6592 45.6971 44.6893 45.4019C44.7078 44.9316 44.8336 44.7868 44.8948 44.6553C44.9646 44.533 45.0188 44.4603 45.061 44.4021C45.3304 44.0084 45.8589 43.5359 46.4341 43.3831C46.6579 43.3188 46.883 43.2645 47.0229 43.2255C47.0911 43.207 47.1313 43.1901 47.1096 43.1994C47.0908 43.2059 47.0018 43.2624 46.953 43.3194C46.9558 43.316 46.9584 43.3127 46.9609 43.3094C47.0159 43.235 47.023 43.1916 47.0224 43.1422C47.0502 42.9037 46.9976 42.5777 47.2438 41.9746C47.3439 41.7433 47.4431 41.4482 47.5989 41.0727C47.6245 41.016 47.6254 40.8597 47.6136 40.8699C47.5324 40.5334 47.4302 40.2582 47.5131 40.4448C47.2934 40.0986 47.2454 40.0519 47.219 40.035C46.7458 39.6572 46.4653 39.3404 46.3325 39.2607C45.4616 38.6202 44.9811 38.1313 44.3318 37.6086C44.0366 37.3635 43.9154 37.2091 43.7964 37.0976C43.5881 36.899 43.5498 36.897 43.4906 36.8858C42.7473 36.8523 41.8918 36.9072 41.4409 37.1114C41.3733 37.1413 41.326 37.1707 41.3234 37.1754C41.3175 37.1859 41.3705 37.1323 41.3468 37.1633C41.1826 37.397 41.0283 37.6342 40.9321 37.8252C40.7871 38.1022 40.7006 38.2775 40.647 38.4451C40.6498 38.4352 40.6097 38.6458 40.5991 38.803C40.5845 38.9729 40.5778 39.1545 40.5783 39.3351C40.5766 39.8609 40.5384 40.3373 40.5024 40.7959C40.4844 41.0229 40.4654 41.2469 40.454 41.4431C40.4483 41.5383 40.4456 41.635 40.4463 41.6697C40.4396 41.6707 40.4696 41.7207 40.4009 41.4926C40.3701 41.4238 40.36 41.3341 40.1702 41.114C40.0693 41.0069 39.9302 40.8853 39.6866 40.8001C39.4509 40.7174 39.1997 40.7305 39.0511 40.7669C38.7064 40.8623 38.662 40.9418 38.5769 41.0014C38.5208 41.0495 38.4939 41.0802 38.4728 41.1047C38.2567 41.3838 38.2903 41.4064 38.256 41.4721C38.2381 41.5213 38.23 41.5512 38.2234 41.5758C38.2114 41.6224 38.2069 41.6486 38.2031 41.6709C38.196 41.7145 38.1939 41.7398 38.1922 41.7643C38.1893 41.8116 38.1898 41.8483 38.193 41.8906C38.2015 41.9742 38.2119 42.0762 38.2927 42.2458C38.2214 42.0793 38.0691 41.8436 37.9232 41.4294C37.8598 41.254 37.7649 40.8878 37.7459 40.6474C37.7192 40.3919 37.7179 40.1733 37.7221 39.9625C37.7222 39.9581 37.7223 39.9537 37.7224 39.9492C37.7598 39.1185 37.7372 38.4761 37.9213 37.2692C38.0527 36.7996 38.1815 36.2786 38.5096 35.6935C38.6809 35.406 38.9144 35.0305 39.3166 34.7275C39.3318 34.7366 39.7023 34.3583 40.0621 34.2233C40.4306 34.0677 40.7783 34.039 41.0786 34.043C41.9902 34.0645 42.9572 34.1789 43.7889 34.4598C44.397 34.6645 44.8535 34.8917 45.3334 35.1518C45.5929 35.3068 45.9751 35.4563 46.3067 35.7525C46.7312 36.1719 46.935 36.4238 47.2209 36.6721C47.3389 36.7785 47.454 36.8768 47.5677 36.9707C47.8463 37.2154 48.2897 37.4115 48.542 37.8643C48.8166 38.3666 49.1152 38.8024 49.3667 39.2892C49.6067 39.9428 49.585 40.4214 49.5821 41.1427C49.5684 41.4146 49.5803 41.7214 49.5092 42.1098C49.5057 42.1276 49.5019 42.1457 49.4978 42.1639C49.4224 42.5179 49.3642 42.973 49.1916 43.4482C49.1077 43.6661 49.0722 43.999 48.9137 44.3594C48.788 44.6924 48.4589 45.3637 47.9015 45.498C47.3469 45.6737 46.7754 45.8019 46.2182 45.8057C45.7611 45.8034 45.6003 45.6897 45.6545 45.6342C45.7104 45.5714 45.959 45.5343 46.3592 45.4192C46.8437 45.2796 47.2857 45.1069 47.6782 44.9358C48.0519 44.7739 48.1035 44.4614 48.1896 44.0566C48.1965 44.0006 48.1972 43.9437 48.193 43.8866C48.1765 43.6527 48.1345 43.4019 48.1815 43.0845C48.1892 42.695 48.1569 42.3709 48.2691 41.8427C48.2965 41.7049 48.3283 41.4419 48.3915 41.0544C48.4191 40.9171 48.4465 40.755 48.4718 40.5775C48.4993 40.3839 48.5044 40.2008 48.4918 40.0441C48.486 39.9007 48.4255 39.7143 48.4388 39.7804C48.1311 39.2963 47.7285 39.0217 47.3675 38.5732C47.3574 38.6147 47.344 38.6024 47.208 38.4986C47.0785 38.3987 46.9183 38.2774 46.7467 38.1188C46.605 37.9802 46.4552 37.8293 46.2378 37.6164C46.036 37.4254 45.6835 37.0463 45.4395 36.8137C45.3445 36.7204 45.1299 36.6292 44.6969 36.4295C44.3612 36.2728 43.8567 36.0713 43.3873 35.9631C43.1165 35.9026 42.8506 35.8592 42.5486 35.8368C42.0656 35.801 41.5829 35.816 41.1167 35.8486C40.9616 35.8624 40.8674 35.9014 40.8434 35.926C40.8013 35.9622 40.8708 35.9226 40.5249 36.2427C40.4797 36.2925 40.3948 36.4224 40.2931 36.6429C40.1795 36.8993 40.0907 37.317 40.0187 37.7289C40.0352 37.655 40.0189 37.8168 40.0201 37.8977C40.0184 37.9945 40.0182 38.0971 40.0187 38.1989C40.02 38.4021 40.0243 38.6043 40.0299 38.7992C40.0413 39.1901 40.0578 39.5561 40.076 39.8977C40.0859 40.0716 40.1023 40.2265 40.1236 40.3336C40.1495 40.4542 40.1505 40.443 40.2155 40.6097C40.2369 40.6574 40.326 40.8113 40.4415 41.0159C40.4651 41.0584 40.4901 41.1049 40.5162 41.1557C40.6263 41.3847 40.6519 41.5547 40.6659 41.7056C40.6718 41.7816 40.6727 41.8525 40.6676 41.9341C40.6648 41.9758 40.661 42.0187 40.6511 42.0799C40.6458 42.1117 40.6396 42.1466 40.6252 42.2032C40.6172 42.2334 40.6076 42.2688 40.5878 42.3237C40.5492 42.399 40.5877 42.4212 40.3515 42.7276C40.2733 42.8082 40.2259 42.8974 39.9331 43.0664C39.7646 43.1488 39.478 43.2919 38.9932 43.1844C38.5196 43.0581 38.3121 42.7784 38.2065 42.6247C38.0232 42.3231 38.0272 42.2147 37.9993 42.1159C37.9804 42.024 37.9735 41.9603 37.968 41.904C37.9501 41.6882 37.9568 41.5706 37.961 41.4382C37.9719 41.1864 37.994 40.9573 38.0171 40.723C38.0634 40.2579 38.1224 39.7678 38.1445 39.3124C38.1775 38.8031 38.1671 38.4217 38.4053 37.6559C38.5437 37.2841 38.738 36.9519 38.8699 36.7222C39.0737 36.362 39.2806 36.0808 39.4847 35.8071C39.6028 35.6399 39.8284 35.4129 40.0233 35.2867C40.2207 35.1537 40.3921 35.0748 40.5476 35.0088C41.4328 34.6607 42.1473 34.6349 42.8223 34.5872C43.0553 34.5746 43.3018 34.5696 43.5589 34.572C44.6557 34.5296 45.6033 35.5736 45.7949 35.7258C46.4359 36.2088 47.1913 36.8807 47.6691 37.227C48.2373 37.6213 48.5127 37.9676 48.7018 38.0996C49.1719 38.4509 49.4384 38.9475 49.5455 39.1012C49.9334 39.7633 49.8887 40.0556 49.9617 40.2325C50.139 40.9276 50.0499 41.4929 49.8214 42.0533C49.7175 42.3036 49.6043 42.6368 49.4521 42.9888C49.4996 42.8537 49.4559 43.0735 49.4536 43.3289C49.4196 43.9695 49.144 44.5191 48.861 44.8811C48.8414 44.9066 48.8217 44.9313 48.8017 44.9556C48.5662 45.2397 48.2379 45.421 48.0505 45.4992C47.8538 45.5828 47.7335 45.6171 47.6316 45.6499C47.4339 45.7109 47.3042 45.7486 47.1765 45.7874C47.2377 45.7664 47.2287 45.7047 47.1108 45.8123C47.0776 45.8459 47.0599 45.8613 47.067 45.83C47.067 45.7905 47.1339 45.7344 47.1373 45.3816C47.135 45.2459 47.0364 44.8839 46.7815 44.6802C46.536 44.4817 46.3689 44.4852 46.3072 44.4853C46.1822 44.5013 46.2625 44.5414 46.3496 44.5476C46.5315 44.5685 46.9025 44.5049 47.2231 44.3964C47.2198 44.3984 47.2167 44.4004 47.2136 44.4023Z" fill="black"/>
<path d="M29.4449 42.8744C29.2575 42.9271 29.7025 43.3271 29.5428 43.4313C29.3827 43.5363 29.1018 43.3984 29.0605 43.6042C29.0194 43.8098 28.7349 43.8716 28.8004 44.0126C28.8661 44.1534 28.5274 43.9651 28.5381 44.1165C28.5487 44.2682 28.4671 44.3076 28.3029 44.3391C28.1389 44.3699 27.8764 44.6086 27.9496 44.7921C28.0227 44.9752 27.7205 44.9631 27.6235 45.005C27.5933 45.018 27.5595 45.0226 27.5271 45.0224C27.5134 45.0223 27.4901 45.0127 27.4686 45.0005C27.4686 45.0005 27.4686 45.0004 27.4685 45.0004C27.4418 44.9852 27.4178 44.9661 27.4187 44.9567C27.423 44.9109 27.4107 44.8318 27.3505 44.712C27.2386 44.4884 27.4456 44.5896 27.4462 44.3743C27.447 44.1589 27.3188 43.9537 27.5494 43.833C27.7797 43.7132 27.3069 43.3754 27.7478 43.2741C28.1884 43.174 27.6851 42.8367 27.7762 42.5282C27.867 42.2203 28.3564 42.0574 28.4298 41.884C28.5035 41.71 28.5747 41.4588 28.7815 41.2754C28.988 41.0925 28.9891 40.7081 29.2646 40.5355C29.4387 40.427 29.6531 40.2829 29.8363 40.1708C29.9428 40.1047 30.0398 40.0477 30.1134 40.0132C30.3171 39.915 30.364 39.8912 30.3987 39.6969C30.4182 39.5859 30.5291 39.4839 30.7259 39.4629C30.8249 39.4526 30.9101 39.5221 30.9216 39.6022C30.9384 39.7193 30.8556 39.7555 30.9466 39.8672C31.1278 40.0915 31.1958 40.18 30.999 40.1955C30.8017 40.2117 31.0787 40.4488 31.0064 40.486C30.94 40.519 30.7783 40.4218 30.7194 40.7232C30.7157 40.7435 30.7123 40.7658 30.7093 40.7907C30.6631 41.1735 30.5982 41.3567 30.5617 41.4897C30.5252 41.6227 30.224 41.758 30.1679 41.9757C30.1118 42.1931 29.832 42.5323 29.8339 42.739C29.8354 42.9461 29.6324 42.8219 29.4449 42.8744Z" fill="black"/>
<path d="M33.6694 49.1349C33.4922 49.1674 33.9398 49.5603 33.7908 49.6418C33.6418 49.7233 33.3657 49.5767 33.3352 49.7578C33.3047 49.9388 33.0339 49.9696 33.1025 50.1015C33.171 50.2335 32.8384 50.0348 32.8544 50.1714C32.8705 50.3079 32.7931 50.3362 32.6366 50.349C32.4801 50.3617 32.2362 50.549 32.3117 50.7199C32.3873 50.8908 32.0964 50.8497 32.0043 50.8769C31.9756 50.8854 31.9432 50.8859 31.9121 50.8824C31.899 50.8809 31.8763 50.8699 31.8554 50.8568C31.8553 50.8568 31.8553 50.8568 31.8553 50.8567C31.8292 50.8404 31.8057 50.8209 31.8064 50.8126C31.8093 50.7723 31.7954 50.7007 31.7342 50.588C31.6201 50.378 31.8218 50.4891 31.8153 50.2978C31.8088 50.1066 31.6782 49.9123 31.8944 49.8274C32.1106 49.7424 31.6429 49.3992 32.0607 49.3496C32.4784 49.3 31.9802 48.9556 32.0513 48.6903C32.1224 48.4249 32.5812 48.3209 32.6418 48.1719C32.7023 48.023 32.7553 47.8054 32.9421 47.6574C33.1288 47.5095 33.1049 47.1676 33.3571 47.0331C33.6093 46.8986 33.9476 46.6971 34.1357 46.6238C34.3237 46.5506 34.3677 46.5316 34.3878 46.3605C34.3994 46.2621 34.4987 46.1787 34.686 46.173C34.7802 46.1701 34.8665 46.238 34.8827 46.3105C34.9066 46.4164 34.8297 46.4431 34.9242 46.5491C35.1132 46.761 35.1839 46.8451 34.9962 46.846C34.8085 46.8469 35.0891 47.0782 35.0229 47.1058C34.9567 47.1333 34.7769 47.0197 34.7582 47.3587C34.7394 47.6977 34.6884 47.858 34.662 47.9743C34.6356 48.0907 34.3545 48.1921 34.3136 48.383C34.2728 48.5739 34.0232 48.8578 34.0359 49.0431C34.0486 49.2284 33.8466 49.1024 33.6694 49.1349Z" fill="black"/>
<path d="M38.2133 53.6286C38.0297 53.6713 38.4722 54.0722 38.3154 54.1662C38.1586 54.2601 37.8814 54.1155 37.842 54.3107C37.8025 54.506 37.5228 54.5511 37.5874 54.6894C37.652 54.8277 37.3189 54.6297 37.3293 54.7753C37.3397 54.9208 37.259 54.9546 37.0975 54.9752C36.9361 54.9959 36.677 55.2074 36.747 55.3871C36.8171 55.5668 36.5198 55.5358 36.424 55.569C36.3941 55.5794 36.3608 55.5814 36.329 55.579C36.3155 55.578 36.2928 55.5672 36.2718 55.5541C36.2718 55.5541 36.2718 55.554 36.2718 55.554C36.2457 55.5377 36.2224 55.5178 36.2234 55.5089C36.2282 55.4656 36.2171 55.3895 36.1592 55.2716C36.0513 55.0517 36.2538 55.1617 36.2556 54.9571C36.2575 54.7525 36.1318 54.5502 36.3579 54.4495C36.5839 54.3489 36.1184 54.0021 36.5501 53.9303C36.9817 53.8586 36.4849 53.5118 36.5698 53.2244C36.6547 52.937 37.131 52.805 37.1999 52.6428C37.2687 52.4806 37.3329 52.245 37.5315 52.0782C37.73 51.9114 37.7207 51.5463 37.9859 51.3909C38.2511 51.2356 38.6079 51.0046 38.8045 50.9177C39.001 50.8309 39.0471 50.8086 39.0754 50.6243C39.0917 50.5184 39.1975 50.4247 39.3903 50.4102C39.4873 50.4029 39.5729 50.4719 39.5864 50.5487C39.6061 50.6611 39.5259 50.6931 39.6184 50.8025C39.8032 51.0211 39.8721 51.1081 39.6791 51.1174C39.4862 51.1267 39.7643 51.362 39.695 51.3945C39.6257 51.4269 39.446 51.3133 39.4116 51.6772C39.3772 52.0412 39.3176 52.2152 39.2853 52.341C39.253 52.4668 38.9595 52.588 38.909 52.7943C38.8585 53.0007 38.5892 53.3159 38.594 53.5139C38.5988 53.7119 38.3968 53.5859 38.2133 53.6286Z" fill="black"/>
<path d="M22.8474 12.9767C21.4115 13.9762 20.2197 15.1872 19.0376 16.4802C17.4379 18.2565 16.4198 20.3868 14.7265 22.835C13.7648 24.2843 12.8958 25.5564 12.1474 26.9196C12.0099 27.1673 11.8494 27.4799 11.6202 27.8817C10.9761 28.8523 10.1854 30.7778 9.42216 32.0823C8.00946 34.6292 7.09422 35.658 7.05801 41.1045C7.04348 41.381 7.05122 41.7364 7.08365 42.1287C7.38082 45.2837 8.19815 48.9275 8.94994 52.0949C9.32485 53.7255 9.96795 54.9186 10.9324 56.3751C12.1471 58.255 12.9815 59.6484 13.768 60.2638C13.8204 60.3109 13.8714 60.3557 13.9225 60.3996C15.627 61.8534 16.0095 62.8801 16.8762 64.2472C17.4934 65.2179 18.3631 66.3361 20.2507 67.7059C20.8532 68.1429 21.4268 68.5596 21.9752 68.9662C22.8874 69.621 23.6423 69.9352 24.7272 70.2849C24.5342 70.2341 24.5824 70.2602 24.6286 70.2635C24.6839 70.2713 24.7749 70.2787 24.8755 70.2839C25.0793 70.2947 25.323 70.2992 25.5736 70.3029C26.078 70.3099 26.6191 70.3148 27.174 70.3354C28.2417 70.2218 29.6953 71.2325 29.9928 72.0343C30.3893 72.8367 30.4223 73.4128 30.4554 73.9529C30.4875 75.0144 30.3234 75.9039 30.113 76.8182C29.8456 77.8703 29.5992 79.0627 28.8388 80.8808C28.9174 80.6456 28.8535 80.7879 28.8462 80.845C28.8285 80.9228 28.8117 81.0252 28.797 81.1315C28.7675 81.3454 28.7446 81.5855 28.726 81.8311C28.7074 82.0773 28.6931 82.3323 28.6827 82.591C28.6776 82.7199 28.6735 82.849 28.6708 82.9766C28.6695 83.0424 28.6685 83.103 28.6681 83.1619C28.6677 83.1886 28.6679 83.2187 28.6675 83.2348C28.6671 83.2414 28.6677 83.2529 28.6642 83.2279C28.6459 83.1798 28.7159 83.3195 28.5728 82.8981C28.5506 82.8513 28.5645 82.8662 28.4875 82.7336C28.4226 82.6365 28.3345 82.4814 28.055 82.3061C27.7933 82.1188 27.1979 82.0571 26.8584 82.2442C26.5126 82.4148 26.3971 82.6052 26.3205 82.7155C26.2478 82.8315 26.2208 82.904 26.1995 82.9596C26.1564 83.0845 26.1646 83.0738 26.1597 83.0888C26.1483 83.1349 26.1435 83.163 26.1399 83.1851C26.1331 83.2281 26.1318 83.2465 26.1306 83.2594C26.3197 81.837 26.251 80.1797 26.5592 78.2114C26.863 76.8477 27.0996 75.6132 26.964 74.4624C26.9617 74.4429 26.9601 74.4288 26.9584 74.4135C26.9573 74.4047 26.9565 74.3978 26.956 74.3932C26.9558 74.3915 26.9553 74.3872 26.9554 74.3884C26.9555 74.3888 26.9557 74.3901 26.9561 74.393C26.9606 74.4091 26.9423 74.3491 26.9829 74.5191C26.993 74.5512 26.9989 74.5866 27.0493 74.6947C27.0795 74.7509 27.1087 74.8282 27.2456 74.9734C27.3167 75.0441 27.423 75.14 27.6136 75.2162C27.799 75.294 28.0899 75.3174 28.3221 75.2364C28.7984 75.0593 28.8901 74.776 28.9366 74.7075C28.987 74.6048 29.0021 74.545 29.0148 74.4989C29.037 74.4093 29.0391 74.3721 29.0428 74.3411C29.0514 74.2351 29.0471 74.2338 29.0477 74.2152C29.0469 74.1883 29.047 74.1953 29.0468 74.192C29.0467 74.1893 29.0467 74.1906 29.0469 74.1935C29.0472 74.1991 29.0475 74.2048 29.0481 74.2134C29.0491 74.2306 29.05 74.2445 29.0512 74.264C29.0555 74.3336 29.0594 74.4007 29.0632 74.4719C29.0706 74.6108 29.0767 74.7504 29.0813 74.8891C29.0907 75.1675 29.0947 75.4434 29.0925 75.7198C29.0874 76.2727 29.061 76.8235 28.9837 77.3861C28.8481 78.3978 28.6856 79.3747 28.5564 80.2455C28.3192 81.5377 28.105 82.51 27.9703 83.3851C28.0831 82.9797 27.9377 82.7711 27.9235 82.7109C27.9113 82.6825 27.9022 82.6616 27.8856 82.6372C27.7894 82.5193 27.8872 82.5625 28.0772 82.543C28.2654 82.5315 28.519 82.4969 28.7818 82.4412C29.3101 82.3298 29.8954 82.1428 30.3945 81.9205C31.3063 81.5102 32.2704 80.9054 33.2218 80.2792C34.3113 79.5908 35.318 78.3838 36.582 77.4149C37.4509 76.8019 38.2371 76.1441 38.9405 75.5822C39.2292 75.3508 39.5118 75.1417 39.7915 74.9606L39.7673 74.981C40.0254 74.7922 40.284 74.6064 40.5577 74.4602C40.9071 74.2805 41.1818 74.1911 41.4435 74.0858C41.7269 73.9761 41.9039 73.9971 41.9637 74.091C41.9638 74.0911 41.9638 74.0912 41.9639 74.0912C42.0363 74.2089 41.9267 74.4402 41.5992 74.658C41.3997 74.7924 41.173 74.9321 40.9887 75.0782C40.7932 75.2343 40.5963 75.4362 40.3813 75.6606C40.3774 75.6639 40.3658 75.6741 40.3617 75.6772C39.5493 76.4276 38.7497 77.501 37.7262 78.6813C37.3152 79.1817 36.9106 79.863 36.4521 80.582C36.0045 81.2832 35.5404 81.9177 34.9592 82.4624C33.9008 83.4769 32.913 84.1976 31.7421 84.7353C31.0207 85.0582 30.3072 85.2647 29.4727 85.3944C29.0538 85.4556 28.6069 85.4984 28.077 85.4719C27.5526 85.4212 26.8966 85.4153 26.0798 84.7713C25.6953 84.4072 25.1268 83.8434 25.357 82.6997C25.5797 81.8479 25.8582 80.7791 26.0281 79.7721C26.0871 79.3593 26.1471 78.9281 26.2003 78.484C26.2615 77.9741 26.3084 77.4826 26.3482 76.9903C26.3753 76.5647 26.3624 76.0995 26.3273 75.6397C26.3096 75.4099 26.2862 75.1789 26.258 74.9518C26.2439 74.8375 26.2287 74.7246 26.2123 74.6123C26.204 74.5549 26.1956 74.5002 26.1866 74.4413C26.1843 74.4252 26.1822 74.4128 26.1796 74.3924C26.1784 74.383 26.1772 74.3749 26.1754 74.3533C26.1742 74.3283 26.1745 74.3805 26.1711 74.2575C26.1763 74.2013 26.1508 74.2365 26.2037 73.8915C26.2387 73.7784 26.2075 73.6648 26.4841 73.2136C26.5787 73.0766 26.7206 72.8932 26.9921 72.7118C27.2557 72.5307 27.6897 72.3842 28.1004 72.4138C28.9593 72.4949 29.2679 72.9284 29.4197 73.0937C29.6998 73.4736 29.6837 73.5612 29.7257 73.6523C29.7528 73.7335 29.7623 73.7743 29.7706 73.8074C29.8148 74.0106 29.8001 73.9645 29.8048 73.9835C29.8206 74.0822 29.8215 74.0754 29.8293 74.118C30.1552 75.8809 29.9233 77.5307 29.7833 78.8151C29.749 79.9169 29.9344 81.6111 29.8594 83.6126C29.8558 83.6513 29.8514 83.6968 29.8398 83.7736C29.8337 83.8126 29.8259 83.8596 29.8113 83.9269C29.8019 83.9682 29.8016 83.9752 29.7756 84.0702C29.729 84.2037 29.7145 84.3677 29.4315 84.8035C29.2767 85.0151 29.0348 85.357 28.4236 85.6489C27.8288 85.9615 26.8135 85.9163 26.2823 85.6053C25.7269 85.3116 25.5136 85.0053 25.3693 84.8097C25.3043 84.7179 25.2342 84.5926 25.2284 84.5808C25.2168 84.5595 25.2061 84.5391 25.1963 84.5197C25.1569 84.4422 25.1295 84.3789 25.1075 84.3244C25.0641 84.2161 25.0413 84.1417 25.0237 84.0812C24.9899 83.962 24.9778 83.8964 24.9674 83.8428C24.9463 83.7233 24.9495 83.7329 24.9443 83.6975C24.9304 83.5902 24.9286 83.5586 24.9249 83.5212C24.9182 83.4468 24.9151 83.4058 24.9117 83.3617C24.9052 83.2732 24.9004 83.1986 24.896 83.1265C24.8873 82.9794 24.8806 82.8397 24.875 82.6984C24.8641 82.419 24.8578 82.1385 24.8571 81.8496C24.8567 81.5594 24.8609 81.2658 24.8789 80.9358C24.8883 80.7695 24.9002 80.5994 24.9246 80.3903C24.9376 80.2823 24.9531 80.1676 24.9802 80.0227C25.0181 79.8569 25.0209 79.7267 25.2021 79.285C25.5472 78.2891 26.1586 75.7617 26.1367 74.3591C26.1429 74.1681 26.082 74.0506 26.2026 74.2342C26.2652 74.3208 26.4232 74.5016 26.6698 74.6264C26.9174 74.7555 27.174 74.7814 27.307 74.7721C26.7504 74.7772 26.2065 74.8042 25.642 74.8315C25.3583 74.8448 25.072 74.8589 24.7479 74.8626C24.3978 74.8514 24.1415 74.9072 23.3686 74.7147C21.8803 74.3702 20.1859 73.7059 18.8655 72.7911C17.0024 71.5917 15.05 70.3758 12.8481 68.3312C11.6759 67.2421 10.412 65.8879 9.14541 64.2339C8.13117 62.9575 7.42345 61.5144 6.76018 60.2108C6.62897 59.9528 6.49847 59.7028 6.36768 59.4593C5.27307 57.5736 4.23611 55.3419 3.80279 53.52C2.59861 48.4622 1.05723 45.9561 0.545564 40.5914C0.272142 38.5917 -0.163157 33.7607 1.6918 29.098C1.69678 29.0839 1.70175 29.0698 1.70671 29.0558C2.25831 27.5989 2.54566 26.151 3.71011 23.7809C3.99004 23.1921 4.89312 21.3535 5.71109 20.267C6.55179 19.085 7.4274 18.0777 8.31529 17.1262C10.091 15.2495 12.1119 13.0029 14.4566 11.1637C16.8715 9.29472 18.9622 7.3051 22.1224 5.41593C23.1911 4.92657 25.0788 3.08112 27.8865 2.39674C29.9479 1.93229 31.6873 1.66933 33.1744 1.41923C35.2715 1.09498 37.3236 0.739478 40.1456 0.707938C42.7461 0.717145 46.0488 0.514651 49.9164 1.8049C53.8115 3.27601 57.355 4.41276 61.99 7.21745C63.0775 7.99003 64.1711 8.79498 65.2554 9.64324C66.9409 10.9795 68.7118 12.3322 70.5344 14.2429C71.7979 15.5841 73.6245 17.4058 74.9 19.4521C76.7259 22.4042 78.4593 24.6468 80.1038 28.9742C81.5545 33.3484 81.8186 38.6577 81.0133 43.0894C80.7605 44.604 80.429 46.1955 79.942 47.7436C79.2286 50.0489 78.1539 52.3915 76.8784 54.5782C74.9475 57.8474 72.9907 61.2576 70.4929 64.6204C68.8327 66.6179 67.7019 68.7183 64.7485 70.5841C61.1579 72.712 56.571 74.6431 53.2204 74.7591C52.2172 74.8522 51.2979 74.9218 50.4747 74.9805C47.2724 75.2057 44.9796 75.3451 42.9728 75.5691C42.4581 75.6281 41.9648 75.6929 41.4977 75.776C41.2649 75.8178 41.0374 75.8646 40.8478 75.918C40.7551 75.9437 40.6695 75.9747 40.6404 75.9882C40.6266 75.9937 40.6322 75.9937 40.6653 75.9647C40.6969 75.9404 40.7509 75.862 40.7401 75.8751C40.6996 75.9331 40.6511 76.0925 40.6025 76.366C40.3997 77.6163 39.7562 79.1176 38.5459 80.2183C37.9653 80.7553 37.4032 81.9364 36.2446 83.0119C35.8653 83.3633 35.4266 83.6873 34.9479 83.9604C34.2763 84.4028 32.9788 85.3726 31.6016 85.6792C30.2141 86.0343 28.7758 85.9881 27.4229 85.7532C27.1862 85.7154 26.8872 85.6343 26.5939 85.4041C26.2979 85.1779 26.1025 84.8078 26.0454 84.518C25.9372 83.9246 26.0625 83.5781 26.2029 83.2124C26.9068 81.4428 27.2283 79.0534 27.5357 77.0177C27.7947 74.3049 28.3882 74.804 28.6026 77.6837C28.6935 79.9952 28.5886 81.9771 28.0193 83.9147C27.9862 84.0082 28.0144 84.1628 28.0117 84.0344C28.0084 83.9744 27.9351 83.8291 27.8417 83.7568C27.7502 83.682 27.6991 83.6716 27.7023 83.6607C28.4385 83.6882 29.0761 83.6032 29.5733 83.4048C30.4511 83.0568 31.0092 82.6311 31.438 82.2163C31.9188 81.7812 32.0379 81.4333 33.1503 80.6611C33.494 80.3801 33.7599 80.139 34.1332 79.754C34.5411 79.3753 34.8936 78.7456 36.2079 77.6252C36.4026 77.5031 36.5875 77.3757 36.7609 77.2361C37.2097 76.8735 37.4249 76.4391 37.5412 75.7928C37.5956 75.5253 37.6583 74.9659 38.0157 74.3083C38.1041 74.1241 38.4285 73.6989 38.6864 73.5052C38.9498 73.2925 39.1484 73.1895 39.3067 73.1079C39.6221 72.9523 39.8182 72.8843 40.0072 72.8141C40.3726 72.6827 40.6568 72.5922 40.9319 72.5012C41.4796 72.3224 41.9533 72.1632 42.4168 72.0056C43.9347 71.4903 45.1935 71.0199 46.6346 70.9153C48.4386 70.7826 49.2371 71.0769 52.6135 70.7319C54.8538 70.4795 57.3385 69.9682 62.2792 66.4097C62.4122 66.3133 62.5426 66.1997 62.6995 66.0407C63.7404 64.9549 64.9408 63.03 65.9547 61.4514C68.068 57.9581 69.6922 54.433 71.0942 51.5541C72.9538 47.6884 73.4269 44.8428 73.7392 42.0464C73.7814 41.6677 73.8152 41.307 73.8422 40.9575C74.0365 38.4384 74.2823 35.0716 73.1538 30.9606C72.6173 29.1539 70.7075 25.7242 69.1051 23.1328C68.1723 21.5785 67.0288 20.4536 65.5269 18.9368C65.4422 18.8525 65.3531 18.7665 65.2632 18.6822C63.6649 17.1767 60.9474 15.2025 57.9261 13.1678C55.4726 11.7299 51.021 9.98683 47.4092 8.67289C45.4216 7.98682 42.7008 7.95591 39.9591 7.99236C38.0704 8.02975 35.8042 8.40616 34.3178 8.72811C32.2971 9.17091 30.8585 9.49238 29.7713 9.7085C29.1787 9.70859 28.0741 10.2692 25.7059 11.4086C25.0627 11.5909 24.0683 12.1281 22.8474 12.9767Z" fill="black"/>
</svg>
