<svg width="76" height="65" viewBox="0 0 76 65" fill="none" xmlns="http://www.w3.org/2000/svg">
<path d="M38.0324 8.08936C38.1942 9.89738 38.7757 16.4614 39 27.2227C39.0842 31.2615 38.8232 35.1199 42.3291 35.2006C59.5349 35.5967 61.5055 36.0693 64.9547 36.4657C69.2067 36.9544 65.6277 47.4534 64.8881 49.5161C64.1284 51.6347 62.6692 53.3115 61.0296 55.1345C59.504 56.8308 56.7619 57.5841 54.6194 58.619C52.6119 59.5887 50.6772 60.2806 48.2931 60.836C46.2778 61.3055 36.1309 61.3914 29.8021 60.8407C26.5135 60.5546 24.0501 58.8659 19.6197 54.8401C19.3792 54.6216 19.1434 54.4111 18.9123 54.207C18.4783 54.0666 18.0533 53.921 17.6227 53.7127C16.639 53.1597 15.648 52.5236 14.6644 51.8922L14.6641 51.8921C12.269 49.9883 8.29279 45.7189 6.7603 42.1318C5.27469 40.5112 4.91772 37.9627 3.90976 34.9775C3.02557 32.3588 3.00493 29.7554 3 24.1465C2.9975 21.2955 5.78598 19.938 7.76081 18.6705C8.48783 18.2039 9.28548 17.7555 10.1344 17.2793C10.7674 16.2319 11.5759 15.2373 12.7065 14.4668C14.6814 13.1209 16.4756 11.202 19.0354 10.1966L19.0418 10.194C21.2671 9.31998 25.3337 7.72266 37 7.72266C37.5097 7.72266 37.8288 7.75722 38.0074 7.80841C38.2742 7.88489 38.2271 7.99848 38.0324 8.08936Z" fill="#D9D9D9"/>
<path d="M0.535464 27.6004C0.625835 26.3947 0.618101 25.2648 0.539027 24.1487C0.355585 19.6247 4.252 17.1774 5.83385 15.6682C7.72986 14.1093 9.54774 13.011 11.4709 11.872C12.0314 11.5427 12.5291 11.2401 12.9874 10.9534C18.0636 7.90238 20.5531 8.52751 25.1517 7.20655C26.1221 6.92678 27.2287 6.62986 28.5273 6.38276C30.3655 6.0096 32.3781 6.04059 33.5668 5.91695C34.8561 5.78031 36.0375 5.68258 37.2123 5.5861C37.177 5.60028 37.2069 5.57822 36.9753 5.67298C36.9108 5.70331 36.8229 5.73796 36.635 5.86431C36.5397 5.93195 36.412 6.01963 36.2193 6.22816C36.0431 6.44278 35.6938 6.79577 35.5772 7.66661C35.4547 8.54332 35.9657 9.41754 36.2371 9.66994C36.3976 9.84167 36.5137 9.93005 36.6164 10.0045C36.7234 10.0805 36.8029 10.1259 36.8675 10.1608C37.1374 10.2998 37.2201 10.3096 37.2965 10.3332C37.5243 10.3828 37.4068 10.3439 37.3357 10.339C37.2484 10.3282 37.1286 10.3199 37 10.3147C32.9491 10.1763 29.5347 10.2767 27.6252 10.7983C24.43 11.7578 23.6856 10.32 19.7215 11.9432C19.5332 12.026 19.3398 12.1241 19.1409 12.2406C17.2371 13.3671 15.8362 14.8996 13.8606 16.1601C12.6197 16.9133 11.5973 18.0972 10.4974 19.9838C10.3784 20.185 10.2498 20.4141 10.1101 20.6707C9.29971 22.1423 8.23682 24.3951 6.94398 26.8808C5.49538 30.652 6.52364 36.741 7.25499 40.1524C7.40791 40.7728 7.68916 41.345 7.96369 41.7914C10.035 45.0254 12.7561 48.8849 15.1143 51.3257L15.0549 51.2832C15.6316 51.7493 16.1655 52.1726 16.6586 52.5276C17.0895 52.8382 17.4734 53.1179 17.8165 53.3678L17.795 53.3566C18.1511 53.5866 18.4919 53.7659 18.7915 53.9267C19.04 54.059 19.1343 54.1933 19.1038 54.2876C19.1038 54.2877 19.1038 54.2878 19.1038 54.2878C19.0658 54.4043 18.8389 54.4615 18.4862 54.3587C18.1781 54.2677 17.8381 54.1603 17.4783 54.0112C17.4746 54.0093 17.4637 54.0038 17.4602 54.0017C16.559 53.5654 15.5072 53.0117 14.3255 52.4197C14.315 52.4125 14.2837 52.3911 14.274 52.3829C13.4664 51.8656 12.6403 51.2736 11.7741 50.6222C7.7877 47.2195 7.01332 46.3617 4.98327 40.541C4.83562 39.7817 4.66892 38.937 4.48431 37.9808C3.80986 33.511 2.57559 30.4814 4.03445 25.4865C4.82154 23.6059 5.62249 21.5684 6.7273 19.2012C7.1548 18.2929 7.65686 17.2399 8.39504 16.1566C9.317 14.7958 10.4069 13.6458 11.5835 12.8188C13.6061 11.3436 15.082 9.19272 18.0637 7.72267C21.0306 6.15486 25.2217 5.06028 31.3278 5.34572C33.5332 5.44423 35.3628 5.53528 37 5.57364C37.2159 5.5783 37.4336 5.58597 37.6787 5.6053C37.9406 5.63468 38.1411 5.62314 38.7046 5.79133C38.8666 5.85402 39.0371 5.88151 39.4502 6.18018C39.6335 6.33 39.9945 6.60735 40.2197 7.26582C40.4704 7.97206 40.2164 8.7789 40.0036 9.08721C39.5544 9.74582 39.3361 9.77525 39.1594 9.90468C38.9843 10.0055 38.8635 10.0561 38.7505 10.1012C38.3227 10.2628 38.0448 10.3077 37.7319 10.3484C36.4244 10.5114 35.2272 10.7126 34.1768 10.9419C30.9997 11.4401 29.4343 11.816 26.9106 12.9836C24.7437 13.904 22.4693 14.6006 20.089 15.7593C19.2231 16.1864 18.4258 16.6591 17.7437 17.1852C15.1403 19.225 11.9837 20.6863 9.84877 21.9236C8.57838 22.6766 7.64269 23.1805 7.12491 23.6043C6.86759 23.8074 6.7451 23.9484 6.69334 23.9972C6.64319 24.0502 6.61635 24.0286 6.58584 24.1433C6.44004 28.1172 6.17208 31.7493 6.88134 33.9741C7.58301 36.3194 7.97575 38.2469 8.46993 39.2104C8.69577 39.6756 8.91944 39.9701 9.13429 40.1496C11.2097 42.0083 14.1094 44.272 16.5154 47.42C17.684 48.967 19.6608 50.4564 21.8149 52.4243C23.93 54.3454 26.1466 56.3784 28.1103 57.2669C28.7269 57.5457 29.3432 57.7161 30.0674 57.7918C35.4053 58.2788 42.5211 58.2795 47.5629 57.7018C49.5642 57.2151 51.3884 56.5711 53.2092 55.6995C55.8252 54.5241 58.0351 53.8007 58.7338 53.0696C59.0043 52.792 59.2681 52.5225 59.523 52.259C60.7097 51.0348 61.7322 49.851 62.2761 48.5795C63.0964 46.5815 63.8613 44.3807 64.3309 42.2599C64.5611 41.2106 64.7114 40.1363 64.6742 39.3216C64.6623 38.9224 64.5726 38.6099 64.5652 38.565C64.5386 38.5306 64.8147 38.6499 64.7117 38.5795C58.0278 37.3495 51.7277 37.0088 47.7314 36.6072C45.5585 36.41 43.8381 36.2635 42.3072 36.1525C41.3107 36.107 40.203 35.6931 39.5516 34.9003C38.896 34.1227 38.6606 33.2621 38.4979 32.4577C38.198 30.8332 38.2204 29.2194 38.1143 27.2411C38.0764 26.5158 38.0308 25.7482 37.9756 24.9091C37.692 20.5392 37.5932 14.5276 37.789 9.40037C37.8783 6.82265 38.3703 7.3495 38.7937 9.92283C39.3967 13.6765 39.3425 16.8033 39.9762 18.7286C41.044 22.0061 41.5396 23.7004 41.3406 27.1739C41.305 27.8074 41.2374 28.4785 41.157 29.1977C40.9524 30.8706 41.1649 32.2118 41.5645 32.6895C41.7586 32.9279 41.8825 32.8677 41.9482 32.8009C42.0194 32.7327 42.153 32.6771 42.3889 32.6013C43.2232 32.4911 43.969 32.425 44.8064 32.4939C47.6994 32.8251 47.4785 33.2739 62.3448 33.7327C63.3727 33.7992 64.346 33.8877 65.2438 33.9501C66.7392 33.9827 68.468 35.3467 68.9525 36.535C69.5206 37.7064 69.6216 38.6596 69.695 39.5128C69.802 41.2069 69.624 42.5888 69.4273 43.8838C69.0073 46.456 68.405 48.6039 67.7816 50.5536C66.6 53.9259 64.7014 55.7975 63.4647 57.3246C61.8104 59.1428 60.2496 59.7839 59.054 60.3881C58.1031 60.8424 57.0151 61.2541 56.0966 61.6769C54.1471 62.605 51.6377 63.4651 49.0268 63.9853C42.6935 64.6283 37.4998 64.1415 32.1758 64.0842C31.3674 64.0624 30.4838 64.0244 29.5308 63.958C24.6582 63.7265 20.6345 60.0557 17.452 57.2258C15.6459 55.5595 13.2856 53.8759 11.3418 51.3434C9.36196 48.7406 6.87539 46.8045 4.70613 44.9184C3.60036 43.9295 2.95657 42.8443 2.52273 42.0161C0.983069 38.6962 0.906531 37.359 0.561817 36.1079C-0.138532 33.192 0.275373 31.4029 0.535464 27.6004Z" fill="black"/>
<path d="M44.5627 25.3661C44.4169 21.3349 44.2442 16.4761 44.1297 12.2783C44.5627 9.6815 43.242 4.01079 46.0091 3.47943C49.3195 2.84375 54.1463 2.86209 56.0049 3.40507C57.9264 3.96639 60.3153 3.95686 62.1627 5.80867C64.1633 7.81406 65.29 10.1371 66.5573 11.9664C68.0013 14.0509 69.7592 16.5492 70.3929 18.7646C71.1965 21.5736 74.0874 28.6463 70.7839 29.233C69.906 29.3889 62.2367 28.7027 51.56 29.3121C47.3573 29.552 46.0755 29.8624 45.5989 29.065C45.1216 28.2662 44.6331 27.3152 44.5627 25.3661Z" fill="#96C1FF"/>
<path d="M66.4185 16.2123C66.0218 15.0908 65.0549 14.4365 64.0058 13.7339C62.7705 12.812 61.6441 11.9056 61.0143 10.6732C60.4081 9.49555 60.2718 8.75624 59.9706 7.99548C59.8502 7.44775 59.6151 6.87127 58.1949 6.63996C57.4045 6.50925 56.4285 6.37154 55.2494 5.99136C53.7785 5.51797 51.2735 5.22586 50.3087 5.63723C48.8806 6.23318 48.5584 4.66013 46.5377 5.32971C46.4824 5.34966 46.4284 5.36921 46.3757 5.38837C46.3777 5.48984 46.619 5.36665 46.5765 5.41962C46.5593 5.46854 46.4595 5.67562 46.3694 5.94112C46.1815 6.48351 45.9723 7.21772 45.7349 8.13342C45.4706 8.99607 45.5298 10.5859 45.0723 12.7299C44.4318 14.8588 44.1458 17.2216 44.4149 18.4387C44.5994 19.3402 44.5365 20.3097 44.272 21.3049C44.2717 21.31 44.269 21.3253 44.2686 21.3304C44.0309 22.1366 43.723 22.6673 43.5073 23.2301C43.3205 23.7008 43.1783 24.1732 43.1017 24.5745C43.0143 25.0387 42.9067 25.4105 42.7934 25.6955C42.7455 25.8163 42.6453 25.8722 42.5464 25.8722C42.5464 25.8722 42.5463 25.8722 42.5462 25.8722C42.4231 25.8722 42.302 25.7856 42.2866 25.63C42.2307 25.0104 42.0654 24.1706 41.8757 23.064C41.8345 22.808 41.7956 22.5399 41.7559 22.2655C41.6753 21.7 41.6692 21.2665 41.6604 20.9626L41.657 20.9882C41.6243 19.6737 42.0582 18.9587 42.0548 16.1844C42.0698 14.646 42.0518 13.3564 42.1403 12.0651C42.0829 11.1649 41.7577 9.45735 42.1256 7.04128C42.306 5.98368 42.359 5.06242 42.6675 3.9791C42.9006 2.94543 43.9945 1.39558 45.532 0.994725C47.0875 0.336901 48.8866 -0.207956 52.0194 0.482383C53.8929 0.925626 55.1142 1.03504 56.6223 1.2916C58.2693 1.67779 60.5029 -0.214764 64.9027 3.07517C65.1954 3.3215 65.4884 3.59424 65.7779 3.89453C67.6207 5.78212 68.7961 8.24392 69.6584 9.81808C71.1346 12.3781 72.6402 15.1429 73.3423 17.9208C73.4352 18.3364 73.5763 18.7977 73.7167 19.1882C74.1779 20.4842 74.7784 22.0084 75.2305 23.9366C75.4419 24.9161 75.6641 25.9667 75.5679 27.4567C75.4974 28.2027 75.374 29.1404 74.6816 30.2505C74.0162 31.3905 72.4772 32.2912 71.3503 32.4222C71.0866 32.4664 70.9192 32.4726 70.8253 32.4775C70.7145 32.4825 70.6199 32.4837 70.5477 32.4837C70.3821 32.4838 70.2677 32.4799 70.1311 32.4751C69.8919 32.4655 69.6597 32.4513 69.438 32.4355C68.9947 32.4038 68.5625 32.3647 68.1387 32.3215C63.4325 31.819 57.716 32.5915 52.5729 32.2988C52.2992 32.2824 52.0173 32.2667 51.7278 32.2519C50.7923 32.2019 49.8078 32.168 48.7458 32.1331C48.2111 32.1128 47.6662 32.1006 46.9808 32.0417C46.6259 32.0052 46.2433 31.9785 45.6486 31.809C45.0942 31.6869 44.0138 31.052 43.6248 30.2448C42.8286 28.7832 42.5599 26.7898 42.6792 25.4342C42.8305 23.3627 42.9786 21.5202 43.1146 20.2379C43.4805 16.8015 43.5606 15.9661 43.1716 12.6807C42.9501 10.794 43.0425 8.17475 43.6506 5.95717C43.9603 4.84489 44.3955 5.10042 44.6114 6.20924C44.9312 7.82581 44.7586 9.17262 45.3227 9.99447C46.4526 11.6445 46.8897 12.3369 46.3181 14.4697C45.7482 16.6036 47.2235 17.554 47.0989 18.7917C46.9825 19.9596 46.2155 20.035 46.8683 25.2827C46.9056 25.5417 46.9573 25.8035 47.0285 26.0554C47.2517 26.8237 47.4674 27.1067 47.9087 27.6847C47.8005 27.4521 47.4812 27.1191 47.2372 26.9838C46.9902 26.8379 46.8736 26.8142 46.8473 26.7931C46.8001 26.7615 47.0009 26.753 47.2021 26.7228C47.6291 26.6663 48.1574 26.5844 48.6472 26.5104C49.6405 26.359 50.5578 26.2306 51.3784 26.1305C52.6255 25.9769 53.6494 25.8742 54.5252 25.7844C56.9587 25.522 62.0195 26.1995 65.9569 26.0591C66.6166 26.0324 67.3901 26.0268 68.2214 26.0337C68.641 26.0371 69.0757 26.0438 69.5056 26.049C69.713 26.0513 69.9328 26.0536 70.1284 26.0529C70.2247 26.0525 70.3134 26.0514 70.3847 26.0488C70.4166 26.0476 70.4422 26.046 70.4424 26.0453C70.4381 26.0465 70.4265 26.0386 70.2225 26.0716C70.125 26.0862 69.9356 26.1344 69.7194 26.2685C69.5055 26.3973 69.3079 26.6072 69.212 26.7605C69.0203 27.0836 69.0918 27.0758 69.0897 26.9022C69.1131 26.5395 69.0105 25.7736 68.8348 25.0651C68.4801 23.6111 67.9248 22.1886 67.4651 21.2271C67.2123 20.7004 67.028 20.2385 66.8935 19.7657C66.5576 18.7477 67.0346 18.075 66.4185 16.2123Z" fill="black"/>
</svg>
