<svg width="720" height="276" viewBox="0 0 720 276" fill="none" xmlns="http://www.w3.org/2000/svg">
<rect width="720" height="276" fill="white"/>
<rect width="680" height="160" transform="translate(20 20)" fill="#CAEEFF"/>
<path d="M304.378 43.112C304.07 43.112 303.752 43.07 303.426 42.986C303.108 42.902 302.824 42.7993 302.572 42.678C302.376 42.5847 302.208 42.482 302.068 42.37C301.928 42.2487 301.858 42.118 301.858 41.978C301.858 41.8847 301.876 41.7447 301.914 41.558C301.951 41.362 302.012 41.18 302.096 41.012C302.189 40.844 302.301 40.76 302.432 40.76C302.516 40.76 302.651 40.8067 302.838 40.9C303.034 40.9933 303.258 41.0867 303.51 41.18C303.771 41.2733 304.046 41.32 304.336 41.32C304.588 41.32 304.821 41.2593 305.036 41.138C305.26 41.0073 305.372 40.7413 305.372 40.34C305.372 40.0787 305.306 39.864 305.176 39.696C305.054 39.528 304.886 39.3787 304.672 39.248C304.466 39.1173 304.242 38.9867 304 38.856C303.57 38.6133 303.206 38.3613 302.908 38.1C302.609 37.8387 302.38 37.5353 302.222 37.19C302.063 36.8353 301.984 36.406 301.984 35.902C301.984 35.314 302.11 34.81 302.362 34.39C302.623 33.97 302.973 33.648 303.412 33.424C303.86 33.2 304.364 33.088 304.924 33.088C305.241 33.088 305.568 33.1253 305.904 33.2C306.24 33.2747 306.524 33.3867 306.758 33.536C306.842 33.592 306.93 33.662 307.024 33.746C307.117 33.83 307.164 33.9327 307.164 34.054C307.164 34.1847 307.145 34.348 307.108 34.544C307.07 34.7307 307.014 34.8987 306.94 35.048C306.865 35.1973 306.772 35.272 306.66 35.272C306.585 35.272 306.464 35.2393 306.296 35.174C306.128 35.1087 305.936 35.0433 305.722 34.978C305.507 34.9127 305.297 34.88 305.092 34.88C304.793 34.88 304.564 34.9313 304.406 35.034C304.256 35.1367 304.154 35.258 304.098 35.398C304.051 35.5287 304.028 35.6547 304.028 35.776C304.028 36.056 304.102 36.28 304.252 36.448C304.41 36.616 304.611 36.7607 304.854 36.882C305.096 37.0033 305.348 37.1387 305.61 37.288C306.02 37.5213 306.356 37.7687 306.618 38.03C306.888 38.2913 307.089 38.5947 307.22 38.94C307.36 39.276 307.43 39.6913 307.43 40.186C307.43 40.69 307.322 41.166 307.108 41.614C306.893 42.0527 306.562 42.412 306.114 42.692C305.666 42.972 305.087 43.112 304.378 43.112ZM310.565 43.112C309.631 43.112 308.922 42.7853 308.437 42.132C307.951 41.4787 307.709 40.5453 307.709 39.332C307.709 38.1093 307.947 37.176 308.423 36.532C308.908 35.888 309.622 35.566 310.565 35.566C311.517 35.566 312.231 35.888 312.707 36.532C313.192 37.176 313.435 38.1093 313.435 39.332C313.435 40.5453 313.192 41.4787 312.707 42.132C312.221 42.7853 311.507 43.112 310.565 43.112ZM310.579 41.474C310.849 41.474 311.036 41.3153 311.139 40.998C311.251 40.6807 311.307 40.1253 311.307 39.332C311.307 38.5387 311.251 37.988 311.139 37.68C311.036 37.3627 310.849 37.204 310.579 37.204C310.308 37.204 310.117 37.3627 310.005 37.68C309.893 37.988 309.837 38.5387 309.837 39.332C309.837 40.1253 309.893 40.6807 310.005 40.998C310.117 41.3153 310.308 41.474 310.579 41.474ZM315.923 43.112C314.709 43.112 314.103 42.4307 314.103 41.068V32.906C314.103 32.7567 314.168 32.6447 314.299 32.57C314.439 32.486 314.658 32.444 314.957 32.444H315.349C315.647 32.444 315.862 32.486 315.993 32.57C316.133 32.6447 316.203 32.7567 316.203 32.906V40.872C316.203 41.0773 316.226 41.2313 316.273 41.334C316.329 41.4273 316.431 41.474 316.581 41.474C316.683 41.474 316.763 41.4647 316.819 41.446C316.875 41.4273 316.935 41.418 317.001 41.418C317.085 41.418 317.155 41.4833 317.211 41.614C317.267 41.7447 317.309 41.8893 317.337 42.048C317.365 42.2067 317.379 42.328 317.379 42.412C317.379 42.552 317.304 42.678 317.155 42.79C317.015 42.8927 316.833 42.972 316.609 43.028C316.394 43.084 316.165 43.112 315.923 43.112ZM319.362 43.112C318.699 43.112 318.195 42.9113 317.85 42.51C317.505 42.1087 317.332 41.5767 317.332 40.914C317.332 40.6433 317.369 40.3587 317.444 40.06C317.519 39.7613 317.673 39.4813 317.906 39.22C318.139 38.9493 318.489 38.73 318.956 38.562C319.423 38.394 320.043 38.31 320.818 38.31V38.086C320.818 37.7873 320.748 37.568 320.608 37.428C320.477 37.2787 320.263 37.204 319.964 37.204C319.637 37.204 319.339 37.2413 319.068 37.316C318.807 37.3907 318.587 37.4653 318.41 37.54C318.233 37.6147 318.102 37.652 318.018 37.652C317.925 37.652 317.85 37.582 317.794 37.442C317.738 37.2927 317.696 37.1247 317.668 36.938C317.649 36.7513 317.64 36.602 317.64 36.49C317.64 36.35 317.761 36.21 318.004 36.07C318.247 35.93 318.559 35.8133 318.942 35.72C319.325 35.6173 319.717 35.566 320.118 35.566C320.809 35.566 321.355 35.6687 321.756 35.874C322.167 36.0793 322.461 36.364 322.638 36.728C322.825 37.092 322.918 37.512 322.918 37.988V40.578C322.918 40.9887 322.927 41.3153 322.946 41.558C322.974 41.8007 322.997 41.9967 323.016 42.146C323.044 42.286 323.058 42.4073 323.058 42.51C323.058 42.6127 322.988 42.6967 322.848 42.762C322.717 42.8273 322.559 42.8787 322.372 42.916C322.185 42.9533 322.008 42.9813 321.84 43C321.681 43.0093 321.574 43.014 321.518 43.014C321.341 43.014 321.219 42.9673 321.154 42.874C321.089 42.7713 321.028 42.58 320.972 42.3C320.869 42.4587 320.683 42.636 320.412 42.832C320.151 43.0187 319.801 43.112 319.362 43.112ZM320.104 41.614C320.431 41.614 320.669 41.46 320.818 41.152V39.514C320.305 39.514 319.941 39.6307 319.726 39.864C319.521 40.0973 319.418 40.396 319.418 40.76C319.418 41.012 319.474 41.2173 319.586 41.376C319.707 41.5347 319.88 41.614 320.104 41.614ZM324.554 43.028C324.255 43.028 324.036 42.9907 323.896 42.916C323.765 42.832 323.7 42.7153 323.7 42.566V38.114C323.7 37.7033 323.686 37.3767 323.658 37.134C323.639 36.882 323.616 36.686 323.588 36.546C323.569 36.406 323.56 36.2847 323.56 36.182C323.56 36.0793 323.625 35.9953 323.756 35.93C323.896 35.8647 324.059 35.818 324.246 35.79C324.442 35.7527 324.624 35.7293 324.792 35.72C324.969 35.7013 325.095 35.692 325.17 35.692C325.338 35.692 325.45 35.7527 325.506 35.874C325.562 35.9953 325.627 36.2473 325.702 36.63C325.907 36.3687 326.173 36.126 326.5 35.902C326.836 35.678 327.223 35.566 327.662 35.566C328.222 35.566 328.651 35.734 328.95 36.07C329.248 36.3967 329.398 36.8773 329.398 37.512V42.566C329.398 42.7153 329.328 42.832 329.188 42.916C329.057 42.9907 328.842 43.028 328.544 43.028H328.152C327.853 43.028 327.634 42.9907 327.494 42.916C327.363 42.832 327.298 42.7153 327.298 42.566V37.932C327.298 37.7173 327.251 37.554 327.158 37.442C327.064 37.33 326.896 37.274 326.654 37.274C326.504 37.274 326.35 37.316 326.192 37.4C326.033 37.484 325.902 37.5913 325.8 37.722V42.566C325.8 42.7153 325.73 42.832 325.59 42.916C325.459 42.9907 325.244 43.028 324.946 43.028H324.554ZM332.049 43.112C331.386 43.112 330.882 42.9113 330.537 42.51C330.191 42.1087 330.019 41.5767 330.019 40.914C330.019 40.6433 330.056 40.3587 330.131 40.06C330.205 39.7613 330.359 39.4813 330.593 39.22C330.826 38.9493 331.176 38.73 331.643 38.562C332.109 38.394 332.73 38.31 333.505 38.31V38.086C333.505 37.7873 333.435 37.568 333.295 37.428C333.164 37.2787 332.949 37.204 332.651 37.204C332.324 37.204 332.025 37.2413 331.755 37.316C331.493 37.3907 331.274 37.4653 331.097 37.54C330.919 37.6147 330.789 37.652 330.705 37.652C330.611 37.652 330.537 37.582 330.481 37.442C330.425 37.2927 330.383 37.1247 330.355 36.938C330.336 36.7513 330.327 36.602 330.327 36.49C330.327 36.35 330.448 36.21 330.691 36.07C330.933 35.93 331.246 35.8133 331.629 35.72C332.011 35.6173 332.403 35.566 332.805 35.566C333.495 35.566 334.041 35.6687 334.443 35.874C334.853 36.0793 335.147 36.364 335.325 36.728C335.511 37.092 335.605 37.512 335.605 37.988V40.578C335.605 40.9887 335.614 41.3153 335.633 41.558C335.661 41.8007 335.684 41.9967 335.703 42.146C335.731 42.286 335.745 42.4073 335.745 42.51C335.745 42.6127 335.675 42.6967 335.535 42.762C335.404 42.8273 335.245 42.8787 335.059 42.916C334.872 42.9533 334.695 42.9813 334.527 43C334.368 43.0093 334.261 43.014 334.205 43.014C334.027 43.014 333.906 42.9673 333.841 42.874C333.775 42.7713 333.715 42.58 333.659 42.3C333.556 42.4587 333.369 42.636 333.099 42.832C332.837 43.0187 332.487 43.112 332.049 43.112ZM332.791 41.614C333.117 41.614 333.355 41.46 333.505 41.152V39.514C332.991 39.514 332.627 39.6307 332.413 39.864C332.207 40.0973 332.105 40.396 332.105 40.76C332.105 41.012 332.161 41.2173 332.273 41.376C332.394 41.5347 332.567 41.614 332.791 41.614ZM338.972 43.028C338.412 43.028 338.132 42.874 338.132 42.566V33.634C338.132 33.326 338.412 33.172 338.972 33.172H339.392C339.738 33.172 339.976 33.2 340.106 33.256C340.246 33.312 340.349 33.4147 340.414 33.564L341.814 36.728C341.889 36.9053 341.95 37.0733 341.996 37.232C342.043 37.3907 342.085 37.5353 342.122 37.666C342.15 37.5353 342.183 37.3907 342.22 37.232C342.267 37.0733 342.332 36.9053 342.416 36.728L343.83 33.564C343.896 33.4147 343.994 33.312 344.124 33.256C344.264 33.2 344.507 33.172 344.852 33.172H345.272C345.832 33.172 346.112 33.326 346.112 33.634V42.566C346.112 42.874 345.832 43.028 345.272 43.028H344.936C344.376 43.028 344.096 42.874 344.096 42.566V38.436C344.096 38.3053 344.101 38.1747 344.11 38.044C344.12 37.9133 344.138 37.7873 344.166 37.666L344.11 37.652C344.073 37.764 344.026 37.876 343.97 37.988C343.924 38.0907 343.877 38.198 343.83 38.31L343.046 40.102C342.944 40.326 342.673 40.438 342.234 40.438H341.996C341.539 40.438 341.259 40.326 341.156 40.102L340.414 38.31C340.377 38.2073 340.335 38.1 340.288 37.988C340.242 37.876 340.195 37.764 340.148 37.652L340.092 37.666C340.111 37.7873 340.125 37.9133 340.134 38.044C340.144 38.1747 340.148 38.3053 340.148 38.436V42.566C340.148 42.874 339.868 43.028 339.308 43.028H338.972ZM348.925 43.112C348.263 43.112 347.759 42.9113 347.413 42.51C347.068 42.1087 346.895 41.5767 346.895 40.914C346.895 40.6433 346.933 40.3587 347.007 40.06C347.082 39.7613 347.236 39.4813 347.469 39.22C347.703 38.9493 348.053 38.73 348.519 38.562C348.986 38.394 349.607 38.31 350.381 38.31V38.086C350.381 37.7873 350.311 37.568 350.171 37.428C350.041 37.2787 349.826 37.204 349.527 37.204C349.201 37.204 348.902 37.2413 348.631 37.316C348.37 37.3907 348.151 37.4653 347.973 37.54C347.796 37.6147 347.665 37.652 347.581 37.652C347.488 37.652 347.413 37.582 347.357 37.442C347.301 37.2927 347.259 37.1247 347.231 36.938C347.213 36.7513 347.203 36.602 347.203 36.49C347.203 36.35 347.325 36.21 347.567 36.07C347.81 35.93 348.123 35.8133 348.505 35.72C348.888 35.6173 349.28 35.566 349.681 35.566C350.372 35.566 350.918 35.6687 351.319 35.874C351.73 36.0793 352.024 36.364 352.201 36.728C352.388 37.092 352.481 37.512 352.481 37.988V40.578C352.481 40.9887 352.491 41.3153 352.509 41.558C352.537 41.8007 352.561 41.9967 352.579 42.146C352.607 42.286 352.621 42.4073 352.621 42.51C352.621 42.6127 352.551 42.6967 352.411 42.762C352.281 42.8273 352.122 42.8787 351.935 42.916C351.749 42.9533 351.571 42.9813 351.403 43C351.245 43.0093 351.137 43.014 351.081 43.014C350.904 43.014 350.783 42.9673 350.717 42.874C350.652 42.7713 350.591 42.58 350.535 42.3C350.433 42.4587 350.246 42.636 349.975 42.832C349.714 43.0187 349.364 43.112 348.925 43.112ZM349.667 41.614C349.994 41.614 350.232 41.46 350.381 41.152V39.514C349.868 39.514 349.504 39.6307 349.289 39.864C349.084 40.0973 348.981 40.396 348.981 40.76C348.981 41.012 349.037 41.2173 349.149 41.376C349.271 41.5347 349.443 41.614 349.667 41.614ZM354.117 43.028C353.819 43.028 353.599 42.9907 353.459 42.916C353.329 42.832 353.263 42.7153 353.263 42.566V36.112C353.263 35.9627 353.329 35.8507 353.459 35.776C353.599 35.692 353.819 35.65 354.117 35.65H354.509C354.808 35.65 355.023 35.692 355.153 35.776C355.293 35.8507 355.363 35.9627 355.363 36.112V42.566C355.363 42.7153 355.293 42.832 355.153 42.916C355.023 42.9907 354.808 43.028 354.509 43.028H354.117ZM354.327 34.964C353.963 34.964 353.697 34.9267 353.529 34.852C353.371 34.7773 353.291 34.6653 353.291 34.516V33.424C353.291 33.2747 353.371 33.1627 353.529 33.088C353.697 33.0133 353.963 32.976 354.327 32.976C354.691 32.976 354.953 33.0133 355.111 33.088C355.279 33.1627 355.363 33.2747 355.363 33.424V34.516C355.363 34.6653 355.279 34.7773 355.111 34.852C354.953 34.9267 354.691 34.964 354.327 34.964ZM357.036 43.028C356.737 43.028 356.518 42.9907 356.378 42.916C356.247 42.832 356.182 42.7153 356.182 42.566V38.114C356.182 37.7033 356.168 37.3767 356.14 37.134C356.121 36.882 356.098 36.686 356.07 36.546C356.051 36.406 356.042 36.2847 356.042 36.182C356.042 36.0793 356.107 35.9953 356.238 35.93C356.378 35.8647 356.541 35.818 356.728 35.79C356.924 35.7527 357.106 35.7293 357.274 35.72C357.451 35.7013 357.577 35.692 357.652 35.692C357.82 35.692 357.932 35.7527 357.988 35.874C358.044 35.9953 358.109 36.2473 358.184 36.63C358.389 36.3687 358.655 36.126 358.982 35.902C359.318 35.678 359.705 35.566 360.144 35.566C360.704 35.566 361.133 35.734 361.432 36.07C361.73 36.3967 361.88 36.8773 361.88 37.512V42.566C361.88 42.7153 361.81 42.832 361.67 42.916C361.539 42.9907 361.324 43.028 361.026 43.028H360.634C360.335 43.028 360.116 42.9907 359.976 42.916C359.845 42.832 359.78 42.7153 359.78 42.566V37.932C359.78 37.7173 359.733 37.554 359.64 37.442C359.546 37.33 359.378 37.274 359.136 37.274C358.986 37.274 358.832 37.316 358.674 37.4C358.515 37.484 358.384 37.5913 358.282 37.722V42.566C358.282 42.7153 358.212 42.832 358.072 42.916C357.941 42.9907 357.726 43.028 357.428 43.028H357.036ZM365.399 43.112C364.503 43.112 363.803 42.7993 363.299 42.174C362.795 41.5487 362.543 40.6013 362.543 39.332C362.543 38.0907 362.781 37.1527 363.257 36.518C363.742 35.8833 364.456 35.566 365.399 35.566C365.669 35.566 365.94 35.594 366.211 35.65C366.481 35.706 366.705 35.7853 366.883 35.888C367.069 35.9813 367.163 36.0933 367.163 36.224C367.163 36.336 367.144 36.4807 367.107 36.658C367.079 36.8353 367.032 36.9987 366.967 37.148C366.901 37.288 366.822 37.358 366.729 37.358C366.607 37.358 366.467 37.3347 366.309 37.288C366.159 37.232 365.977 37.204 365.763 37.204C365.361 37.204 365.077 37.3533 364.909 37.652C364.75 37.9507 364.671 38.5107 364.671 39.332C364.671 40.1533 364.75 40.718 364.909 41.026C365.077 41.3247 365.361 41.474 365.763 41.474C365.996 41.474 366.211 41.4413 366.407 41.376C366.603 41.3107 366.761 41.278 366.883 41.278C366.976 41.278 367.046 41.348 367.093 41.488C367.149 41.628 367.186 41.7913 367.205 41.978C367.223 42.1553 367.233 42.3 367.233 42.412C367.233 42.5427 367.135 42.664 366.939 42.776C366.752 42.8787 366.519 42.958 366.239 43.014C365.959 43.0793 365.679 43.112 365.399 43.112ZM368.396 43.028C368.098 43.028 367.878 42.9907 367.738 42.916C367.608 42.832 367.542 42.7153 367.542 42.566V32.906C367.542 32.7567 367.608 32.6447 367.738 32.57C367.878 32.486 368.098 32.444 368.396 32.444H368.76C369.059 32.444 369.274 32.486 369.404 32.57C369.544 32.6447 369.614 32.7567 369.614 32.906V36.546C369.81 36.3033 370.072 36.0793 370.398 35.874C370.734 35.6687 371.103 35.566 371.504 35.566C372.064 35.566 372.494 35.734 372.792 36.07C373.091 36.3967 373.24 36.8773 373.24 37.512V42.566C373.24 42.7153 373.17 42.832 373.03 42.916C372.9 42.9907 372.685 43.028 372.386 43.028H371.994C371.696 43.028 371.476 42.9907 371.336 42.916C371.206 42.832 371.14 42.7153 371.14 42.566V37.932C371.14 37.7173 371.094 37.554 371 37.442C370.907 37.33 370.739 37.274 370.496 37.274C370.347 37.274 370.193 37.316 370.034 37.4C369.876 37.484 369.745 37.5913 369.642 37.722V42.566C369.642 42.7153 369.572 42.832 369.432 42.916C369.302 42.9907 369.087 43.028 368.788 43.028H368.396ZM375.891 43.112C375.229 43.112 374.725 42.9113 374.379 42.51C374.034 42.1087 373.861 41.5767 373.861 40.914C373.861 40.6433 373.899 40.3587 373.973 40.06C374.048 39.7613 374.202 39.4813 374.435 39.22C374.669 38.9493 375.019 38.73 375.485 38.562C375.952 38.394 376.573 38.31 377.347 38.31V38.086C377.347 37.7873 377.277 37.568 377.137 37.428C377.007 37.2787 376.792 37.204 376.493 37.204C376.167 37.204 375.868 37.2413 375.597 37.316C375.336 37.3907 375.117 37.4653 374.939 37.54C374.762 37.6147 374.631 37.652 374.547 37.652C374.454 37.652 374.379 37.582 374.323 37.442C374.267 37.2927 374.225 37.1247 374.197 36.938C374.179 36.7513 374.169 36.602 374.169 36.49C374.169 36.35 374.291 36.21 374.533 36.07C374.776 35.93 375.089 35.8133 375.471 35.72C375.854 35.6173 376.246 35.566 376.647 35.566C377.338 35.566 377.884 35.6687 378.285 35.874C378.696 36.0793 378.99 36.364 379.167 36.728C379.354 37.092 379.447 37.512 379.447 37.988V40.578C379.447 40.9887 379.457 41.3153 379.475 41.558C379.503 41.8007 379.527 41.9967 379.545 42.146C379.573 42.286 379.587 42.4073 379.587 42.51C379.587 42.6127 379.517 42.6967 379.377 42.762C379.247 42.8273 379.088 42.8787 378.901 42.916C378.715 42.9533 378.537 42.9813 378.369 43C378.211 43.0093 378.103 43.014 378.047 43.014C377.87 43.014 377.749 42.9673 377.683 42.874C377.618 42.7713 377.557 42.58 377.501 42.3C377.399 42.4587 377.212 42.636 376.941 42.832C376.68 43.0187 376.33 43.112 375.891 43.112ZM376.633 41.614C376.96 41.614 377.198 41.46 377.347 41.152V39.514C376.834 39.514 376.47 39.6307 376.255 39.864C376.05 40.0973 375.947 40.396 375.947 40.76C375.947 41.012 376.003 41.2173 376.115 41.376C376.237 41.5347 376.409 41.614 376.633 41.614ZM381.083 43.028C380.784 43.028 380.565 42.9907 380.425 42.916C380.294 42.832 380.229 42.7153 380.229 42.566V36.112C380.229 35.9627 380.294 35.8507 380.425 35.776C380.565 35.692 380.784 35.65 381.083 35.65H381.475C381.774 35.65 381.988 35.692 382.119 35.776C382.259 35.8507 382.329 35.9627 382.329 36.112V42.566C382.329 42.7153 382.259 42.832 382.119 42.916C381.988 42.9907 381.774 43.028 381.475 43.028H381.083ZM381.293 34.964C380.929 34.964 380.663 34.9267 380.495 34.852C380.336 34.7773 380.257 34.6653 380.257 34.516V33.424C380.257 33.2747 380.336 33.1627 380.495 33.088C380.663 33.0133 380.929 32.976 381.293 32.976C381.657 32.976 381.918 33.0133 382.077 33.088C382.245 33.1627 382.329 33.2747 382.329 33.424V34.516C382.329 34.6653 382.245 34.7773 382.077 34.852C381.918 34.9267 381.657 34.964 381.293 34.964ZM384.002 43.028C383.703 43.028 383.484 42.9907 383.344 42.916C383.213 42.832 383.148 42.7153 383.148 42.566V38.114C383.148 37.7033 383.134 37.3767 383.106 37.134C383.087 36.882 383.064 36.686 383.036 36.546C383.017 36.406 383.008 36.2847 383.008 36.182C383.008 36.0793 383.073 35.9953 383.204 35.93C383.344 35.8647 383.507 35.818 383.694 35.79C383.89 35.7527 384.072 35.7293 384.24 35.72C384.417 35.7013 384.543 35.692 384.618 35.692C384.786 35.692 384.898 35.7527 384.954 35.874C385.01 35.9953 385.075 36.2473 385.15 36.63C385.355 36.3687 385.621 36.126 385.948 35.902C386.284 35.678 386.671 35.566 387.11 35.566C387.67 35.566 388.099 35.734 388.398 36.07C388.696 36.3967 388.846 36.8773 388.846 37.512V42.566C388.846 42.7153 388.776 42.832 388.636 42.916C388.505 42.9907 388.29 43.028 387.992 43.028H387.6C387.301 43.028 387.082 42.9907 386.942 42.916C386.811 42.832 386.746 42.7153 386.746 42.566V37.932C386.746 37.7173 386.699 37.554 386.606 37.442C386.512 37.33 386.344 37.274 386.102 37.274C385.952 37.274 385.798 37.316 385.64 37.4C385.481 37.484 385.35 37.5913 385.248 37.722V42.566C385.248 42.7153 385.178 42.832 385.038 42.916C384.907 42.9907 384.692 43.028 384.394 43.028H384.002ZM393.453 45.912C393.294 45.912 393.168 45.8373 393.075 45.688C392.449 44.7267 391.987 43.6767 391.689 42.538C391.399 41.3993 391.255 40.214 391.255 38.982C391.255 37.7127 391.399 36.5087 391.689 35.37C391.987 34.222 392.449 33.186 393.075 32.262C393.187 32.1127 393.313 32.038 393.453 32.038C393.546 32.038 393.653 32.066 393.775 32.122C393.905 32.1687 394.017 32.2387 394.111 32.332C394.204 32.416 394.251 32.514 394.251 32.626C394.251 32.6633 394.246 32.71 394.237 32.766C394.227 32.8127 394.209 32.8593 394.181 32.906C393.695 33.8767 393.359 34.8613 393.173 35.86C392.986 36.8493 392.893 37.89 392.893 38.982C392.893 40.1113 392.986 41.1707 393.173 42.16C393.359 43.1493 393.695 44.1107 394.181 45.044C394.209 45.0907 394.227 45.1373 394.237 45.184C394.246 45.2307 394.251 45.2773 394.251 45.324C394.251 45.4267 394.204 45.5247 394.111 45.618C394.017 45.7113 393.905 45.7813 393.775 45.828C393.653 45.884 393.546 45.912 393.453 45.912ZM396.41 43.112C396.102 43.112 395.785 43.07 395.458 42.986C395.141 42.902 394.856 42.7993 394.604 42.678C394.408 42.5847 394.24 42.482 394.1 42.37C393.96 42.2487 393.89 42.118 393.89 41.978C393.89 41.8847 393.909 41.7447 393.946 41.558C393.983 41.362 394.044 41.18 394.128 41.012C394.221 40.844 394.333 40.76 394.464 40.76C394.548 40.76 394.683 40.8067 394.87 40.9C395.066 40.9933 395.29 41.0867 395.542 41.18C395.803 41.2733 396.079 41.32 396.368 41.32C396.62 41.32 396.853 41.2593 397.068 41.138C397.292 41.0073 397.404 40.7413 397.404 40.34C397.404 40.0787 397.339 39.864 397.208 39.696C397.087 39.528 396.919 39.3787 396.704 39.248C396.499 39.1173 396.275 38.9867 396.032 38.856C395.603 38.6133 395.239 38.3613 394.94 38.1C394.641 37.8387 394.413 37.5353 394.254 37.19C394.095 36.8353 394.016 36.406 394.016 35.902C394.016 35.314 394.142 34.81 394.394 34.39C394.655 33.97 395.005 33.648 395.444 33.424C395.892 33.2 396.396 33.088 396.956 33.088C397.273 33.088 397.6 33.1253 397.936 33.2C398.272 33.2747 398.557 33.3867 398.79 33.536C398.874 33.592 398.963 33.662 399.056 33.746C399.149 33.83 399.196 33.9327 399.196 34.054C399.196 34.1847 399.177 34.348 399.14 34.544C399.103 34.7307 399.047 34.8987 398.972 35.048C398.897 35.1973 398.804 35.272 398.692 35.272C398.617 35.272 398.496 35.2393 398.328 35.174C398.16 35.1087 397.969 35.0433 397.754 34.978C397.539 34.9127 397.329 34.88 397.124 34.88C396.825 34.88 396.597 34.9313 396.438 35.034C396.289 35.1367 396.186 35.258 396.13 35.398C396.083 35.5287 396.06 35.6547 396.06 35.776C396.06 36.056 396.135 36.28 396.284 36.448C396.443 36.616 396.643 36.7607 396.886 36.882C397.129 37.0033 397.381 37.1387 397.642 37.288C398.053 37.5213 398.389 37.7687 398.65 38.03C398.921 38.2913 399.121 38.5947 399.252 38.94C399.392 39.276 399.462 39.6913 399.462 40.186C399.462 40.69 399.355 41.166 399.14 41.614C398.925 42.0527 398.594 42.412 398.146 42.692C397.698 42.972 397.119 43.112 396.41 43.112ZM402.219 43.028C401.957 43.028 401.752 42.9907 401.603 42.916C401.463 42.8413 401.369 42.7013 401.323 42.496L399.307 33.872C399.279 33.7507 399.265 33.6713 399.265 33.634C399.255 33.5873 399.251 33.5453 399.251 33.508C399.251 33.4053 399.297 33.326 399.391 33.27C399.484 33.2047 399.638 33.172 399.853 33.172H400.595C400.791 33.172 400.959 33.1953 401.099 33.242C401.239 33.2887 401.323 33.3867 401.351 33.536L402.737 40.914H402.793L404.123 33.536C404.151 33.3867 404.235 33.2887 404.375 33.242C404.515 33.1953 404.678 33.172 404.865 33.172H405.621C405.835 33.172 405.989 33.2047 406.083 33.27C406.176 33.326 406.223 33.4053 406.223 33.508C406.223 33.5453 406.218 33.5873 406.209 33.634C406.209 33.6713 406.195 33.7507 406.167 33.872L404.151 42.496C404.104 42.7013 404.006 42.8413 403.857 42.916C403.707 42.9907 403.511 43.028 403.269 43.028H402.219ZM407.402 43.028C406.842 43.028 406.562 42.874 406.562 42.566V33.634C406.562 33.326 406.842 33.172 407.402 33.172H407.822C408.167 33.172 408.405 33.2 408.536 33.256C408.676 33.312 408.779 33.4147 408.844 33.564L410.244 36.728C410.319 36.9053 410.379 37.0733 410.426 37.232C410.473 37.3907 410.515 37.5353 410.552 37.666C410.58 37.5353 410.613 37.3907 410.65 37.232C410.697 37.0733 410.762 36.9053 410.846 36.728L412.26 33.564C412.325 33.4147 412.423 33.312 412.554 33.256C412.694 33.2 412.937 33.172 413.282 33.172H413.702C414.262 33.172 414.542 33.326 414.542 33.634V42.566C414.542 42.874 414.262 43.028 413.702 43.028H413.366C412.806 43.028 412.526 42.874 412.526 42.566V38.436C412.526 38.3053 412.531 38.1747 412.54 38.044C412.549 37.9133 412.568 37.7873 412.596 37.666L412.54 37.652C412.503 37.764 412.456 37.876 412.4 37.988C412.353 38.0907 412.307 38.198 412.26 38.31L411.476 40.102C411.373 40.326 411.103 40.438 410.664 40.438H410.426C409.969 40.438 409.689 40.326 409.586 40.102L408.844 38.31C408.807 38.2073 408.765 38.1 408.718 37.988C408.671 37.876 408.625 37.764 408.578 37.652L408.522 37.666C408.541 37.7873 408.555 37.9133 408.564 38.044C408.573 38.1747 408.578 38.3053 408.578 38.436V42.566C408.578 42.874 408.298 43.028 407.738 43.028H407.402ZM415.521 32.08C415.68 32.08 415.806 32.1547 415.899 32.304C416.534 33.2653 416.996 34.3153 417.285 35.454C417.574 36.5927 417.719 37.778 417.719 39.01C417.719 40.2793 417.57 41.488 417.271 42.636C416.982 43.7747 416.524 44.806 415.899 45.73C415.787 45.8793 415.661 45.954 415.521 45.954C415.428 45.954 415.316 45.926 415.185 45.87C415.064 45.8233 414.956 45.7533 414.863 45.66C414.77 45.5667 414.723 45.4687 414.723 45.366C414.723 45.3193 414.728 45.2727 414.737 45.226C414.746 45.1793 414.765 45.1327 414.793 45.086C415.278 44.1153 415.614 43.1353 415.801 42.146C415.988 41.1473 416.081 40.102 416.081 39.01C416.081 37.8713 415.988 36.812 415.801 35.832C415.614 34.8427 415.278 33.8813 414.793 32.948C414.765 32.9013 414.746 32.8547 414.737 32.808C414.728 32.752 414.723 32.7053 414.723 32.668C414.723 32.556 414.77 32.458 414.863 32.374C414.956 32.2807 415.064 32.2107 415.185 32.164C415.316 32.108 415.428 32.08 415.521 32.08Z" fill="black"/>
<rect width="202" height="120" transform="translate(259 50)" fill="white"/>
<path d="M340.575 66H339.432L341.971 58.9297H343.211L345.76 66H344.618L343.973 64.1348H341.219L340.575 66ZM341.532 63.2363H343.661L342.616 60.2188H342.567L341.532 63.2363ZM348.509 66.1074C346.966 66.1074 346.029 64.9648 346.029 63.373C346.029 61.752 346.995 60.6289 348.489 60.6289C349.7 60.6289 350.579 61.3418 350.687 62.416H349.671C349.564 61.918 349.163 61.498 348.509 61.498C347.65 61.498 347.073 62.2109 347.073 63.3438C347.073 64.5059 347.64 65.2188 348.509 65.2188C349.095 65.2188 349.544 64.8965 349.671 64.3203H350.687C350.57 65.3457 349.759 66.1074 348.509 66.1074ZM353.699 66.1074C352.156 66.1074 351.219 64.9648 351.219 63.373C351.219 61.752 352.185 60.6289 353.68 60.6289C354.891 60.6289 355.769 61.3418 355.877 62.416H354.861C354.754 61.918 354.353 61.498 353.699 61.498C352.84 61.498 352.264 62.2109 352.264 63.3438C352.264 64.5059 352.83 65.2188 353.699 65.2188C354.285 65.2188 354.734 64.8965 354.861 64.3203H355.877C355.76 65.3457 354.949 66.1074 353.699 66.1074ZM358.889 66.1074C357.385 66.1074 356.409 65.0137 356.409 63.373C356.409 61.7227 357.385 60.6289 358.889 60.6289C360.383 60.6289 361.36 61.7227 361.36 63.373C361.36 65.0137 360.383 66.1074 358.889 66.1074ZM358.889 65.2383C359.846 65.2383 360.305 64.3887 360.305 63.373C360.305 62.3574 359.846 61.4883 358.889 61.4883C357.913 61.4883 357.454 62.3574 357.454 63.373C357.454 64.3887 357.913 65.2383 358.889 65.2383ZM365.535 63.793V60.6973H366.57V66H365.554V65.082H365.495C365.251 65.6484 364.704 66.0684 363.913 66.0684C362.888 66.0684 362.165 65.3848 362.165 64.0664V60.6973H363.21V63.9395C363.21 64.6621 363.65 65.1211 364.285 65.1211C364.861 65.1211 365.535 64.7012 365.535 63.793ZM368.664 62.8555V66H367.619V60.6973H368.625V61.5664H368.684C368.938 61 369.455 60.6289 370.246 60.6289C371.34 60.6289 372.053 61.3125 372.053 62.6309V66H371.018V62.7578C371.018 61.9863 370.598 61.5273 369.895 61.5273C369.182 61.5273 368.664 62.0059 368.664 62.8555ZM375.583 60.6973V61.5273H374.499V64.4375C374.499 65.0332 374.802 65.1406 375.134 65.1504C375.28 65.1504 375.514 65.1309 375.661 65.1211V66.0293C375.514 66.0488 375.29 66.0684 375.007 66.0684C374.186 66.0684 373.454 65.6191 373.464 64.6523V61.5273H372.682V60.6973H373.464V59.4277H374.499V60.6973H375.583ZM379.269 62.1426C379.171 61.7227 378.839 61.4492 378.263 61.4492C377.667 61.4492 377.238 61.7617 377.248 62.1621C377.238 62.4746 377.492 62.6992 378.078 62.8359L378.917 63.0312C379.894 63.2461 380.363 63.7148 380.373 64.4668C380.363 65.4238 379.562 66.1074 378.205 66.1074C376.935 66.1074 376.173 65.541 376.046 64.5547H377.111C377.199 65.0332 377.57 65.2676 378.195 65.2676C378.869 65.2676 379.298 64.9941 379.308 64.5449C379.298 64.2031 379.044 63.9785 378.488 63.8516L377.658 63.6758C376.701 63.4609 376.203 62.9531 376.203 62.2207C376.203 61.2734 377.023 60.6289 378.253 60.6289C379.435 60.6289 380.167 61.2344 380.275 62.1426H379.269Z" fill="#606060"/>
<rect x="279.5" y="72.5" width="161" height="19" fill="#FFF2B4"/>
<rect x="279.5" y="72.5" width="161" height="19" stroke="#585858"/>
<path d="M315.894 80.7949C315.826 80.1406 315.249 79.7598 314.439 79.7598C313.57 79.7598 313.023 80.1992 313.023 80.8047C313.023 81.4785 313.755 81.7324 314.312 81.8691L314.996 82.0547C315.904 82.2695 317.027 82.7676 317.037 84.0469C317.027 85.2383 316.08 86.1172 314.41 86.1172C312.828 86.1172 311.831 85.3262 311.763 84.0371H312.837C312.906 84.8086 313.58 85.1797 314.41 85.1797C315.308 85.1797 315.962 84.7207 315.972 84.0273C315.962 83.4121 315.386 83.1582 314.634 82.9629L313.794 82.7383C312.662 82.4258 311.949 81.8496 311.949 80.8633C311.949 79.6426 313.042 78.832 314.468 78.832C315.904 78.832 316.91 79.6523 316.939 80.7949H315.894ZM320.361 80.6973V81.5273H319.278V84.4375C319.278 85.0332 319.58 85.1406 319.912 85.1504C320.059 85.1504 320.293 85.1309 320.44 85.1211V86.0293C320.293 86.0488 320.069 86.0684 319.785 86.0684C318.965 86.0684 318.233 85.6191 318.242 84.6523V81.5273H317.461V80.6973H318.242V79.4277H319.278V80.6973H320.361ZM320.913 84.5059C320.913 83.2949 321.938 82.9824 322.895 82.9141C323.247 82.8896 324.043 82.8457 324.292 82.8359L324.282 82.416C324.282 81.8203 323.921 81.4688 323.208 81.4688C322.593 81.4688 322.222 81.752 322.114 82.1426H321.079C321.177 81.2637 321.997 80.6289 323.247 80.6289C324.087 80.6289 325.327 80.9414 325.327 82.4746V86H324.311V85.2773H324.272C324.067 85.6777 323.579 86.1172 322.7 86.1172C321.694 86.1172 320.913 85.541 320.913 84.5059ZM321.929 84.5156C321.929 85.0234 322.349 85.2871 322.934 85.2871C323.784 85.2871 324.292 84.7207 324.292 84.0859V83.5977L323.042 83.6855C322.358 83.7344 321.929 83.9883 321.929 84.5156ZM328.847 80.6973V81.5273H327.763V84.4375C327.763 85.0332 328.066 85.1406 328.398 85.1504C328.545 85.1504 328.779 85.1309 328.925 85.1211V86.0293C328.779 86.0488 328.554 86.0684 328.271 86.0684C327.451 86.0684 326.718 85.6191 326.728 84.6523V81.5273H325.947V80.6973H326.728V79.4277H327.763V80.6973H328.847ZM331.869 86.1074C330.307 86.1074 329.35 85.0332 329.35 83.3828C329.35 81.752 330.326 80.6289 331.801 80.6289C333.012 80.6289 334.155 81.3809 334.155 83.2949V83.666H330.385C330.414 84.6719 331.005 85.248 331.879 85.248C332.475 85.248 332.856 84.9941 333.032 84.6719H334.086C333.852 85.5312 333.032 86.1074 331.869 86.1074ZM330.395 82.8848H333.129C333.129 82.0742 332.612 81.4883 331.811 81.4883C330.976 81.4883 330.434 82.1328 330.395 82.8848ZM337.885 86H336.742L339.281 78.9297H340.521L343.07 86H341.928L341.283 84.1348H338.529L337.885 86ZM338.842 83.2363H340.97L339.926 80.2188H339.877L338.842 83.2363ZM345.819 86.1074C344.276 86.1074 343.338 84.9648 343.338 83.373C343.338 81.752 344.305 80.6289 345.799 80.6289C347.01 80.6289 347.889 81.3418 347.997 82.416H346.981C346.874 81.918 346.473 81.498 345.819 81.498C344.959 81.498 344.383 82.2109 344.383 83.3438C344.383 84.5059 344.95 85.2188 345.819 85.2188C346.405 85.2188 346.854 84.8965 346.981 84.3203H347.997C347.879 85.3457 347.069 86.1074 345.819 86.1074ZM351.009 86.1074C349.466 86.1074 348.529 84.9648 348.529 83.373C348.529 81.752 349.495 80.6289 350.989 80.6289C352.2 80.6289 353.079 81.3418 353.187 82.416H352.171C352.064 81.918 351.663 81.498 351.009 81.498C350.15 81.498 349.573 82.2109 349.573 83.3438C349.573 84.5059 350.14 85.2188 351.009 85.2188C351.595 85.2188 352.044 84.8965 352.171 84.3203H353.187C353.07 85.3457 352.259 86.1074 351.009 86.1074ZM356.199 86.1074C354.695 86.1074 353.719 85.0137 353.719 83.373C353.719 81.7227 354.695 80.6289 356.199 80.6289C357.693 80.6289 358.67 81.7227 358.67 83.373C358.67 85.0137 357.693 86.1074 356.199 86.1074ZM356.199 85.2383C357.156 85.2383 357.615 84.3887 357.615 83.373C357.615 82.3574 357.156 81.4883 356.199 81.4883C355.223 81.4883 354.764 82.3574 354.764 83.373C354.764 84.3887 355.223 85.2383 356.199 85.2383ZM362.844 83.793V80.6973H363.88V86H362.864V85.082H362.805C362.561 85.6484 362.014 86.0684 361.223 86.0684C360.198 86.0684 359.475 85.3848 359.475 84.0664V80.6973H360.52V83.9395C360.52 84.6621 360.96 85.1211 361.594 85.1211C362.171 85.1211 362.844 84.7012 362.844 83.793ZM365.974 82.8555V86H364.929V80.6973H365.935V81.5664H365.994C366.247 81 366.765 80.6289 367.556 80.6289C368.65 80.6289 369.363 81.3125 369.363 82.6309V86H368.328V82.7578C368.328 81.9863 367.908 81.5273 367.204 81.5273C366.492 81.5273 365.974 82.0059 365.974 82.8555ZM372.893 80.6973V81.5273H371.809V84.4375C371.809 85.0332 372.111 85.1406 372.443 85.1504C372.59 85.1504 372.824 85.1309 372.971 85.1211V86.0293C372.824 86.0488 372.6 86.0684 372.316 86.0684C371.496 86.0684 370.764 85.6191 370.774 84.6523V81.5273H369.992V80.6973H370.774V79.4277H371.809V80.6973H372.893ZM376.125 83.3047C376.134 81.4688 376.652 79.9355 377.57 78.627H378.527C377.853 79.5938 377.209 81.5664 377.209 83.3047C377.209 85.0527 377.853 87.0156 378.527 87.9922H377.57C376.652 86.6836 376.134 85.1504 376.125 83.3047ZM379.352 86V78.9297H381.871C383.512 78.9297 384.322 79.916 384.322 81.2246C384.322 82.5234 383.512 83.5195 381.871 83.5195H380.426V86H379.352ZM380.426 82.6016H381.764C382.809 82.6016 383.239 82.0156 383.239 81.2246C383.239 80.4238 382.809 79.8477 381.764 79.8477H380.426V82.6016ZM388.517 83.793V80.6973H389.552V86H388.536V85.082H388.478C388.233 85.6484 387.686 86.0684 386.895 86.0684C385.87 86.0684 385.147 85.3848 385.147 84.0664V80.6973H386.192V83.9395C386.192 84.6621 386.632 85.1211 387.267 85.1211C387.843 85.1211 388.517 84.7012 388.517 83.793ZM390.689 86V78.9297H391.724V81.5566H391.783C391.978 81.2246 392.33 80.6289 393.306 80.6289C394.586 80.6289 395.543 81.6348 395.543 83.3633C395.543 85.0723 394.605 86.1074 393.316 86.1074C392.349 86.1074 391.978 85.5215 391.783 85.1699H391.705V86H390.689ZM391.705 83.3438C391.705 84.457 392.203 85.2188 393.082 85.2188C394 85.2188 394.478 84.4082 394.478 83.3438C394.478 82.2988 394.009 81.5176 393.082 81.5176C392.193 81.5176 391.705 82.2402 391.705 83.3438ZM397.403 78.9297V86H396.358V78.9297H397.403ZM398.452 86V80.6973H399.497V86H398.452ZM398.98 79.877C398.618 79.877 398.316 79.6035 398.316 79.2617C398.316 78.9199 398.618 78.6465 398.98 78.6465C399.331 78.6465 399.634 78.9199 399.634 79.2617C399.634 79.6035 399.331 79.877 398.98 79.877ZM402.793 86.1074C401.25 86.1074 400.312 84.9648 400.312 83.373C400.312 81.752 401.279 80.6289 402.773 80.6289C403.984 80.6289 404.863 81.3418 404.971 82.416H403.955C403.848 81.918 403.447 81.498 402.793 81.498C401.933 81.498 401.357 82.2109 401.357 83.3438C401.357 84.5059 401.924 85.2188 402.793 85.2188C403.379 85.2188 403.828 84.8965 403.955 84.3203H404.971C404.853 85.3457 404.043 86.1074 402.793 86.1074ZM407.827 83.3047C407.817 85.1504 407.299 86.6836 406.381 87.9922H405.424C406.098 87.0156 406.743 85.0527 406.743 83.3047C406.743 81.5664 406.098 79.5938 405.424 78.627H406.381C407.299 79.9355 407.817 81.4688 407.827 83.3047Z" fill="#353434"/>
<rect x="279.5" y="96.5" width="161" height="19" fill="#FFF2B4"/>
<rect x="279.5" y="96.5" width="161" height="19" stroke="#585858"/>
<path d="M304.981 110V102.93H307.501C309.141 102.93 309.952 103.916 309.952 105.225C309.952 106.523 309.141 107.52 307.501 107.52H306.055V110H304.981ZM306.055 106.602H307.393C308.438 106.602 308.868 106.016 308.868 105.225C308.868 104.424 308.438 103.848 307.393 103.848H306.055V106.602ZM310.777 110V104.697H311.783V105.537H311.841C312.037 104.971 312.564 104.619 313.189 104.619C313.316 104.619 313.521 104.629 313.628 104.639V105.635C313.54 105.615 313.296 105.576 313.081 105.576C312.359 105.576 311.822 106.074 311.822 106.768V110H310.777ZM316.26 110.107C314.756 110.107 313.779 109.014 313.779 107.373C313.779 105.723 314.756 104.629 316.26 104.629C317.754 104.629 318.731 105.723 318.731 107.373C318.731 109.014 317.754 110.107 316.26 110.107ZM316.26 109.238C317.217 109.238 317.676 108.389 317.676 107.373C317.676 106.357 317.217 105.488 316.26 105.488C315.283 105.488 314.824 106.357 314.824 107.373C314.824 108.389 315.283 109.238 316.26 109.238ZM321.763 112.1C320.425 112.1 319.546 111.504 319.448 110.518H320.513C320.61 111.016 321.079 111.26 321.772 111.26C322.602 111.26 323.13 110.908 323.13 110.078V109.033H323.061C322.876 109.375 322.495 109.922 321.518 109.922C320.268 109.922 319.302 108.984 319.302 107.295C319.302 105.605 320.249 104.629 321.528 104.629C322.515 104.629 322.876 105.225 323.071 105.557H323.14V104.697H324.155V110.117C324.155 111.475 323.13 112.1 321.763 112.1ZM321.753 109.062C322.641 109.062 323.14 108.408 323.14 107.314C323.14 106.24 322.651 105.518 321.753 105.518C320.825 105.518 320.366 106.299 320.366 107.314C320.366 108.35 320.845 109.062 321.753 109.062ZM325.205 110V104.697H326.211V105.537H326.269C326.464 104.971 326.992 104.619 327.617 104.619C327.744 104.619 327.949 104.629 328.056 104.639V105.635C327.968 105.615 327.724 105.576 327.509 105.576C326.787 105.576 326.25 106.074 326.25 106.768V110H325.205ZM328.315 108.506C328.315 107.295 329.34 106.982 330.297 106.914C330.649 106.89 331.445 106.846 331.694 106.836L331.684 106.416C331.684 105.82 331.323 105.469 330.61 105.469C329.994 105.469 329.623 105.752 329.516 106.143H328.481C328.578 105.264 329.399 104.629 330.649 104.629C331.489 104.629 332.729 104.941 332.729 106.475V110H331.713V109.277H331.674C331.469 109.678 330.981 110.117 330.102 110.117C329.096 110.117 328.315 109.541 328.315 108.506ZM329.33 108.516C329.33 109.023 329.75 109.287 330.336 109.287C331.186 109.287 331.694 108.721 331.694 108.086V107.598L330.444 107.686C329.76 107.734 329.33 107.988 329.33 108.516ZM333.769 110V104.697H334.774V105.566H334.833C335.058 104.971 335.575 104.629 336.278 104.629C336.981 104.629 337.48 104.98 337.704 105.566H337.763C338.017 104.99 338.583 104.629 339.355 104.629C340.312 104.629 340.995 105.234 340.995 106.445V110H339.95V106.543C339.95 105.83 339.501 105.527 338.954 105.527C338.28 105.527 337.899 105.986 337.899 106.621V110H336.864V106.484C336.864 105.908 336.464 105.527 335.897 105.527C335.312 105.527 334.814 106.016 334.814 106.729V110H333.769ZM344.95 110H343.807L346.346 102.93H347.586L350.135 110H348.993L348.348 108.135H345.594L344.95 110ZM345.907 107.236H348.036L346.991 104.219H346.942L345.907 107.236ZM352.884 110.107C351.341 110.107 350.404 108.965 350.404 107.373C350.404 105.752 351.37 104.629 352.864 104.629C354.075 104.629 354.954 105.342 355.062 106.416H354.046C353.939 105.918 353.538 105.498 352.884 105.498C352.025 105.498 351.448 106.211 351.448 107.344C351.448 108.506 352.015 109.219 352.884 109.219C353.47 109.219 353.919 108.896 354.046 108.32H355.062C354.945 109.346 354.134 110.107 352.884 110.107ZM358.074 110.107C356.531 110.107 355.594 108.965 355.594 107.373C355.594 105.752 356.56 104.629 358.055 104.629C359.266 104.629 360.144 105.342 360.252 106.416H359.236C359.129 105.918 358.728 105.498 358.074 105.498C357.215 105.498 356.639 106.211 356.639 107.344C356.639 108.506 357.205 109.219 358.074 109.219C358.66 109.219 359.109 108.896 359.236 108.32H360.252C360.135 109.346 359.324 110.107 358.074 110.107ZM363.264 110.107C361.76 110.107 360.784 109.014 360.784 107.373C360.784 105.723 361.76 104.629 363.264 104.629C364.758 104.629 365.735 105.723 365.735 107.373C365.735 109.014 364.758 110.107 363.264 110.107ZM363.264 109.238C364.221 109.238 364.68 108.389 364.68 107.373C364.68 106.357 364.221 105.488 363.264 105.488C362.288 105.488 361.829 106.357 361.829 107.373C361.829 108.389 362.288 109.238 363.264 109.238ZM369.91 107.793V104.697H370.945V110H369.929V109.082H369.87C369.626 109.648 369.079 110.068 368.288 110.068C367.263 110.068 366.54 109.385 366.54 108.066V104.697H367.585V107.939C367.585 108.662 368.025 109.121 368.66 109.121C369.236 109.121 369.91 108.701 369.91 107.793ZM373.039 106.855V110H371.994V104.697H373V105.566H373.059C373.313 105 373.83 104.629 374.621 104.629C375.715 104.629 376.428 105.312 376.428 106.631V110H375.393V106.758C375.393 105.986 374.973 105.527 374.27 105.527C373.557 105.527 373.039 106.006 373.039 106.855ZM379.958 104.697V105.527H378.874V108.438C378.874 109.033 379.177 109.141 379.509 109.15C379.655 109.15 379.889 109.131 380.036 109.121V110.029C379.889 110.049 379.665 110.068 379.382 110.068C378.561 110.068 377.829 109.619 377.839 108.652V105.527H377.057V104.697H377.839V103.428H378.874V104.697H379.958ZM383.19 107.305C383.199 105.469 383.717 103.936 384.635 102.627H385.592C384.918 103.594 384.274 105.566 384.274 107.305C384.274 109.053 384.918 111.016 385.592 111.992H384.635C383.717 110.684 383.199 109.15 383.19 107.305ZM386.417 110V102.93H388.936C390.577 102.93 391.388 103.916 391.388 105.225C391.388 106.523 390.577 107.52 388.936 107.52H387.491V110H386.417ZM387.491 106.602H388.829C389.874 106.602 390.304 106.016 390.304 105.225C390.304 104.424 389.874 103.848 388.829 103.848H387.491V106.602ZM395.582 107.793V104.697H396.617V110H395.601V109.082H395.543C395.299 109.648 394.752 110.068 393.961 110.068C392.935 110.068 392.213 109.385 392.213 108.066V104.697H393.257V107.939C393.257 108.662 393.697 109.121 394.332 109.121C394.908 109.121 395.582 108.701 395.582 107.793ZM397.754 110V102.93H398.789V105.557H398.848C399.043 105.225 399.395 104.629 400.371 104.629C401.651 104.629 402.608 105.635 402.608 107.363C402.608 109.072 401.67 110.107 400.381 110.107C399.414 110.107 399.043 109.521 398.848 109.17H398.77V110H397.754ZM398.77 107.344C398.77 108.457 399.268 109.219 400.147 109.219C401.065 109.219 401.543 108.408 401.543 107.344C401.543 106.299 401.075 105.518 400.147 105.518C399.258 105.518 398.77 106.24 398.77 107.344ZM404.468 102.93V110H403.423V102.93H404.468ZM405.517 110V104.697H406.562V110H405.517ZM406.045 103.877C405.683 103.877 405.381 103.604 405.381 103.262C405.381 102.92 405.683 102.646 406.045 102.646C406.396 102.646 406.699 102.92 406.699 103.262C406.699 103.604 406.396 103.877 406.045 103.877ZM409.858 110.107C408.315 110.107 407.378 108.965 407.378 107.373C407.378 105.752 408.344 104.629 409.838 104.629C411.049 104.629 411.928 105.342 412.036 106.416H411.02C410.913 105.918 410.512 105.498 409.858 105.498C408.999 105.498 408.422 106.211 408.422 107.344C408.422 108.506 408.989 109.219 409.858 109.219C410.444 109.219 410.893 108.896 411.02 108.32H412.036C411.919 109.346 411.108 110.107 409.858 110.107ZM414.892 107.305C414.882 109.15 414.365 110.684 413.447 111.992H412.49C413.163 111.016 413.808 109.053 413.808 107.305C413.808 105.566 413.163 103.594 412.49 102.627H413.447C414.365 103.936 414.882 105.469 414.892 107.305Z" fill="#353434"/>
<rect x="279.5" y="120.5" width="161" height="19" fill="#FFCECE"/>
<rect x="279.5" y="120.5" width="161" height="19" stroke="#9F4B4B"/>
<path d="M291.984 134V126.93H294.503C296.144 126.93 296.955 127.916 296.955 129.225C296.955 130.523 296.144 131.52 294.503 131.52H293.058V134H291.984ZM293.058 130.602H294.396C295.441 130.602 295.871 130.016 295.871 129.225C295.871 128.424 295.441 127.848 294.396 127.848H293.058V130.602ZM297.78 134V128.697H298.785V129.537H298.844C299.039 128.971 299.567 128.619 300.192 128.619C300.319 128.619 300.524 128.629 300.631 128.639V129.635C300.543 129.615 300.299 129.576 300.084 129.576C299.362 129.576 298.824 130.074 298.824 130.768V134H297.78ZM303.263 134.107C301.759 134.107 300.782 133.014 300.782 131.373C300.782 129.723 301.759 128.629 303.263 128.629C304.757 128.629 305.733 129.723 305.733 131.373C305.733 133.014 304.757 134.107 303.263 134.107ZM303.263 133.238C304.22 133.238 304.679 132.389 304.679 131.373C304.679 130.357 304.22 129.488 303.263 129.488C302.286 129.488 301.827 130.357 301.827 131.373C301.827 132.389 302.286 133.238 303.263 133.238ZM308.765 136.1C307.427 136.1 306.549 135.504 306.451 134.518H307.515C307.613 135.016 308.082 135.26 308.775 135.26C309.605 135.26 310.133 134.908 310.133 134.078V133.033H310.064C309.879 133.375 309.498 133.922 308.521 133.922C307.271 133.922 306.304 132.984 306.304 131.295C306.304 129.605 307.252 128.629 308.531 128.629C309.517 128.629 309.879 129.225 310.074 129.557H310.142V128.697H311.158V134.117C311.158 135.475 310.133 136.1 308.765 136.1ZM308.756 133.062C309.644 133.062 310.142 132.408 310.142 131.314C310.142 130.24 309.654 129.518 308.756 129.518C307.828 129.518 307.369 130.299 307.369 131.314C307.369 132.35 307.847 133.062 308.756 133.062ZM312.207 134V128.697H313.213V129.537H313.272C313.467 128.971 313.995 128.619 314.62 128.619C314.747 128.619 314.952 128.629 315.059 128.639V129.635C314.971 129.615 314.727 129.576 314.512 129.576C313.789 129.576 313.252 130.074 313.252 130.768V134H312.207ZM315.318 132.506C315.318 131.295 316.343 130.982 317.3 130.914C317.652 130.89 318.447 130.846 318.696 130.836L318.687 130.416C318.687 129.82 318.325 129.469 317.612 129.469C316.997 129.469 316.626 129.752 316.519 130.143H315.484C315.581 129.264 316.402 128.629 317.652 128.629C318.491 128.629 319.732 128.941 319.732 130.475V134H318.716V133.277H318.677C318.472 133.678 317.984 134.117 317.105 134.117C316.099 134.117 315.318 133.541 315.318 132.506ZM316.333 132.516C316.333 133.023 316.753 133.287 317.339 133.287C318.189 133.287 318.696 132.721 318.696 132.086V131.598L317.446 131.686C316.763 131.734 316.333 131.988 316.333 132.516ZM320.771 134V128.697H321.777V129.566H321.836C322.06 128.971 322.578 128.629 323.281 128.629C323.984 128.629 324.482 128.98 324.707 129.566H324.766C325.019 128.99 325.586 128.629 326.357 128.629C327.314 128.629 327.998 129.234 327.998 130.445V134H326.953V130.543C326.953 129.83 326.504 129.527 325.957 129.527C325.283 129.527 324.902 129.986 324.902 130.621V134H323.867V130.484C323.867 129.908 323.467 129.527 322.9 129.527C322.314 129.527 321.816 130.016 321.816 130.729V134H320.771ZM331.952 134H330.81L333.349 126.93H334.589L337.138 134H335.995L335.351 132.135H332.597L331.952 134ZM332.909 131.236H335.038L333.993 128.219H333.945L332.909 131.236ZM339.887 134.107C338.344 134.107 337.406 132.965 337.406 131.373C337.406 129.752 338.373 128.629 339.867 128.629C341.078 128.629 341.957 129.342 342.064 130.416H341.049C340.941 129.918 340.541 129.498 339.887 129.498C339.027 129.498 338.451 130.211 338.451 131.344C338.451 132.506 339.018 133.219 339.887 133.219C340.473 133.219 340.922 132.896 341.049 132.32H342.064C341.947 133.346 341.137 134.107 339.887 134.107ZM345.077 134.107C343.534 134.107 342.596 132.965 342.596 131.373C342.596 129.752 343.563 128.629 345.057 128.629C346.268 128.629 347.147 129.342 347.255 130.416H346.239C346.132 129.918 345.731 129.498 345.077 129.498C344.218 129.498 343.641 130.211 343.641 131.344C343.641 132.506 344.208 133.219 345.077 133.219C345.663 133.219 346.112 132.896 346.239 132.32H347.255C347.137 133.346 346.327 134.107 345.077 134.107ZM350.267 134.107C348.763 134.107 347.787 133.014 347.787 131.373C347.787 129.723 348.763 128.629 350.267 128.629C351.761 128.629 352.738 129.723 352.738 131.373C352.738 133.014 351.761 134.107 350.267 134.107ZM350.267 133.238C351.224 133.238 351.683 132.389 351.683 131.373C351.683 130.357 351.224 129.488 350.267 129.488C349.291 129.488 348.832 130.357 348.832 131.373C348.832 132.389 349.291 133.238 350.267 133.238ZM356.912 131.793V128.697H357.947V134H356.932V133.082H356.873C356.629 133.648 356.082 134.068 355.291 134.068C354.266 134.068 353.543 133.385 353.543 132.066V128.697H354.588V131.939C354.588 132.662 355.028 133.121 355.662 133.121C356.238 133.121 356.912 132.701 356.912 131.793ZM360.042 130.855V134H358.997V128.697H360.003V129.566H360.061C360.315 129 360.833 128.629 361.624 128.629C362.718 128.629 363.431 129.312 363.431 130.631V134H362.395V130.758C362.395 129.986 361.976 129.527 361.272 129.527C360.559 129.527 360.042 130.006 360.042 130.855ZM366.961 128.697V129.527H365.877V132.438C365.877 133.033 366.179 133.141 366.511 133.15C366.658 133.15 366.892 133.131 367.039 133.121V134.029C366.892 134.049 366.668 134.068 366.384 134.068C365.564 134.068 364.832 133.619 364.841 132.652V129.527H364.06V128.697H364.841V127.428H365.877V128.697H366.961ZM370.192 131.305C370.202 129.469 370.72 127.936 371.638 126.627H372.595C371.921 127.594 371.276 129.566 371.276 131.305C371.276 133.053 371.921 135.016 372.595 135.992H371.638C370.72 134.684 370.202 133.15 370.192 131.305ZM378.205 129.234C378.029 128.326 377.277 127.818 376.379 127.818C375.158 127.818 374.25 128.756 374.25 130.465C374.25 132.184 375.168 133.111 376.379 133.111C377.267 133.111 378.019 132.613 378.205 131.715L379.289 131.725C379.064 133.121 377.922 134.098 376.369 134.098C374.523 134.098 373.185 132.721 373.185 130.465C373.185 128.199 374.533 126.832 376.369 126.832C377.863 126.832 379.045 127.711 379.289 129.234H378.205ZM382.389 134.107C380.885 134.107 379.909 133.014 379.909 131.373C379.909 129.723 380.885 128.629 382.389 128.629C383.883 128.629 384.86 129.723 384.86 131.373C384.86 133.014 383.883 134.107 382.389 134.107ZM382.389 133.238C383.346 133.238 383.805 132.389 383.805 131.373C383.805 130.357 383.346 129.488 382.389 129.488C381.413 129.488 380.954 130.357 380.954 131.373C380.954 132.389 381.413 133.238 382.389 133.238ZM386.71 130.855V134H385.665V128.697H386.671V129.566H386.73C386.984 129 387.501 128.629 388.292 128.629C389.386 128.629 390.099 129.312 390.099 130.631V134H389.064V130.758C389.064 129.986 388.644 129.527 387.941 129.527C387.228 129.527 386.71 130.006 386.71 130.855ZM393.678 128.697V129.527H392.535V134H391.49V129.527H390.67V128.697H391.49V128.082C391.49 127.135 392.096 126.598 393.072 126.598C393.326 126.598 393.58 126.627 393.785 126.666V127.535C393.59 127.506 393.443 127.496 393.346 127.496C392.789 127.496 392.535 127.721 392.535 128.238V128.697H393.678ZM394.405 134V128.697H395.45V134H394.405ZM394.932 127.877C394.571 127.877 394.268 127.604 394.268 127.262C394.268 126.92 394.571 126.646 394.932 126.646C395.284 126.646 395.587 126.92 395.587 127.262C395.587 127.604 395.284 127.877 394.932 127.877ZM398.482 134.107C397.203 134.107 396.265 133.072 396.265 131.363C396.265 129.635 397.212 128.629 398.492 128.629C399.478 128.629 399.839 129.225 400.025 129.557H400.074V126.93H401.119V134H400.103V133.17H400.025C399.829 133.521 399.449 134.107 398.482 134.107ZM398.716 133.219C399.605 133.219 400.103 132.457 400.103 131.344C400.103 130.24 399.615 129.518 398.716 129.518C397.788 129.518 397.329 130.299 397.329 131.344C397.329 132.408 397.808 133.219 398.716 133.219ZM404.541 134.107C402.979 134.107 402.022 133.033 402.022 131.383C402.022 129.752 402.998 128.629 404.473 128.629C405.684 128.629 406.826 129.381 406.826 131.295V131.666H403.057C403.086 132.672 403.677 133.248 404.551 133.248C405.147 133.248 405.527 132.994 405.703 132.672H406.758C406.524 133.531 405.703 134.107 404.541 134.107ZM403.067 130.885H405.801C405.801 130.074 405.283 129.488 404.483 129.488C403.648 129.488 403.106 130.133 403.067 130.885ZM408.686 130.855V134H407.641V128.697H408.647V129.566H408.706C408.96 129 409.477 128.629 410.268 128.629C411.362 128.629 412.075 129.312 412.075 130.631V134H411.04V130.758C411.04 129.986 410.62 129.527 409.917 129.527C409.204 129.527 408.686 130.006 408.686 130.855ZM415.605 128.697V129.527H414.521V132.438C414.521 133.033 414.824 133.141 415.156 133.15C415.302 133.15 415.537 133.131 415.683 133.121V134.029C415.537 134.049 415.312 134.068 415.029 134.068C414.209 134.068 413.476 133.619 413.486 132.652V129.527H412.705V128.697H413.486V127.428H414.521V128.697H415.605ZM416.401 134V128.697H417.446V134H416.401ZM416.928 127.877C416.567 127.877 416.264 127.604 416.264 127.262C416.264 126.92 416.567 126.646 416.928 126.646C417.28 126.646 417.582 126.92 417.582 127.262C417.582 127.604 417.28 127.877 416.928 127.877ZM418.251 132.506C418.251 131.295 419.276 130.982 420.233 130.914C420.585 130.89 421.381 130.846 421.63 130.836L421.62 130.416C421.62 129.82 421.259 129.469 420.546 129.469C419.931 129.469 419.56 129.752 419.452 130.143H418.417C418.515 129.264 419.335 128.629 420.585 128.629C421.425 128.629 422.665 128.941 422.665 130.475V134H421.649V133.277H421.61C421.405 133.678 420.917 134.117 420.038 134.117C419.032 134.117 418.251 133.541 418.251 132.506ZM419.267 132.516C419.267 133.023 419.687 133.287 420.272 133.287C421.122 133.287 421.63 132.721 421.63 132.086V131.598L420.38 131.686C419.696 131.734 419.267 131.988 419.267 132.516ZM424.75 126.93V134H423.705V126.93H424.75ZM427.889 131.305C427.879 133.15 427.362 134.684 426.444 135.992H425.487C426.161 135.016 426.805 133.053 426.805 131.305C426.805 129.566 426.161 127.594 425.487 126.627H426.444C427.362 127.936 427.879 129.469 427.889 131.305Z" fill="#353434"/>
<rect x="279.5" y="144.5" width="161" height="19" fill="#FFCECE"/>
<rect x="279.5" y="144.5" width="161" height="19" stroke="#9F4B4B"/>
<path d="M302.897 152.795C302.828 152.141 302.252 151.76 301.442 151.76C300.573 151.76 300.026 152.199 300.026 152.805C300.026 153.479 300.758 153.732 301.315 153.869L301.998 154.055C302.907 154.27 304.03 154.768 304.039 156.047C304.03 157.238 303.082 158.117 301.412 158.117C299.83 158.117 298.834 157.326 298.766 156.037H299.84C299.908 156.809 300.582 157.18 301.412 157.18C302.311 157.18 302.965 156.721 302.975 156.027C302.965 155.412 302.389 155.158 301.637 154.963L300.797 154.738C299.664 154.426 298.951 153.85 298.951 152.863C298.951 151.643 300.045 150.832 301.471 150.832C302.907 150.832 303.912 151.652 303.942 152.795H302.897ZM307.364 152.697V153.527H306.28V156.438C306.28 157.033 306.583 157.141 306.915 157.15C307.062 157.15 307.296 157.131 307.442 157.121V158.029C307.296 158.049 307.071 158.068 306.788 158.068C305.968 158.068 305.235 157.619 305.245 156.652V153.527H304.464V152.697H305.245V151.428H306.28V152.697H307.364ZM307.916 156.506C307.916 155.295 308.941 154.982 309.898 154.914C310.25 154.89 311.046 154.846 311.295 154.836L311.285 154.416C311.285 153.82 310.924 153.469 310.211 153.469C309.595 153.469 309.224 153.752 309.117 154.143H308.082C308.179 153.264 309 152.629 310.25 152.629C311.09 152.629 312.33 152.941 312.33 154.475V158H311.314V157.277H311.275C311.07 157.678 310.582 158.117 309.703 158.117C308.697 158.117 307.916 157.541 307.916 156.506ZM308.931 156.516C308.931 157.023 309.351 157.287 309.937 157.287C310.787 157.287 311.295 156.721 311.295 156.086V155.598L310.045 155.686C309.361 155.734 308.931 155.988 308.931 156.516ZM315.85 152.697V153.527H314.766V156.438C314.766 157.033 315.069 157.141 315.401 157.15C315.547 157.15 315.782 157.131 315.928 157.121V158.029C315.782 158.049 315.557 158.068 315.274 158.068C314.454 158.068 313.721 157.619 313.731 156.652V153.527H312.95V152.697H313.731V151.428H314.766V152.697H315.85ZM318.872 158.107C317.31 158.107 316.353 157.033 316.353 155.383C316.353 153.752 317.329 152.629 318.804 152.629C320.015 152.629 321.157 153.381 321.157 155.295V155.666H317.388C317.417 156.672 318.008 157.248 318.882 157.248C319.478 157.248 319.859 156.994 320.034 156.672H321.089C320.855 157.531 320.034 158.107 318.872 158.107ZM317.398 154.885H320.132C320.132 154.074 319.614 153.488 318.814 153.488C317.979 153.488 317.437 154.133 317.398 154.885ZM324.887 158H323.745L326.284 150.93H327.524L330.073 158H328.93L328.286 156.135H325.532L324.887 158ZM325.844 155.236H327.973L326.928 152.219H326.879L325.844 155.236ZM332.822 158.107C331.279 158.107 330.341 156.965 330.341 155.373C330.341 153.752 331.308 152.629 332.802 152.629C334.013 152.629 334.892 153.342 334.999 154.416H333.984C333.876 153.918 333.476 153.498 332.822 153.498C331.962 153.498 331.386 154.211 331.386 155.344C331.386 156.506 331.952 157.219 332.822 157.219C333.408 157.219 333.857 156.896 333.984 156.32H334.999C334.882 157.346 334.072 158.107 332.822 158.107ZM338.012 158.107C336.469 158.107 335.531 156.965 335.531 155.373C335.531 153.752 336.498 152.629 337.992 152.629C339.203 152.629 340.082 153.342 340.189 154.416H339.174C339.066 153.918 338.666 153.498 338.012 153.498C337.152 153.498 336.576 154.211 336.576 155.344C336.576 156.506 337.143 157.219 338.012 157.219C338.598 157.219 339.047 156.896 339.174 156.32H340.189C340.072 157.346 339.262 158.107 338.012 158.107ZM343.202 158.107C341.698 158.107 340.721 157.014 340.721 155.373C340.721 153.723 341.698 152.629 343.202 152.629C344.696 152.629 345.673 153.723 345.673 155.373C345.673 157.014 344.696 158.107 343.202 158.107ZM343.202 157.238C344.159 157.238 344.618 156.389 344.618 155.373C344.618 154.357 344.159 153.488 343.202 153.488C342.225 153.488 341.766 154.357 341.766 155.373C341.766 156.389 342.225 157.238 343.202 157.238ZM349.847 155.793V152.697H350.882V158H349.867V157.082H349.808C349.564 157.648 349.017 158.068 348.226 158.068C347.201 158.068 346.478 157.385 346.478 156.066V152.697H347.523V155.939C347.523 156.662 347.962 157.121 348.597 157.121C349.173 157.121 349.847 156.701 349.847 155.793ZM352.977 154.855V158H351.932V152.697H352.938V153.566H352.996C353.25 153 353.768 152.629 354.559 152.629C355.653 152.629 356.365 153.312 356.365 154.631V158H355.33V154.758C355.33 153.986 354.91 153.527 354.207 153.527C353.494 153.527 352.977 154.006 352.977 154.855ZM359.895 152.697V153.527H358.811V156.438C358.811 157.033 359.114 157.141 359.446 157.15C359.593 157.15 359.827 157.131 359.974 157.121V158.029C359.827 158.049 359.602 158.068 359.319 158.068C358.499 158.068 357.767 157.619 357.776 156.652V153.527H356.995V152.697H357.776V151.428H358.811V152.697H359.895ZM363.127 155.305C363.137 153.469 363.655 151.936 364.573 150.627H365.53C364.856 151.594 364.211 153.566 364.211 155.305C364.211 157.053 364.856 159.016 365.53 159.992H364.573C363.655 158.684 363.137 157.15 363.127 155.305ZM371.14 153.234C370.964 152.326 370.212 151.818 369.314 151.818C368.093 151.818 367.185 152.756 367.185 154.465C367.185 156.184 368.103 157.111 369.314 157.111C370.202 157.111 370.954 156.613 371.14 155.715L372.224 155.725C371.999 157.121 370.857 158.098 369.304 158.098C367.458 158.098 366.12 156.721 366.12 154.465C366.12 152.199 367.468 150.832 369.304 150.832C370.798 150.832 371.98 151.711 372.224 153.234H371.14ZM375.324 158.107C373.82 158.107 372.844 157.014 372.844 155.373C372.844 153.723 373.82 152.629 375.324 152.629C376.818 152.629 377.795 153.723 377.795 155.373C377.795 157.014 376.818 158.107 375.324 158.107ZM375.324 157.238C376.281 157.238 376.74 156.389 376.74 155.373C376.74 154.357 376.281 153.488 375.324 153.488C374.347 153.488 373.888 154.357 373.888 155.373C373.888 156.389 374.347 157.238 375.324 157.238ZM379.645 154.855V158H378.6V152.697H379.606V153.566H379.665C379.918 153 380.436 152.629 381.227 152.629C382.321 152.629 383.034 153.312 383.034 154.631V158H381.999V154.758C381.999 153.986 381.579 153.527 380.876 153.527C380.163 153.527 379.645 154.006 379.645 154.855ZM386.613 152.697V153.527H385.47V158H384.425V153.527H383.605V152.697H384.425V152.082C384.425 151.135 385.031 150.598 386.007 150.598C386.261 150.598 386.515 150.627 386.72 150.666V151.535C386.525 151.506 386.378 151.496 386.281 151.496C385.724 151.496 385.47 151.721 385.47 152.238V152.697H386.613ZM387.34 158V152.697H388.385V158H387.34ZM387.867 151.877C387.506 151.877 387.203 151.604 387.203 151.262C387.203 150.92 387.506 150.646 387.867 150.646C388.219 150.646 388.521 150.92 388.521 151.262C388.521 151.604 388.219 151.877 387.867 151.877ZM391.417 158.107C390.137 158.107 389.2 157.072 389.2 155.363C389.2 153.635 390.147 152.629 391.426 152.629C392.413 152.629 392.774 153.225 392.96 153.557H393.008V150.93H394.053V158H393.038V157.17H392.96C392.764 157.521 392.383 158.107 391.417 158.107ZM391.651 157.219C392.54 157.219 393.038 156.457 393.038 155.344C393.038 154.24 392.549 153.518 391.651 153.518C390.723 153.518 390.264 154.299 390.264 155.344C390.264 156.408 390.743 157.219 391.651 157.219ZM397.476 158.107C395.913 158.107 394.956 157.033 394.956 155.383C394.956 153.752 395.933 152.629 397.408 152.629C398.619 152.629 399.761 153.381 399.761 155.295V155.666H395.992C396.021 156.672 396.612 157.248 397.486 157.248C398.081 157.248 398.462 156.994 398.638 156.672H399.693C399.458 157.531 398.638 158.107 397.476 158.107ZM396.001 154.885H398.736C398.736 154.074 398.218 153.488 397.417 153.488C396.582 153.488 396.04 154.133 396.001 154.885ZM401.621 154.855V158H400.576V152.697H401.582V153.566H401.641C401.895 153 402.412 152.629 403.203 152.629C404.297 152.629 405.01 153.312 405.01 154.631V158H403.975V154.758C403.975 153.986 403.555 153.527 402.852 153.527C402.139 153.527 401.621 154.006 401.621 154.855ZM408.54 152.697V153.527H407.456V156.438C407.456 157.033 407.759 157.141 408.091 157.15C408.237 157.15 408.472 157.131 408.618 157.121V158.029C408.472 158.049 408.247 158.068 407.964 158.068C407.143 158.068 406.411 157.619 406.421 156.652V153.527H405.639V152.697H406.421V151.428H407.456V152.697H408.54ZM409.336 158V152.697H410.38V158H409.336ZM409.863 151.877C409.502 151.877 409.199 151.604 409.199 151.262C409.199 150.92 409.502 150.646 409.863 150.646C410.214 150.646 410.517 150.92 410.517 151.262C410.517 151.604 410.214 151.877 409.863 151.877ZM411.186 156.506C411.186 155.295 412.211 154.982 413.168 154.914C413.52 154.89 414.316 154.846 414.565 154.836L414.555 154.416C414.555 153.82 414.194 153.469 413.481 153.469C412.866 153.469 412.494 153.752 412.387 154.143H411.352C411.449 153.264 412.27 152.629 413.52 152.629C414.36 152.629 415.6 152.941 415.6 154.475V158H414.584V157.277H414.545C414.34 157.678 413.852 158.117 412.973 158.117C411.967 158.117 411.186 157.541 411.186 156.506ZM412.201 156.516C412.201 157.023 412.621 157.287 413.207 157.287C414.057 157.287 414.565 156.721 414.565 156.086V155.598L413.315 155.686C412.631 155.734 412.201 155.988 412.201 156.516ZM417.685 150.93V158H416.64V150.93H417.685ZM420.824 155.305C420.814 157.15 420.297 158.684 419.379 159.992H418.422C419.095 159.016 419.74 157.053 419.74 155.305C419.74 153.566 419.095 151.594 418.422 150.627H419.379C420.297 151.936 420.814 153.469 420.824 155.305Z" fill="#353434"/>
<path d="M279 106L271.043 102.58L272.06 111.181L279 106ZM177.5 118L177.588 118.745L272.385 107.537L272.297 106.793L272.209 106.048L177.412 117.255L177.5 118Z" fill="black"/>
<path d="M279 131L271.5 126.67L271.5 135.331L279 131ZM179 131.001L179 131.751L180 131.751L180 131.001L180 130.251L179 130.251L179 131.001ZM182 131.001L182 131.751L184 131.751L184 131.001L184 130.251L182 130.251L182 131.001ZM186 131.001L186 131.751L188 131.751L188 131.001L188 130.251L186 130.251L186 131.001ZM190 131.001L190 131.751L192 131.751L192 131.001L192 130.251L190 130.251L190 131.001ZM194 131.001L194 131.751L196 131.751L196 131.001L196 130.251L194 130.251L194 131.001ZM198 131.001L198 131.751L200 131.751L200 131.001L200 130.251L198 130.251L198 131.001ZM202 131.001L202 131.751L204 131.751L204 131.001L204 130.251L202 130.251L202 131.001ZM206 131.001L206 131.751L208 131.751L208 131.001L208 130.251L206 130.251L206 131.001ZM210 131.001L210 131.751L212 131.751L212 131.001L212 130.251L210 130.251L210 131.001ZM214 131.001L214 131.751L216 131.751L216 131.001L216 130.251L214 130.251L214 131.001ZM218 131.001L218 131.751L220 131.751L220 131.001L220 130.251L218 130.251L218 131.001ZM222 131.001L222 131.751L224 131.751L224 131.001L224 130.251L222 130.251L222 131.001ZM226 131.001L226 131.751L228 131.751L228 131.001L228 130.251L226 130.251L226 131.001ZM230 131.001L230 131.751L232 131.751L232 131.001L232 130.251L230 130.251L230 131.001ZM234 131.001L234 131.751L236 131.751L236 131.001L236 130.251L234 130.251L234 131.001ZM238 131.001L238 131.751L240 131.751L240 131.001L240 130.251L238 130.251L238 131.001ZM242 131L242 131.75L244 131.75L244 131L244 130.25L242 130.25L242 131ZM246 131L246 131.75L248 131.75L248 131L248 130.25L246 130.25L246 131ZM250 131L250 131.75L252 131.75L252 131L252 130.25L250 130.25L250 131ZM254 131L254 131.75L256 131.75L256 131L256 130.25L254 130.25L254 131ZM258 131L258 131.75L260 131.75L260 131L260 130.25L258 130.25L258 131ZM262 131L262 131.75L264 131.75L264 131L264 130.25L262 130.25L262 131ZM266 131L266 131.75L268 131.75L268 131L268 130.25L266 130.25L266 131ZM270 131L270 131.75L272 131.75L272 131L272 130.25L270 130.25L270 131ZM274 131L274 131.75L276 131.75L276 131L276 130.25L274 130.25L274 131Z" fill="black"/>
<rect width="60" height="20" transform="translate(28 114)" fill="black"/>
<path d="M120 124L112.5 119.67V128.33L120 124ZM88 124V124.75H113.25V124V123.25H88V124Z" fill="black"/>
<rect width="60" height="20" transform="translate(120 114)" fill="black"/>
<rect width="60" height="20" transform="translate(538 90)" fill="black"/>
<path d="M630 100L622.5 95.6699V104.33L630 100ZM598 100V100.75H623.25V100V99.25H598V100Z" fill="black"/>
<rect width="60" height="20" transform="translate(630 90)" fill="black"/>
<path d="M538 96L531.195 90.6429L529.958 99.2143L538 96ZM441 82L440.893 82.7423L531.212 95.7781L531.319 95.0358L531.426 94.2935L441.107 81.2577L441 82Z" fill="black"/>
<path d="M538 106L530.5 101.67V110.33L538 106ZM441 106V106.75H531.25V106V105.25H441V106Z" fill="black"/>
<path d="M188.527 122.873C188.469 122.268 187.951 121.916 187.189 121.916C186.389 121.916 185.9 122.307 185.9 122.834C185.9 123.43 186.525 123.674 187.111 123.811L187.775 123.986C188.83 124.23 189.846 124.787 189.846 126.018C189.846 127.258 188.869 128.107 187.17 128.107C185.519 128.107 184.484 127.316 184.426 125.92H185.676C185.734 126.662 186.359 127.023 187.16 127.023C188 127.023 188.576 126.613 188.576 126.008C188.576 125.451 188.059 125.217 187.297 125.021L186.496 124.816C185.334 124.514 184.611 123.928 184.611 122.912C184.611 121.662 185.725 120.832 187.209 120.832C188.713 120.832 189.728 121.682 189.748 122.873H188.527ZM192.975 128.107C191.374 128.107 190.397 127.043 190.397 125.383C190.397 123.742 191.393 122.629 192.907 122.629C194.206 122.629 195.329 123.439 195.329 125.305V125.695H191.628C191.642 126.599 192.174 127.131 192.985 127.131C193.532 127.131 193.903 126.896 194.059 126.584H195.28C195.055 127.502 194.206 128.107 192.975 128.107ZM191.637 124.846H194.137C194.128 124.123 193.649 123.596 192.926 123.596C192.174 123.596 191.676 124.167 191.637 124.846ZM197.326 124.895V128H196.076V122.697H197.267V123.596H197.335C197.579 123 198.117 122.629 198.908 122.629C200.011 122.629 200.734 123.352 200.724 124.621V128H199.484V124.816C199.484 124.104 199.103 123.684 198.449 123.684C197.785 123.684 197.326 124.123 197.326 124.895ZM204.703 124.211C204.625 123.811 204.293 123.557 203.766 123.557C203.229 123.557 202.838 123.82 202.848 124.182C202.838 124.455 203.063 124.66 203.6 124.787L204.498 124.973C205.504 125.197 205.983 125.656 205.992 126.418C205.983 127.414 205.113 128.107 203.727 128.107C202.379 128.107 201.578 127.502 201.451 126.486H202.721C202.799 126.936 203.151 127.16 203.727 127.16C204.322 127.16 204.723 126.916 204.723 126.525C204.723 126.223 204.479 126.027 203.951 125.91L203.102 125.725C202.115 125.529 201.608 125.012 201.608 124.25C201.608 123.273 202.447 122.629 203.746 122.629C205.016 122.629 205.797 123.244 205.885 124.211H204.703ZM206.72 128V122.697H207.97V128H206.72ZM207.354 121.945C206.964 121.945 206.632 121.643 206.632 121.262C206.632 120.891 206.964 120.588 207.354 120.588C207.755 120.588 208.077 120.891 208.077 121.262C208.077 121.643 207.755 121.945 207.354 121.945ZM211.587 122.697V123.654H210.543V126.408C210.543 126.916 210.796 127.023 211.109 127.023C211.255 127.023 211.5 127.014 211.656 127.004V128.02C211.509 128.049 211.265 128.068 210.953 128.068C210.015 128.068 209.293 127.609 209.302 126.613V123.654H208.541V122.697H209.302V121.428H210.543V122.697H211.587ZM212.324 128V122.697H213.574V128H212.324ZM212.959 121.945C212.569 121.945 212.237 121.643 212.237 121.262C212.237 120.891 212.569 120.588 212.959 120.588C213.36 120.588 213.682 120.891 213.682 121.262C213.682 121.643 213.36 121.945 212.959 121.945ZM219.282 122.697L217.388 128H216.021L214.126 122.697H215.454L216.675 126.643H216.733L217.964 122.697H219.282ZM222.011 128.107C220.41 128.107 219.433 127.043 219.433 125.383C219.433 123.742 220.429 122.629 221.943 122.629C223.242 122.629 224.365 123.439 224.365 125.305V125.695H220.664C220.678 126.599 221.211 127.131 222.021 127.131C222.568 127.131 222.939 126.896 223.095 126.584H224.316C224.092 127.502 223.242 128.107 222.011 128.107ZM220.674 124.846H223.174C223.164 124.123 222.685 123.596 221.963 123.596C221.211 123.596 220.713 124.167 220.674 124.846ZM227.323 128V120.93H228.593V126.926H231.718V128H227.323ZM234.769 128.107C233.226 128.107 232.23 127.014 232.23 125.373C232.23 123.723 233.226 122.629 234.769 122.629C236.322 122.629 237.308 123.723 237.308 125.373C237.308 127.014 236.322 128.107 234.769 128.107ZM234.779 127.111C235.629 127.111 236.049 126.34 236.049 125.363C236.049 124.396 235.629 123.615 234.779 123.615C233.91 123.615 233.49 124.396 233.49 125.363C233.49 126.34 233.91 127.111 234.779 127.111ZM240.37 130.1C238.963 130.1 238.075 129.475 237.987 128.479H239.227C239.315 128.938 239.754 129.162 240.389 129.162C241.131 129.162 241.62 128.84 241.62 128.059V127.043H241.561C241.366 127.434 240.946 127.922 240.028 127.922C238.807 127.922 237.84 127.033 237.84 125.305C237.84 123.557 238.807 122.629 240.038 122.629C240.975 122.629 241.366 123.186 241.561 123.566H241.62V122.697H242.85V128.088C242.85 129.445 241.805 130.1 240.37 130.1ZM240.37 126.945C241.171 126.945 241.629 126.34 241.629 125.324C241.629 124.318 241.18 123.645 240.37 123.645C239.54 123.645 239.11 124.357 239.11 125.324C239.11 126.301 239.549 126.945 240.37 126.945ZM243.822 128V122.697H245.072V128H243.822ZM244.456 121.945C244.066 121.945 243.734 121.643 243.734 121.262C243.734 120.891 244.066 120.588 244.456 120.588C244.857 120.588 245.179 120.891 245.179 121.262C245.179 121.643 244.857 121.945 244.456 121.945ZM248.357 128.107C246.775 128.107 245.818 126.975 245.818 125.373C245.818 123.752 246.805 122.629 248.357 122.629C249.647 122.629 250.545 123.381 250.633 124.523H249.441C249.344 124.016 248.973 123.625 248.367 123.625C247.596 123.625 247.078 124.279 247.078 125.344C247.078 126.438 247.586 127.092 248.367 127.092C248.924 127.092 249.334 126.77 249.441 126.193H250.633C250.535 127.316 249.686 128.107 248.357 128.107Z" fill="#2B2B2B"/>
<path d="M602.197 145.465C602.197 147.75 600.81 149.098 598.954 149.098C597.099 149.098 595.712 147.74 595.712 145.465C595.712 143.18 597.099 141.832 598.954 141.832C600.81 141.832 602.197 143.18 602.197 145.465ZM600.917 145.465C600.917 143.854 600.107 142.975 598.954 142.975C597.802 142.975 596.992 143.854 596.992 145.465C596.992 147.076 597.802 147.955 598.954 147.955C600.107 147.955 600.917 147.076 600.917 145.465ZM603.051 149V143.697H604.262V144.576H604.32C604.506 143.971 605.024 143.619 605.629 143.619C605.766 143.619 605.961 143.629 606.078 143.648V144.801C605.971 144.762 605.707 144.723 605.502 144.723C604.809 144.723 604.301 145.201 604.301 145.875V149H603.051ZM606.259 147.506C606.259 146.314 607.245 145.963 608.231 145.904C608.598 145.88 609.359 145.836 609.589 145.826V145.406C609.589 144.879 609.247 144.576 608.632 144.576C608.075 144.576 607.733 144.83 607.636 145.211H606.434C606.522 144.312 607.333 143.629 608.661 143.629C609.667 143.629 610.829 144.039 610.829 145.455V149H609.638V148.268H609.598C609.364 148.717 608.866 149.107 608.036 149.107C607.02 149.107 606.259 148.551 606.259 147.506ZM607.46 147.496C607.46 147.955 607.831 148.189 608.358 148.189C609.11 148.189 609.598 147.691 609.598 147.096V146.656L608.427 146.734C607.831 146.783 607.46 147.027 607.46 147.496ZM614.095 149.107C612.513 149.107 611.556 147.975 611.556 146.373C611.556 144.752 612.543 143.629 614.095 143.629C615.384 143.629 616.283 144.381 616.371 145.523H615.179C615.082 145.016 614.711 144.625 614.105 144.625C613.334 144.625 612.816 145.279 612.816 146.344C612.816 147.438 613.324 148.092 614.105 148.092C614.662 148.092 615.072 147.77 615.179 147.193H616.371C616.273 148.316 615.423 149.107 614.095 149.107ZM618.338 141.93V149H617.088V141.93H618.338ZM621.663 149.107C620.062 149.107 619.085 148.043 619.085 146.383C619.085 144.742 620.081 143.629 621.595 143.629C622.894 143.629 624.017 144.439 624.017 146.305V146.695H620.315C620.33 147.599 620.862 148.131 621.673 148.131C622.22 148.131 622.591 147.896 622.747 147.584H623.968C623.743 148.502 622.894 149.107 621.663 149.107ZM620.325 145.846H622.825C622.815 145.123 622.337 144.596 621.614 144.596C620.862 144.596 620.364 145.167 620.325 145.846ZM630.823 143.873C630.764 143.268 630.247 142.916 629.485 142.916C628.684 142.916 628.196 143.307 628.196 143.834C628.196 144.43 628.821 144.674 629.407 144.811L630.071 144.986C631.125 145.23 632.141 145.787 632.141 147.018C632.141 148.258 631.164 149.107 629.465 149.107C627.815 149.107 626.78 148.316 626.721 146.92H627.971C628.03 147.662 628.655 148.023 629.456 148.023C630.295 148.023 630.872 147.613 630.872 147.008C630.872 146.451 630.354 146.217 629.592 146.021L628.791 145.816C627.629 145.514 626.907 144.928 626.907 143.912C626.907 142.662 628.02 141.832 629.504 141.832C631.008 141.832 632.024 142.682 632.043 143.873H630.823ZM633.669 150.992C633.425 150.992 633.181 150.982 633.025 150.963V149.967C633.181 149.977 633.386 149.986 633.552 149.986C633.855 149.986 634.109 149.957 634.323 149.391L634.431 149.107L632.497 143.697H633.816L635.046 147.701H635.105L636.335 143.697H637.653L635.525 149.645C635.222 150.494 634.665 150.992 633.669 150.992ZM639.465 145.895V149H638.215V143.697H639.406V144.596H639.474C639.719 144 640.256 143.629 641.047 143.629C642.15 143.629 642.873 144.352 642.863 145.621V149H641.623V145.816C641.623 145.104 641.242 144.684 640.588 144.684C639.924 144.684 639.465 145.123 639.465 145.895ZM646.149 149.107C644.567 149.107 643.61 147.975 643.61 146.373C643.61 144.752 644.596 143.629 646.149 143.629C647.438 143.629 648.337 144.381 648.424 145.523H647.233C647.135 145.016 646.764 144.625 646.159 144.625C645.387 144.625 644.87 145.279 644.87 146.344C644.87 147.438 645.378 148.092 646.159 148.092C646.715 148.092 647.126 147.77 647.233 147.193H648.424C648.327 148.316 647.477 149.107 646.149 149.107Z" fill="#2B2B2B"/>
<rect width="320" height="68" transform="translate(380 188)" fill="#FFCECE"/>
<path d="M587 231L579.5 226.67V235.33L587 231ZM517 231V231.75L580.25 231.75V231V230.25L517 230.25V231Z" fill="black"/>
<rect width="60" height="20" transform="translate(587 221)" fill="black"/>
<path d="M470.473 203.312C470.326 202.463 469.642 201.975 468.783 201.975C467.621 201.975 466.81 202.863 466.81 204.465C466.81 206.086 467.631 206.955 468.783 206.955C469.623 206.955 470.306 206.486 470.473 205.656H471.752C471.556 207.014 470.443 208.098 468.764 208.098C466.898 208.098 465.531 206.74 465.531 204.465C465.531 202.18 466.918 200.832 468.764 200.832C470.326 200.832 471.537 201.74 471.752 203.312H470.473ZM474.881 208.107C473.338 208.107 472.342 207.014 472.342 205.373C472.342 203.723 473.338 202.629 474.881 202.629C476.434 202.629 477.42 203.723 477.42 205.373C477.42 207.014 476.434 208.107 474.881 208.107ZM474.891 207.111C475.741 207.111 476.161 206.34 476.161 205.363C476.161 204.396 475.741 203.615 474.891 203.615C474.022 203.615 473.602 204.396 473.602 205.363C473.602 206.34 474.022 207.111 474.891 207.111ZM479.417 204.895V208H478.167V202.697H479.359V203.596H479.427C479.671 203 480.208 202.629 480.999 202.629C482.103 202.629 482.825 203.352 482.816 204.621V208H481.575V204.816C481.575 204.104 481.195 203.684 480.54 203.684C479.876 203.684 479.417 204.123 479.417 204.895ZM486.473 202.697V203.654H485.379V208H484.129V203.654H483.338V202.697H484.129V202.189C484.129 201.154 484.773 200.598 485.789 200.598C486.082 200.598 486.346 200.627 486.58 200.676V201.662C486.375 201.633 486.219 201.623 486.131 201.623C485.623 201.623 485.379 201.828 485.379 202.307V202.697H486.473ZM487.141 208V202.697H488.391V208H487.141ZM487.776 201.945C487.385 201.945 487.053 201.643 487.053 201.262C487.053 200.891 487.385 200.588 487.776 200.588C488.176 200.588 488.499 200.891 488.499 201.262C488.499 201.643 488.176 201.945 487.776 201.945ZM491.335 208.098C490.085 208.098 489.148 207.102 489.148 205.354C489.148 203.586 490.115 202.629 491.345 202.629C492.283 202.629 492.673 203.186 492.859 203.566H492.908V200.93H494.148V208H492.927V207.16H492.859C492.664 207.551 492.253 208.098 491.335 208.098ZM491.677 207.072C492.478 207.072 492.937 206.379 492.937 205.344C492.937 204.318 492.488 203.645 491.677 203.645C490.847 203.645 490.417 204.357 490.417 205.344C490.417 206.35 490.857 207.072 491.677 207.072ZM497.541 208.107C495.94 208.107 494.963 207.043 494.963 205.383C494.963 203.742 495.959 202.629 497.473 202.629C498.772 202.629 499.895 203.439 499.895 205.305V205.695H496.194C496.208 206.599 496.74 207.131 497.551 207.131C498.098 207.131 498.469 206.896 498.625 206.584H499.846C499.621 207.502 498.772 208.107 497.541 208.107ZM496.203 204.846H498.703C498.694 204.123 498.215 203.596 497.492 203.596C496.74 203.596 496.242 204.167 496.203 204.846ZM501.891 204.895V208H500.641V202.697H501.833V203.596H501.901C502.145 203 502.683 202.629 503.474 202.629C504.577 202.629 505.3 203.352 505.29 204.621V208H504.05V204.816C504.05 204.104 503.669 203.684 503.015 203.684C502.35 203.684 501.891 204.123 501.891 204.895ZM508.908 202.697V203.654H507.863V206.408C507.863 206.916 508.117 207.023 508.429 207.023C508.576 207.023 508.82 207.014 508.976 207.004V208.02C508.83 208.049 508.586 208.068 508.273 208.068C507.336 208.068 506.613 207.609 506.623 206.613V203.654H505.861V202.697H506.623V201.428H507.863V202.697H508.908ZM509.645 208V202.697H510.895V208H509.645ZM510.28 201.945C509.889 201.945 509.557 201.643 509.557 201.262C509.557 200.891 509.889 200.588 510.28 200.588C510.68 200.588 511.002 200.891 511.002 201.262C511.002 201.643 510.68 201.945 510.28 201.945ZM511.622 206.506C511.622 205.314 512.608 204.963 513.595 204.904C513.961 204.88 514.723 204.836 514.952 204.826V204.406C514.952 203.879 514.61 203.576 513.995 203.576C513.439 203.576 513.097 203.83 512.999 204.211H511.798C511.886 203.312 512.696 202.629 514.024 202.629C515.03 202.629 516.192 203.039 516.192 204.455V208H515.001V207.268H514.962C514.728 207.717 514.23 208.107 513.399 208.107C512.384 208.107 511.622 207.551 511.622 206.506ZM512.823 206.496C512.823 206.955 513.194 207.189 513.722 207.189C514.474 207.189 514.962 206.691 514.962 206.096V205.656L513.79 205.734C513.194 205.783 512.823 206.027 512.823 206.496ZM518.394 200.93V208H517.144V200.93H518.394ZM526.343 203.312C526.196 202.463 525.513 201.975 524.654 201.975C523.491 201.975 522.681 202.863 522.681 204.465C522.681 206.086 523.501 206.955 524.654 206.955C525.493 206.955 526.177 206.486 526.343 205.656H527.622C527.427 207.014 526.314 208.098 524.634 208.098C522.769 208.098 521.402 206.74 521.402 204.465C521.402 202.18 522.788 200.832 524.634 200.832C526.196 200.832 527.407 201.74 527.622 203.312H526.343ZM530.752 208.107C529.209 208.107 528.213 207.014 528.213 205.373C528.213 203.723 529.209 202.629 530.752 202.629C532.305 202.629 533.291 203.723 533.291 205.373C533.291 207.014 532.305 208.107 530.752 208.107ZM530.762 207.111C531.611 207.111 532.031 206.34 532.031 205.363C532.031 204.396 531.611 203.615 530.762 203.615C529.893 203.615 529.473 204.396 529.473 205.363C529.473 206.34 529.893 207.111 530.762 207.111ZM534.038 209.992V202.697H535.258V203.566H535.337C535.532 203.186 535.923 202.629 536.86 202.629C538.081 202.629 539.048 203.586 539.048 205.354C539.048 207.102 538.11 208.098 536.86 208.098C535.942 208.098 535.532 207.551 535.337 207.16H535.288V209.992H534.038ZM535.258 205.344C535.258 206.379 535.708 207.072 536.518 207.072C537.339 207.072 537.778 206.35 537.778 205.344C537.778 204.357 537.348 203.645 536.518 203.645C535.708 203.645 535.258 204.318 535.258 205.344ZM539.804 208V202.697H541.015V203.576H541.074C541.259 202.971 541.777 202.619 542.382 202.619C542.519 202.619 542.714 202.629 542.831 202.648V203.801C542.724 203.762 542.46 203.723 542.255 203.723C541.562 203.723 541.054 204.201 541.054 204.875V208H539.804ZM545.492 208.107C543.949 208.107 542.953 207.014 542.953 205.373C542.953 203.723 543.949 202.629 545.492 202.629C547.045 202.629 548.031 203.723 548.031 205.373C548.031 207.014 547.045 208.107 545.492 208.107ZM545.502 207.111C546.352 207.111 546.772 206.34 546.772 205.363C546.772 204.396 546.352 203.615 545.502 203.615C544.633 203.615 544.213 204.396 544.213 205.363C544.213 206.34 544.633 207.111 545.502 207.111ZM551.093 208.107C549.511 208.107 548.554 206.975 548.554 205.373C548.554 203.752 549.54 202.629 551.093 202.629C552.382 202.629 553.28 203.381 553.368 204.523H552.177C552.079 204.016 551.708 203.625 551.102 203.625C550.331 203.625 549.813 204.279 549.813 205.344C549.813 206.438 550.321 207.092 551.102 207.092C551.659 207.092 552.069 206.77 552.177 206.193H553.368C553.27 207.316 552.421 208.107 551.093 208.107ZM556.439 208.107C554.837 208.107 553.861 207.043 553.861 205.383C553.861 203.742 554.857 202.629 556.371 202.629C557.669 202.629 558.793 203.439 558.793 205.305V205.695H555.091C555.106 206.599 555.638 207.131 556.449 207.131C556.996 207.131 557.367 206.896 557.523 206.584H558.744C558.519 207.502 557.669 208.107 556.439 208.107ZM555.101 204.846H557.601C557.591 204.123 557.113 203.596 556.39 203.596C555.638 203.596 555.14 204.167 555.101 204.846ZM562.547 204.211C562.469 203.811 562.137 203.557 561.61 203.557C561.073 203.557 560.682 203.82 560.692 204.182C560.682 204.455 560.906 204.66 561.444 204.787L562.342 204.973C563.348 205.197 563.826 205.656 563.836 206.418C563.826 207.414 562.957 208.107 561.571 208.107C560.223 208.107 559.422 207.502 559.295 206.486H560.565C560.643 206.936 560.994 207.16 561.571 207.16C562.166 207.16 562.567 206.916 562.567 206.525C562.567 206.223 562.323 206.027 561.795 205.91L560.946 205.725C559.959 205.529 559.451 205.012 559.451 204.25C559.451 203.273 560.291 202.629 561.59 202.629C562.86 202.629 563.641 203.244 563.729 204.211H562.547ZM567.571 204.211C567.493 203.811 567.161 203.557 566.634 203.557C566.097 203.557 565.706 203.82 565.716 204.182C565.706 204.455 565.931 204.66 566.468 204.787L567.366 204.973C568.372 205.197 568.851 205.656 568.86 206.418C568.851 207.414 567.981 208.107 566.595 208.107C565.247 208.107 564.446 207.502 564.319 206.486H565.589C565.667 206.936 566.019 207.16 566.595 207.16C567.19 207.16 567.591 206.916 567.591 206.525C567.591 206.223 567.347 206.027 566.819 205.91L565.97 205.725C564.983 205.529 564.476 205.012 564.476 204.25C564.476 203.273 565.315 202.629 566.614 202.629C567.884 202.629 568.665 203.244 568.753 204.211H567.571ZM571.902 208.107C570.359 208.107 569.363 207.014 569.363 205.373C569.363 203.723 570.359 202.629 571.902 202.629C573.455 202.629 574.441 203.723 574.441 205.373C574.441 207.014 573.455 208.107 571.902 208.107ZM571.912 207.111C572.761 207.111 573.181 206.34 573.181 205.363C573.181 204.396 572.761 203.615 571.912 203.615C571.043 203.615 570.623 204.396 570.623 205.363C570.623 206.34 571.043 207.111 571.912 207.111ZM575.188 208V202.697H576.399V203.576H576.457C576.643 202.971 577.161 202.619 577.766 202.619C577.903 202.619 578.098 202.629 578.215 202.648V203.801C578.108 203.762 577.844 203.723 577.639 203.723C576.946 203.723 576.438 204.201 576.438 204.875V208H575.188ZM581.115 205.305C581.115 203.469 581.662 201.936 582.58 200.627H583.752C583.078 201.594 582.404 203.557 582.404 205.305C582.404 207.053 583.078 209.016 583.752 209.992H582.58C581.662 208.674 581.115 207.15 581.115 205.305ZM584.469 208V200.93H589.001V201.994H585.739V203.928H588.688V204.992H585.739V208H584.469ZM589.855 208V200.93H591.124V203.928H594.415V200.93H595.695V208H594.415V204.992H591.124V208H589.855ZM596.783 208V200.93H601.383V201.994H598.053V203.928H601.139V204.992H598.053V206.926H601.402V208H596.783ZM605.186 200.93V208H603.907V202.17H603.868L602.217 203.225V202.062L603.966 200.93H605.186ZM609.331 208.098C607.955 208.088 606.568 207.268 606.578 204.66C606.578 202.238 607.681 200.832 609.41 200.832C610.777 200.832 611.714 201.691 611.871 202.834H610.611C610.484 202.297 610.054 201.936 609.41 201.936C608.384 201.936 607.808 202.844 607.808 204.328H607.876C608.238 203.723 608.921 203.361 609.693 203.361C610.962 203.361 611.939 204.318 611.939 205.656C611.939 207.062 610.894 208.107 609.331 208.098ZM609.331 207.072C610.122 207.072 610.708 206.457 610.708 205.686C610.708 204.934 610.132 204.328 609.351 204.328C608.56 204.328 607.955 204.953 607.945 205.695C607.955 206.438 608.531 207.072 609.331 207.072ZM615.127 205.305C615.127 207.15 614.58 208.674 613.662 209.992H612.49C613.164 209.016 613.838 207.053 613.838 205.305C613.838 203.557 613.164 201.594 612.49 200.627H613.662C614.58 201.936 615.127 203.469 615.127 205.305Z" fill="black"/>
<rect x="432.5" y="221.5" width="84" height="19" fill="#B9FFB4"/>
<rect x="432.5" y="221.5" width="84" height="19" stroke="#585858"/>
<path d="M445.148 235V227.93H449.533V228.857H446.223V230.996H449.221V231.914H446.223V235H445.148ZM450.514 235V227.93H451.589V230.996H455.104V227.93H456.178V235H455.104V231.914H451.589V235H450.514ZM457.404 235V227.93H461.837V228.857H458.478V230.996H461.603V231.914H458.478V234.072H461.876V235H457.404ZM465.524 227.93V235H464.44V229.004H464.401L462.711 230.107V229.082L464.469 227.93H465.524ZM469.659 235.098C468.351 235.088 466.983 234.316 466.983 231.699C466.983 229.238 468.048 227.832 469.747 227.832C471.046 227.832 471.954 228.643 472.12 229.766H471.056C470.919 229.189 470.46 228.77 469.747 228.77C468.653 228.77 468.018 229.727 468.018 231.318H468.097C468.477 230.723 469.142 230.361 469.913 230.361C471.173 230.361 472.188 231.328 472.188 232.686C472.188 234.053 471.183 235.107 469.659 235.098ZM469.649 234.199C470.509 234.199 471.143 233.535 471.143 232.705C471.143 231.895 470.528 231.24 469.679 231.24C468.809 231.24 468.155 231.924 468.145 232.715C468.155 233.496 468.78 234.199 469.649 234.199ZM475.43 235V227.93H479.864V228.857H476.504V230.996H479.629V231.914H476.504V234.072H479.903V235H475.43ZM481.919 231.855V235H480.874V229.697H481.88V230.566H481.939C482.192 230 482.71 229.629 483.501 229.629C484.595 229.629 485.308 230.312 485.308 231.631V235H484.273V231.758C484.273 230.986 483.853 230.527 483.149 230.527C482.437 230.527 481.919 231.006 481.919 231.855ZM488.584 237.1C487.246 237.1 486.367 236.504 486.269 235.518H487.334C487.431 236.016 487.9 236.26 488.594 236.26C489.424 236.26 489.951 235.908 489.951 235.078V234.033H489.883C489.697 234.375 489.316 234.922 488.34 234.922C487.09 234.922 486.123 233.984 486.123 232.295C486.123 230.605 487.07 229.629 488.349 229.629C489.336 229.629 489.697 230.225 489.892 230.557H489.961V229.697H490.976V235.117C490.976 236.475 489.951 237.1 488.584 237.1ZM488.574 234.062C489.463 234.062 489.961 233.408 489.961 232.314C489.961 231.24 489.472 230.518 488.574 230.518C487.646 230.518 487.187 231.299 487.187 232.314C487.187 233.35 487.666 234.062 488.574 234.062ZM492.026 235V229.697H493.071V235H492.026ZM492.553 228.877C492.192 228.877 491.889 228.604 491.889 228.262C491.889 227.92 492.192 227.646 492.553 227.646C492.905 227.646 493.208 227.92 493.208 228.262C493.208 228.604 492.905 228.877 492.553 228.877ZM495.165 231.855V235H494.12V229.697H495.126V230.566H495.185C495.439 230 495.956 229.629 496.747 229.629C497.841 229.629 498.554 230.312 498.554 231.631V235H497.519V231.758C497.519 230.986 497.099 230.527 496.396 230.527C495.683 230.527 495.165 231.006 495.165 231.855ZM501.889 235.107C500.326 235.107 499.369 234.033 499.369 232.383C499.369 230.752 500.346 229.629 501.82 229.629C503.031 229.629 504.174 230.381 504.174 232.295V232.666H500.404C500.434 233.672 501.024 234.248 501.898 234.248C502.494 234.248 502.875 233.994 503.051 233.672H504.105C503.871 234.531 503.051 235.107 501.889 235.107ZM500.414 231.885H503.148C503.148 231.074 502.631 230.488 501.83 230.488C500.995 230.488 500.453 231.133 500.414 231.885Z" fill="#353434"/>
<path d="M568.001 109.5L567.946 118.16L575.473 113.877L568.001 109.5ZM632.004 222L632.656 221.629L632.156 220.75L631.504 221.121L630.852 221.492L631.353 222.371L632.004 222ZM630.504 219.364L631.156 218.993L630.156 217.235L629.504 217.606L628.852 217.977L629.852 219.734L630.504 219.364ZM628.504 215.848L629.156 215.477L628.156 213.719L627.504 214.09L626.852 214.461L627.852 216.219L628.504 215.848ZM626.504 212.332L627.156 211.961L626.156 210.204L625.504 210.574L624.852 210.945L625.852 212.703L626.504 212.332ZM624.504 208.817L625.156 208.446L624.156 206.688L623.504 207.059L622.852 207.43L623.852 209.187L624.504 208.817ZM622.504 205.301L623.156 204.93L622.156 203.172L621.504 203.543L620.852 203.914L621.852 205.672L622.504 205.301ZM620.504 201.785L621.156 201.414L620.156 199.657L619.504 200.027L618.852 200.398L619.852 202.156L620.504 201.785ZM618.504 198.27L619.155 197.899L618.155 196.141L617.504 196.512L616.852 196.883L617.852 198.641L618.504 198.27ZM616.503 194.754L617.155 194.383L616.155 192.625L615.503 192.996L614.852 193.367L615.852 195.125L616.503 194.754ZM614.503 191.238L615.155 190.868L614.155 189.11L613.503 189.481L612.851 189.851L613.851 191.609L614.503 191.238ZM612.503 187.723L613.155 187.352L612.155 185.594L611.503 185.965L610.851 186.336L611.851 188.094L612.503 187.723ZM610.503 184.207L611.155 183.836L610.155 182.078L609.503 182.449L608.851 182.82L609.851 184.578L610.503 184.207ZM608.503 180.691L609.155 180.321L608.155 178.563L607.503 178.934L606.851 179.305L607.851 181.062L608.503 180.691ZM606.503 177.176L607.155 176.805L606.155 175.047L605.503 175.418L604.851 175.789L605.851 177.547L606.503 177.176ZM604.503 173.66L605.155 173.289L604.155 171.532L603.503 171.902L602.851 172.273L603.851 174.031L604.503 173.66ZM602.503 170.145L603.155 169.774L602.154 168.016L601.503 168.387L600.851 168.758L601.851 170.515L602.503 170.145ZM600.503 166.629L601.154 166.258L600.154 164.5L599.502 164.871L598.851 165.242L599.851 167L600.503 166.629ZM598.502 163.113L599.154 162.742L598.154 160.985L597.502 161.356L596.85 161.726L597.851 163.484L598.502 163.113ZM596.502 159.598L597.154 159.227L596.154 157.469L595.502 157.84L594.85 158.211L595.85 159.969L596.502 159.598ZM594.502 156.082L595.154 155.711L594.154 153.953L593.502 154.324L592.85 154.695L593.85 156.453L594.502 156.082ZM592.502 152.566L593.154 152.196L592.154 150.438L591.502 150.809L590.85 151.179L591.85 152.937L592.502 152.566ZM590.502 149.051L591.154 148.68L590.154 146.922L589.502 147.293L588.85 147.664L589.85 149.422L590.502 149.051ZM588.502 145.535L589.154 145.164L588.154 143.406L587.502 143.777L586.85 144.148L587.85 145.906L588.502 145.535ZM586.502 142.02L587.154 141.649L586.154 139.891L585.502 140.262L584.85 140.633L585.85 142.39L586.502 142.02ZM584.502 138.504L585.153 138.133L584.153 136.375L583.502 136.746L582.85 137.117L583.85 138.875L584.502 138.504ZM582.501 134.988L583.153 134.617L582.153 132.86L581.501 133.23L580.85 133.601L581.85 135.359L582.501 134.988ZM580.501 131.473L581.153 131.102L580.153 129.344L579.501 129.715L578.849 130.086L579.849 131.843L580.501 131.473ZM578.501 127.957L579.153 127.586L578.153 125.828L577.501 126.199L576.849 126.57L577.849 128.328L578.501 127.957ZM576.501 124.441L577.153 124.07L576.153 122.313L575.501 122.684L574.849 123.054L575.849 124.812L576.501 124.441ZM574.501 120.926L575.153 120.555L574.153 118.797L573.501 119.168L572.849 119.539L573.849 121.297L574.501 120.926ZM572.501 117.41L573.153 117.039L572.153 115.281L571.501 115.652L570.849 116.023L571.849 117.781L572.501 117.41ZM570.501 113.894L571.153 113.524L570.153 111.766L569.501 112.137L568.849 112.507L569.849 114.265L570.501 113.894Z" fill="black"/>
<path d="M433.087 222.074L429.735 214.089L424.495 220.984L433.087 222.074ZM356 163.5L355.546 164.097L427.259 218.587L427.712 217.99L428.166 217.393L356.454 162.903L356 163.5Z" fill="black"/>
<path d="M455.503 222L459.833 214.5L451.173 214.5L455.503 222ZM455.501 130L456.251 130L456.251 129.25L455.501 129.25L455.501 130ZM441.004 130L441.004 130.75L455.501 130.75L455.501 130L455.501 129.25L441.004 129.25L441.004 130ZM455.501 130L454.751 130L454.753 215.25L455.503 215.25L456.253 215.25L456.251 130L455.501 130Z" fill="black"/>
</svg>
