<svg width="22" height="23" viewBox="0 0 22 23" fill="none" xmlns="http://www.w3.org/2000/svg">
<path d="M13.0568 5.13653C12.6579 6.71393 14.4212 7.9585 14.1719 9.87807C14.0753 10.6265 13.8755 11.1292 13.6794 11.5833C13.6835 14.5533 9.04578 14.7993 8.72698 11.8464C8.95889 11.1021 9.18786 10.4422 8.90853 9.12008C8.45051 6.95421 8.84162 4.69377 8.37316 3.71061C8.18161 3.29404 8.25808 3.04432 8.40924 2.63603C8.40924 0.40837 12.122 0.40837 12.122 2.63603C11.8948 2.99907 11.5497 3.37628 11.7026 4.20169C11.9606 5.58917 11.8089 6.43497 11.4312 7.65426C11.0534 8.86748 10.7309 12.6098 11.195 13.9698C11.659 15.3284 10.8539 16.8802 10.6629 17.8129C10.6034 18.1037 10.522 18.3318 10.4373 18.5073C10.4014 18.5816 10.3263 18.616 10.2521 18.616C10.2521 18.616 10.252 18.616 10.252 18.616C10.1596 18.616 10.0688 18.5627 10.0572 18.4672C10.0005 18.0042 9.85113 17.3114 9.51628 16.4938C8.89191 14.9682 9.58186 14.8026 9.26103 12.7434C8.94019 10.681 8.29877 9.44906 8.71354 7.02285C9.03008 5.17777 8.09403 4.40697 8.07027 2.63603C8.07027 0.00160748 12.461 0.00160748 12.461 2.63603C12.4723 2.89528 12.4606 3.66021 12.3073 4.44587C11.6995 7.85897 13.4791 8.06972 14.1256 11.2712L8.25022 11.5833C8.24415 11.5215 8.23867 11.4548 8.23382 11.383C8.1291 9.90332 8.25835 8.25723 8.43148 6.69699C8.51804 5.91728 8.61557 5.1627 8.70031 4.45558C8.74268 4.10328 8.78185 3.76674 8.81485 3.4461C8.83135 3.28226 8.84631 3.13158 8.85935 2.97686C8.86587 2.90519 8.87192 2.82224 8.87744 2.75687C8.8802 2.71931 8.88282 2.67759 8.88532 2.64927C8.88656 2.62737 8.88777 2.60706 8.88895 2.59335C8.88954 2.59051 8.89012 2.56924 8.89069 2.56557C8.89076 2.56497 8.89083 2.56455 8.8909 2.56428C8.89094 2.56415 8.89097 2.56406 8.89101 2.56401C8.89103 2.56398 8.89104 2.56397 8.89106 2.56396C8.89106 2.56396 8.89107 2.56396 8.89107 2.56396C8.89107 2.56396 8.89107 2.56396 8.89107 2.56396C8.89107 2.56396 8.89107 2.56396 8.89107 2.56396C8.89107 2.56396 8.89107 2.56396 8.89107 2.56396C8.89107 2.56396 8.89107 2.56396 8.89107 2.56396C8.89107 2.56396 8.89107 2.56396 8.89107 2.56396C8.89107 2.56396 8.89107 2.56396 8.89107 2.56396C10.4278 2.56396 3.76861 2.56396 13.5013 2.56396C13.5013 2.56396 13.5013 2.56396 13.5013 2.56396C13.5013 2.56396 13.5013 2.56396 13.5013 2.56396C13.5013 2.56396 13.5013 2.56396 13.5013 2.56396C13.5013 2.56396 13.5013 2.56396 13.5013 2.56396C13.5013 2.56396 13.5013 2.56396 13.5013 2.56396C13.5013 2.56396 13.5013 2.56396 13.5013 2.56396C13.5013 2.56397 13.5013 2.56397 13.5012 2.56398C13.5011 2.56413 13.501 2.56498 13.5008 2.56657C13.5005 2.56973 13.5003 2.5758 13.5 2.58485C13.4784 2.92033 13.4683 3.24617 13.477 3.52465C13.5421 5.60147 13.6988 8.37611 13.3898 11.2913C13.2349 12.7498 13.284 14.3825 13.3017 16.0552C13.3104 16.8942 13.3114 17.7445 13.2725 18.5834C13.2514 19.0269 13.225 19.4153 13.171 19.8959C13.1631 19.9676 13.1582 19.9975 13.1459 20.1008C13.1391 20.1563 13.1326 20.2091 13.119 20.2953C13.1155 20.3173 13.1114 20.3419 13.1059 20.3719C13.1009 20.4008 13.0907 20.4607 13.0715 20.5413C13.0479 20.6287 13.0328 20.7291 12.9156 20.9942C12.8482 21.1301 12.7707 21.3169 12.4939 21.6235C12.2474 21.9007 11.5497 22.4586 10.5481 22.3716C9.55958 22.2697 9.06882 21.7057 8.86445 21.4453C8.64786 21.1534 8.58728 20.9821 8.53452 20.8541C8.43148 20.5622 8.46197 20.6224 8.44634 20.5735C8.43892 20.5433 8.43307 20.517 8.42812 20.4933C8.41828 20.4461 8.41194 20.4093 8.40694 20.3777C8.39714 20.315 8.39258 20.2726 8.38901 20.2364C8.36744 19.9543 8.38041 19.9874 8.38003 19.8978C8.38226 19.8322 8.38508 19.7434 8.38924 19.7048C8.39712 19.6085 8.40626 19.4745 8.41706 19.3716C8.42788 19.2779 8.43986 19.1758 8.45307 19.0646C8.45769 19.0258 8.46235 18.9856 8.46704 18.944C8.89218 15.7331 9.42419 11.2706 9.78197 9.18772C10.1437 7.08802 10.2253 6.57558 10.0043 4.55456C9.87721 3.39358 9.99697 1.78898 10.4642 0.443533C10.6994 -0.242817 11.0268 -0.0874696 11.1835 0.598442C11.4125 1.60304 11.2595 2.42174 11.6687 2.93892C12.4865 3.9667 12.8002 4.4147 12.3242 5.70959C11.8483 7.01194 12.9299 7.62375 12.8054 8.38339C12.6809 9.14822 12.0429 9.12684 12.5344 12.9882C12.882 15.7155 13.0465 17.5725 13.1548 18.944C13.166 19.1023 13.177 19.234 13.1879 19.3437C13.1988 19.4766 13.2098 19.5939 13.2213 19.6873C13.2272 19.7455 13.2334 19.7833 13.2379 19.7818C13.2388 19.7782 13.2396 19.7641 13.2353 19.7105C13.2328 19.6826 13.2293 19.6453 13.2188 19.578C13.2133 19.5439 13.2061 19.502 13.1932 19.4437C13.1867 19.4144 13.1788 19.3809 13.168 19.3407C13.1699 19.3477 13.1293 19.1909 13.0629 19.0346C12.9808 18.865 12.9071 18.6125 12.4689 18.1783C12.2463 17.9695 11.8843 17.7047 11.357 17.5728C10.8353 17.4336 10.2022 17.5073 9.77843 17.6969C8.91548 18.1024 8.74177 18.5261 8.59365 18.7365C8.35239 19.1778 8.36085 19.2871 8.32484 19.3963C8.27787 19.6018 8.28986 19.5706 8.28505 19.589C8.2809 19.6119 8.27818 19.6278 8.27604 19.6399C8.27185 19.6638 8.26991 19.6729 8.2685 19.6757C8.26121 19.6631 8.26166 19.5242 8.25697 19.4481C8.21042 18.0795 8.85148 14.9991 8.71226 12.6346C8.57546 10.2559 8.86097 5.42044 8.54534 3.49518C8.48537 3.12218 8.46222 2.81497 8.46682 2.58485C8.4669 2.57621 8.46698 2.57033 8.46707 2.56706C8.46712 2.56542 8.46716 2.56444 8.46721 2.5641C8.46722 2.56401 8.46724 2.56397 8.46725 2.56396C8.46725 2.56396 8.46725 2.56396 8.46725 2.56396C8.46725 2.56396 8.46725 2.56396 8.46725 2.56396C8.46725 2.56396 8.46725 2.56396 8.46725 2.56396C8.46725 2.56396 8.46725 2.56396 8.46725 2.56396C8.46725 2.56396 8.46725 2.56396 8.46725 2.56396C8.46725 2.56396 8.46725 2.56396 8.46725 2.56396C8.46725 2.56396 8.46725 2.56396 8.46725 2.56396C8.46725 2.56396 8.46725 2.56396 8.46725 2.56396C10.2865 2.56396 2.40297 2.56396 13.9251 2.56396C13.9251 2.56396 13.9251 2.56396 13.9251 2.56396C13.9251 2.56396 13.9251 2.56396 13.9251 2.56396C13.9251 2.56396 13.9251 2.56396 13.9251 2.56396C13.9251 2.56396 13.9251 2.56396 13.9251 2.56396C13.9251 2.56396 13.9251 2.56396 13.9251 2.56396C13.9251 2.56396 13.9251 2.56396 13.9251 2.56396C13.9251 2.56397 13.9251 2.56397 13.9251 2.56398C13.9251 2.564 13.9251 2.56402 13.9251 2.56406C13.925 2.56419 13.925 2.56447 13.925 2.5649C13.9248 2.5658 13.9245 2.5896 13.9243 2.59085C13.9237 2.60324 13.9231 2.61967 13.9223 2.63968C13.9207 2.67137 13.9186 2.69754 13.9161 2.73332C13.9111 2.79098 13.9043 2.85491 13.8959 2.90869C13.879 3.01836 13.8555 3.12045 13.8269 3.22102C13.7698 3.41237 13.692 3.58418 13.6047 3.76525C13.4302 4.12142 13.2178 4.50069 13.0568 5.13653Z" fill="black"/>
<path d="M13.3781 13.4916C11.8055 13.0593 10.5228 14.7936 8.59656 14.4941C6.67845 14.1928 6.41197 13.252 4.19225 13.3892C3.59684 13.4244 3.02129 13.3999 2.4218 13.3409C2.27625 13.3259 2.12237 13.3094 1.94286 13.2847C1.87157 13.2756 1.81847 13.2699 1.6881 13.2465C1.64485 13.2386 1.58352 13.2298 1.45533 13.194C1.388 13.1738 1.30379 13.1507 1.14843 13.079C0.996626 12.9867 0.734948 12.939 0.318529 12.352C0.122753 12.0631 -0.0595435 11.5286 0.0212752 11.0032C0.094659 10.4763 0.355427 10.1087 0.54863 9.90607C0.952855 9.50862 1.15614 9.47623 1.29415 9.41155C1.36319 9.38569 1.41547 9.36985 1.45927 9.35749C1.47774 9.35237 1.4816 9.35143 1.49215 9.34867C1.51054 9.34392 1.52728 9.33987 1.54276 9.3363C1.66408 9.30908 1.72049 9.30369 1.7698 9.29769C1.86298 9.28777 1.91098 9.28667 1.96203 9.28487C2.0738 9.28426 2.13663 9.28851 2.23851 9.29189C2.36068 9.30062 2.53537 9.31075 2.65527 9.32177C2.77581 9.33273 2.90877 9.34395 3.05305 9.35484C3.92306 9.4313 4.64562 9.47545 5.10487 9.2958C6.08315 8.9114 6.18822 10.0736 7.57906 9.81546C8.97241 9.55737 9.81401 9.70906 11.0323 10.0868C12.2475 10.4646 15.9867 10.7871 17.3498 10.323C18.7124 9.85897 20.2518 10.6642 21.194 10.8551C21.4854 10.9146 21.708 10.996 21.8838 11.0807C21.9703 11.1166 21.9908 11.1918 21.9922 11.2659C21.9922 11.266 21.9922 11.266 21.9922 11.2661C21.9951 11.3584 21.942 11.4492 21.8477 11.4608C21.3876 11.5175 20.6869 11.6669 19.8743 12.0017C18.3494 12.6261 18.1827 11.9361 16.1229 12.257C14.0611 12.5778 12.8271 13.2192 10.4031 12.8045C7.97963 12.3897 7.42455 14.1254 4.00185 13.1417C3.65793 13.0424 3.34399 12.9717 3.05305 12.9249C2.87037 12.8989 2.73108 12.8808 2.60139 12.8698C2.43011 12.8594 2.34158 12.855 2.21106 12.8596C2.18692 12.8606 2.17369 12.8617 2.16326 12.8632C2.16282 12.8634 2.17051 12.8648 2.23174 12.8573C2.26509 12.8524 2.30726 12.8487 2.41677 12.8204C2.40213 12.8241 2.51367 12.7968 2.62893 12.7465C2.75142 12.6796 2.95866 12.6401 3.2947 12.2113C3.45363 11.9988 3.61662 11.6155 3.59482 11.208C3.57896 10.8 3.40339 10.4741 3.25814 10.2908C2.95181 9.9251 2.7753 9.88225 2.66333 9.8196C2.4454 9.7252 2.39087 9.72569 2.33742 9.71118C2.28629 9.70055 2.27515 9.69947 2.27414 9.69904C2.16743 9.68151 2.28276 9.69078 2.31042 9.68566C2.42071 9.68156 2.52458 9.67027 2.64358 9.65515C3.09215 9.59266 3.51936 9.45455 3.94199 9.29621C4.80996 8.97967 5.72225 8.58238 7.25403 8.51726C10.6586 8.37278 14.9256 9.46544 16.9732 9.41014C17.7109 9.39053 18.5526 9.35502 19.4122 9.31947C19.425 9.31922 19.4318 9.31897 19.4329 9.31872C19.433 9.31871 19.4331 9.31869 19.4331 9.31868C19.4331 9.31867 19.4331 9.31866 19.4331 9.31865C19.4331 9.31865 19.4331 9.31865 19.4331 9.31865C19.4331 9.31865 19.4331 9.31865 19.4331 9.31865C19.4331 9.31865 19.4331 9.31865 19.4331 9.31865C19.4331 9.31865 19.4331 9.31865 19.4331 9.31865C19.4331 9.31865 19.4331 9.31865 19.4331 9.31865C19.4331 9.31865 19.4331 9.31865 19.4331 9.31865C19.4331 9.31865 19.4331 9.31865 19.4331 9.31865C19.4331 9.31865 19.4331 9.31865 19.4331 9.31865C19.4331 9.31865 19.4331 9.31865 19.4331 9.31865C19.4331 6.65308 19.4331 16.7822 19.4331 14.1167C19.4331 14.1167 19.4331 14.1167 19.4331 14.1167C19.4331 14.1167 19.4331 14.1167 19.4331 14.1167C19.4331 14.1167 19.4331 14.1167 19.4331 14.1167C19.4331 14.1167 19.4331 14.1167 19.4331 14.1167C19.4331 14.1167 19.4331 14.1167 19.4331 14.1167C19.4331 14.1167 19.4329 14.1168 19.4327 14.1168C19.4323 14.1169 19.4316 14.1169 19.4306 14.117C19.4285 14.1171 19.4251 14.1172 19.4204 14.1174C19.4008 14.1178 19.3986 14.1183 19.3841 14.1188C19.3548 14.1198 19.3328 14.1208 19.3087 14.1218C19.2534 14.1237 19.2102 14.1256 19.1567 14.1274C19.0555 14.1311 18.9485 14.1347 18.8515 14.138C18.6426 14.1447 18.4407 14.1506 18.2252 14.1553C17.8052 14.1648 17.3722 14.1699 16.9313 14.1682C16.0485 14.1648 15.1356 14.1343 14.2041 14.0578C13.0288 13.9611 11.7379 14.002 10.4137 14.057C7.61573 14.0531 7.38323 9.68398 10.1659 9.39147C12.0842 9.10378 14.1153 8.75033 16.0641 8.79551C17.0581 8.82231 17.9721 8.82411 19.361 8.90547C21.619 8.90547 21.619 12.6687 19.361 12.6687C16.764 12.3373 14.0528 11.9921 12.5682 11.736C10.4687 11.3743 9.95462 11.2927 7.93436 11.5138C6.77403 11.6408 5.1721 11.521 3.82052 11.0538C3.13991 10.8186 3.29451 10.4912 3.97901 10.3346C4.98011 10.1055 5.80257 10.2585 6.3188 9.84932C7.34983 9.03154 7.78852 8.71782 9.08956 9.19381C10.3906 9.66973 11.005 8.58811 11.7632 8.7126C12.5201 8.83716 12.511 9.47514 16.3683 8.9836C17.512 8.83814 18.4954 8.72473 19.361 8.6341C21.9447 8.6341 21.9447 12.9401 19.361 12.9401C17.7467 13.2582 16.182 13.55 15.2266 13.7337C14.237 13.9255 12.4566 13.8925 10.6565 13.996L10.4137 9.42641C11.2041 9.46656 12.012 9.4768 12.7463 9.41501C13.5702 9.34583 14.6911 9.32255 15.8825 9.3081C16.4772 9.30088 17.0961 9.29587 17.6972 9.28843C18.0008 9.28471 18.3024 9.28039 18.5959 9.27488C18.7419 9.27213 18.8843 9.26908 19.0331 9.26566C19.0993 9.26395 19.182 9.26215 19.2439 9.26024C19.2824 9.25929 19.321 9.25832 19.349 9.25731C19.3718 9.25681 19.3905 9.2563 19.4042 9.25579C19.4067 9.25553 19.4285 9.25527 19.4316 9.25501C19.4322 9.25498 19.4326 9.25494 19.4328 9.25491C19.433 9.2549 19.433 9.25488 19.4331 9.25486C19.4331 9.25486 19.4331 9.25485 19.4331 9.25485C19.4331 9.25485 19.4331 9.25485 19.4331 9.25484C19.4331 9.25484 19.4331 9.25484 19.4331 9.25484C19.4331 9.25484 19.4331 9.25484 19.4331 9.25484C19.4331 9.25484 19.4331 9.25484 19.4331 9.25484C19.4331 9.25484 19.4331 9.25484 19.4331 9.25484C19.4331 9.25484 19.4331 9.25484 19.4331 9.25484C19.4331 9.25484 19.4331 9.25484 19.4331 9.25484C19.4331 9.25484 19.4331 9.25484 19.4331 9.25484C19.4331 10.8967 19.4331 3.78189 19.4331 14.1805C19.4331 14.1805 19.4331 14.1805 19.4331 14.1805C19.4331 14.1805 19.4331 14.1805 19.4331 14.1805C19.4331 14.1805 19.4331 14.1805 19.4331 14.1805C19.4331 14.1805 19.4331 14.1805 19.4331 14.1805C19.4331 14.1805 19.4331 14.1805 19.4331 14.1805C19.4331 14.1805 19.4331 14.1805 19.4331 14.1805C19.4329 14.1806 19.432 14.1806 19.4304 14.1807C19.4272 14.1808 19.4212 14.181 19.4122 14.1811C18.4082 14.2102 17.5213 14.2492 16.9126 14.3415C14.9398 14.6381 14.9538 13.9223 13.3781 13.4916Z" fill="black"/>
</svg>
