<svg width="18" height="12" viewBox="0 0 18 12" fill="none" xmlns="http://www.w3.org/2000/svg">
<path d="M7.15909 8.53245V3.46754L11.8636 6.00012L7.15909 8.53245ZM17.6238 1.87384C17.4168 1.13623 16.8069 0.555387 16.0325 0.358258C14.6288 8.0274e-08 9 -1.04308e-07 9 -1.04308e-07C9 -1.04308e-07 3.37125 8.0274e-08 1.96751 0.358258C1.19307 0.555387 0.583114 1.13623 0.376131 1.87384C0 3.21071 0 6 0 6C0 6 0 8.78925 0.376131 10.1262C0.583114 10.8638 1.19307 11.4446 1.96751 11.6418C3.37125 12 9 12 9 12C9 12 14.6288 12 16.0325 11.6418C16.8069 11.4446 17.4168 10.8638 17.6238 10.1262C18 8.78925 18 6 18 6C18 6 18 3.21071 17.6238 1.87384Z" fill="white"/>
</svg>
