<svg width="24" height="23" viewBox="0 0 24 23" fill="none" xmlns="http://www.w3.org/2000/svg">
<g clip-path="url(#clip0_1310_4069)">
<path fill-rule="evenodd" clip-rule="evenodd" d="M11.9642 0C5.34833 0 0 5.27083 0 11.7916C0 17.0039 3.42686 21.4161 8.18082 22.9777C8.77518 23.0951 8.9929 22.724 8.9929 22.4118C8.9929 22.1385 8.97331 21.2014 8.97331 20.2251C5.64514 20.9281 4.95208 18.8195 4.95208 18.8195C4.41722 17.4529 3.62473 17.1017 3.62473 17.1017C2.53543 16.3794 3.70408 16.3794 3.70408 16.3794C4.91241 16.4575 5.54645 17.5897 5.54645 17.5897C6.61592 19.3856 8.33926 18.8782 9.03257 18.5658C9.13151 17.8044 9.44865 17.2773 9.78539 16.9845C7.13094 16.7112 4.33812 15.6961 4.33812 11.1667C4.33812 9.87826 4.81322 8.82409 5.56604 8.00424C5.44727 7.71147 5.03118 6.50085 5.68506 4.88055C5.68506 4.88055 6.69527 4.56814 8.97306 6.09093C9.94827 5.83281 10.954 5.70151 11.9642 5.70041C12.9744 5.70041 14.0042 5.83721 14.9552 6.09093C17.2332 4.56814 18.2434 4.88055 18.2434 4.88055C18.8973 6.50085 18.481 7.71147 18.3622 8.00424C19.1349 8.82409 19.5904 9.87826 19.5904 11.1667C19.5904 15.6961 16.7976 16.6915 14.1233 16.9845C14.5592 17.3554 14.9353 18.0581 14.9353 19.171C14.9353 20.7522 14.9158 22.0213 14.9158 22.4116C14.9158 22.724 15.1337 23.0951 15.7278 22.978C20.4818 21.4159 23.9087 17.0039 23.9087 11.7916C23.9282 5.27083 18.5603 0 11.9642 0Z" fill="white"/>
</g>
<defs>
<clipPath id="clip0_1310_4069">
<rect width="24" height="23" fill="white"/>
</clipPath>
</defs>
</svg>
