<svg width="18" height="17" viewBox="0 0 18 17" fill="none" xmlns="http://www.w3.org/2000/svg">
<path d="M15.3369 14.4851H12.6698V10.5404C12.6698 9.59969 12.652 8.38875 11.2827 8.38875C9.8936 8.38875 9.68107 9.41365 9.68107 10.4719V14.4849H7.01402V6.3728H9.57438V7.4814H9.61023C9.86646 7.06762 10.2367 6.72723 10.6816 6.49647C11.1264 6.26572 11.6292 6.15324 12.1364 6.17102C14.8396 6.17102 15.338 7.85032 15.338 10.035L15.3369 14.4851ZM4.00472 5.26394C3.69861 5.26399 3.39935 5.17831 3.1448 5.01773C2.89025 4.85715 2.69185 4.62888 2.57465 4.3618C2.45746 4.09471 2.42675 3.8008 2.48641 3.51723C2.54608 3.23367 2.69344 2.97318 2.90985 2.76871C3.12626 2.56424 3.40201 2.42497 3.70223 2.36851C4.00245 2.31206 4.31364 2.34096 4.59647 2.45155C4.8793 2.56214 5.12105 2.74945 5.29116 2.98981C5.46128 3.23017 5.55211 3.51278 5.55216 3.80189C5.5522 3.99386 5.51219 4.18395 5.43445 4.36131C5.3567 4.53868 5.24274 4.69984 5.09905 4.8356C4.95535 4.97137 4.78474 5.07907 4.59698 5.15256C4.40922 5.22606 4.20797 5.2639 4.00472 5.26394ZM5.33824 14.4851H2.66842V6.3728H5.33824V14.4851ZM16.6665 0.00115824H1.32824C0.980108 -0.00255233 0.644638 0.124428 0.39558 0.354197C0.146522 0.583965 0.00424879 0.897723 0 1.22652V15.7732C0.00410338 16.1022 0.146293 16.4162 0.395343 16.6462C0.644393 16.8762 0.979935 17.0034 1.32824 16.9999H16.6665C17.0155 17.004 17.352 16.8772 17.602 16.6472C17.852 16.4172 17.9952 16.1028 18 15.7732V1.22548C17.995 0.896021 17.8518 0.581907 17.6017 0.352144C17.3517 0.122381 17.0153 -0.00423685 16.6665 0.000108249" fill="white"/>
</svg>
