<svg xmlns="http://www.w3.org/2000/svg" viewBox="0 0 800 200">
  <defs>
    <linearGradient id="purpleGrad" x1="0%" y1="0%" x2="100%" y2="0%">
      <stop offset="0%" style="stop-color:#9945FF"/>
      <stop offset="100%" style="stop-color:#14F195"/>
    </linearGradient>
    <filter id="glow">
      <feGaussianBlur stdDeviation="3" result="coloredBlur"/>
      <feMerge>
        <feMergeNode in="coloredBlur"/>
        <feMergeNode in="SourceGraphic"/>
      </feMerge>
    </filter>
  </defs>

  <!-- Background -->
  <rect width="800" height="200" fill="#0A0A0A"/>

  <!-- Sender Node -->
  <rect x="20" y="60" width="140" height="80" rx="8" fill="#1A1A1A" stroke="#252525"/>
  <text x="90" y="95" text-anchor="middle" fill="#B0B0B0" font-family="Inter, sans-serif" font-size="11">SENDER</text>
  <text x="90" y="115" text-anchor="middle" fill="#FFFFFF" font-family="Inter, sans-serif" font-size="14" font-weight="600">0x1a2b...9f</text>

  <!-- Arrow 1 -->
  <path d="M170 100 L260 100" stroke="url(#purpleGrad)" stroke-width="2" fill="none" filter="url(#glow)"/>
  <polygon points="260,100 250,95 250,105" fill="#9945FF"/>
  <text x="215" y="85" text-anchor="middle" fill="#707070" font-family="Inter, sans-serif" font-size="10">ZK PROOF</text>

  <!-- ZK Pool Node -->
  <rect x="270" y="40" width="180" height="120" rx="12" fill="#141414" stroke="#9945FF" stroke-width="2"/>
  <text x="360" y="75" text-anchor="middle" fill="#9945FF" font-family="Inter, sans-serif" font-size="11" font-weight="700">ZK PRIVACY POOL</text>
  <rect x="290" y="90" width="140" height="50" rx="6" fill="#0A0A0A"/>
  <text x="360" y="112" text-anchor="middle" fill="#14F195" font-family="Inter, sans-serif" font-size="10">ENCRYPTED</text>
  <text x="360" y="128" text-anchor="middle" fill="#B0B0B0" font-family="Monaco, monospace" font-size="9">Enc(amt) + Enc(addr)</text>

  <!-- Arrow 2 -->
  <path d="M460 100 L550 100" stroke="url(#purpleGrad)" stroke-width="2" fill="none" filter="url(#glow)"/>
  <polygon points="550,100 540,95 540,105" fill="#14F195"/>
  <text x="505" y="85" text-anchor="middle" fill="#707070" font-family="Inter, sans-serif" font-size="10">WITHDRAW</text>

  <!-- Receiver Node -->
  <rect x="560" y="60" width="140" height="80" rx="8" fill="#1A1A1A" stroke="#252525"/>
  <text x="630" y="95" text-anchor="middle" fill="#B0B0B0" font-family="Inter, sans-serif" font-size="11">RECEIVER</text>
  <text x="630" y="115" text-anchor="middle" fill="#FFFFFF" font-family="Inter, sans-serif" font-size="14" font-weight="600">0x9f8e...2b</text>

  <!-- FHE Audit Layer -->
  <rect x="270" y="170" width="180" height="24" rx="4" fill="rgba(153,69,255,0.15)" stroke="rgba(153,69,255,0.3)"/>
  <text x="360" y="186" text-anchor="middle" fill="#B87BFF" font-family="Inter, sans-serif" font-size="10" font-weight="600">FHE AUDIT LOG</text>
  <path d="M360 160 L360 170" stroke="#9945FF" stroke-width="1" stroke-dasharray="3"/>
</svg>
