<svg xmlns="http://www.w3.org/2000/svg" viewBox="0 0 900 220">
  <defs>
    <style>
      @import url('https://fonts.googleapis.com/css2?family=Inter:wght@400;600;700&amp;display=swap');
    </style>
    <linearGradient id="purpleGrad" x1="0%" y1="0%" x2="100%" y2="0%">
      <stop offset="0%" style="stop-color:#9945FF"/>
      <stop offset="100%" style="stop-color:#14F195"/>
    </linearGradient>
    <filter id="glow">
      <feGaussianBlur stdDeviation="3" result="coloredBlur"/>
      <feMerge>
        <feMergeNode in="coloredBlur"/>
        <feMergeNode in="SourceGraphic"/>
      </feMerge>
    </filter>
  </defs>

  <!-- Background -->
  <rect width="900" height="220" fill="#0A0A0A"/>

  <!-- Sender Node -->
  <rect x="20" y="50" width="150" height="100" rx="10" fill="#1A1A1A" stroke="#252525" stroke-width="2"/>
  <text x="95" y="80" text-anchor="middle" fill="#707070" font-family="Inter, sans-serif" font-size="11" font-weight="600">SENDER</text>
  <text x="95" y="105" text-anchor="middle" fill="#FFFFFF" font-family="Inter, sans-serif" font-size="13" font-weight="600">0x1a2b...9f</text>
  <rect x="35" y="118" width="120" height="22" rx="4" fill="#141414" stroke="#252525"/>
  <text x="95" y="133" text-anchor="middle" fill="#14F195" font-family="Inter, sans-serif" font-size="10">Private Balance</text>

  <!-- Arrow 1 -->
  <path d="M180 100 L280 100" stroke="url(#purpleGrad)" stroke-width="3" fill="none" filter="url(#glow)"/>
  <polygon points="280,100 268,94 268,106" fill="#9945FF"/>
  <text x="230" y="85" text-anchor="middle" fill="#707070" font-family="Inter, sans-serif" font-size="11">ZK PROOF</text>

  <!-- ZK Pool Node -->
  <rect x="290" y="30" width="200" height="140" rx="12" fill="#141414" stroke="#9945FF" stroke-width="2"/>
  <text x="390" y="60" text-anchor="middle" fill="#9945FF" font-family="Inter, sans-serif" font-size="12" font-weight="700">ZK PRIVACY POOL</text>
  <rect x="310" y="75" width="160" height="75" rx="6" fill="#0A0A0A"/>
  <text x="390" y="100" text-anchor="middle" fill="#14F195" font-family="Inter, sans-serif" font-size="11" font-weight="600">ENCRYPTED</text>
  <text x="390" y="120" text-anchor="middle" fill="#B0B0B0" font-family="Monaco, monospace" font-size="10">Enc(amt) + Enc(addr)</text>
  <text x="390" y="140" text-anchor="middle" fill="#707070" font-family="Inter, sans-serif" font-size="9">Homomorphic Operations</text>

  <!-- Arrow 2 -->
  <path d="M500 100 L600 100" stroke="url(#purpleGrad)" stroke-width="3" fill="none" filter="url(#glow)"/>
  <polygon points="600,100 588,94 588,106" fill="#14F195"/>
  <text x="550" y="85" text-anchor="middle" fill="#707070" font-family="Inter, sans-serif" font-size="11">WITHDRAW</text>

  <!-- Receiver Node -->
  <rect x="610" y="50" width="150" height="100" rx="10" fill="#1A1A1A" stroke="#252525" stroke-width="2"/>
  <text x="685" y="80" text-anchor="middle" fill="#707070" font-family="Inter, sans-serif" font-size="11" font-weight="600">RECEIVER</text>
  <text x="685" y="105" text-anchor="middle" fill="#FFFFFF" font-family="Inter, sans-serif" font-size="13" font-weight="600">0x9f8e...2b</text>
  <rect x="625" y="118" width="120" height="22" rx="4" fill="#141414" stroke="#252525"/>
  <text x="685" y="133" text-anchor="middle" fill="#14F195" font-family="Inter, sans-serif" font-size="10">Private Balance</text>

  <!-- FHE Audit Layer -->
  <rect x="290" y="185" width="200" height="28" rx="5" fill="rgba(153,69,255,0.15)" stroke="rgba(153,69,255,0.4)" stroke-width="1"/>
  <text x="390" y="204" text-anchor="middle" fill="#B87BFF" font-family="Inter, sans-serif" font-size="11" font-weight="600">FHE AUDIT LOG</text>
  <path d="M390 170 L390 185" stroke="#9945FF" stroke-width="2" stroke-dasharray="4"/>

  <!-- Auditor on right -->
  <rect x="780" y="50" width="100" height="100" rx="10" fill="#1A1A1A" stroke="#9945FF" stroke-width="1"/>
  <text x="830" y="80" text-anchor="middle" fill="#9945FF" font-family="Inter, sans-serif" font-size="10" font-weight="600">AUDITOR</text>
  <!-- Lock icon -->
  <rect x="810" y="92" width="40" height="30" rx="4" fill="#141414" stroke="#9945FF"/>
  <circle cx="830" cy="88" r="10" fill="none" stroke="#9945FF" stroke-width="2"/>
  <text x="830" y="140" text-anchor="middle" fill="#707070" font-family="Inter, sans-serif" font-size="9">3-of-5 MPC</text>

  <!-- Arrow from audit log to auditor -->
  <path d="M490 199 L780 130" stroke="rgba(153,69,255,0.5)" stroke-width="1.5" stroke-dasharray="5"/>
</svg>
