<svg xmlns="http://www.w3.org/2000/svg" viewBox="0 0 520 380">
  <defs>
    <style>
      @import url('https://fonts.googleapis.com/css2?family=Inter:wght@400;600;700&amp;display=swap');
    </style>
  </defs>

  <!-- Background -->
  <rect width="520" height="380" fill="#0A0A0A"/>

  <!-- Title -->
  <text x="260" y="35" text-anchor="middle" fill="#FFFFFF" font-family="Inter, sans-serif" font-size="18" font-weight="700">Payroll Exposure</text>

  <!-- Alice (Employee) - Left -->
  <g transform="translate(50, 100)">
    <rect width="80" height="100" rx="8" fill="#1A1A1A" stroke="#9945FF" stroke-width="2"/>
    <g transform="translate(16, 15) scale(2)">
      <path fill="#9945FF" d="M12 2.5a5.5 5.5 0 0 1 3.096 10.047 9.005 9.005 0 0 1 5.9 8.181.75.75 0 1 1-1.499.044 7.5 7.5 0 0 0-14.993 0 .75.75 0 0 1-1.5-.045 9.005 9.005 0 0 1 5.9-8.18A5.5 5.5 0 0 1 12 2.5ZM8 8a4 4 0 1 0 8 0 4 4 0 0 0-8 0Z"/>
    </g>
  </g>
  <text x="90" y="220" text-anchor="middle" fill="#9945FF" font-family="Inter, sans-serif" font-size="16" font-weight="700">Alice</text>
  <text x="90" y="238" text-anchor="middle" fill="#707070" font-family="Inter, sans-serif" font-size="11">Employee</text>

  <!-- Bob (Coworker) - Right -->
  <g transform="translate(390, 100)">
    <rect width="80" height="100" rx="8" fill="#1A1A1A" stroke="#14F195" stroke-width="2"/>
    <g transform="translate(16, 15) scale(2)">
      <path fill="#14F195" d="M12 2.5a5.5 5.5 0 0 1 3.096 10.047 9.005 9.005 0 0 1 5.9 8.181.75.75 0 1 1-1.499.044 7.5 7.5 0 0 0-14.993 0 .75.75 0 0 1-1.5-.045 9.005 9.005 0 0 1 5.9-8.18A5.5 5.5 0 0 1 12 2.5ZM8 8a4 4 0 1 0 8 0 4 4 0 0 0-8 0Z"/>
    </g>
  </g>
  <text x="430" y="220" text-anchor="middle" fill="#14F195" font-family="Inter, sans-serif" font-size="16" font-weight="700">Bob</text>
  <text x="430" y="238" text-anchor="middle" fill="#707070" font-family="Inter, sans-serif" font-size="11">Coworker</text>

  <!-- Blockchain (Center) -->
  <rect x="185" y="110" width="150" height="90" rx="10" fill="#141414" stroke="#252525" stroke-width="2"/>
  <text x="260" y="135" text-anchor="middle" fill="#707070" font-family="Inter, sans-serif" font-size="11" font-weight="600">ON-CHAIN LEDGER</text>

  <!-- Transaction records -->
  <rect x="200" y="148" width="120" height="20" rx="4" fill="#1A1A1A"/>
  <text x="260" y="162" text-anchor="middle" fill="#B87BFF" font-family="Monaco, monospace" font-size="10">Alice: $8,500</text>
  <rect x="200" y="172" width="120" height="20" rx="4" fill="#1A1A1A"/>
  <text x="260" y="186" text-anchor="middle" fill="#14F195" font-family="Monaco, monospace" font-size="10">Bob: $12,000</text>

  <!-- Arrows from people to blockchain -->
  <path d="M135 150 L180 150" stroke="#9945FF" stroke-width="2"/>
  <polygon points="180,150 172,146 172,154" fill="#9945FF"/>
  <path d="M385 150 L340 150" stroke="#14F195" stroke-width="2"/>
  <polygon points="340,150 348,146 348,154" fill="#14F195"/>

  <!-- Public indicator (magnifying glass instead of eye) -->
  <g transform="translate(235, 255)">
    <circle cx="20" cy="20" r="15" fill="none" stroke="#9945FF" stroke-width="2"/>
    <line x1="31" y1="31" x2="45" y2="45" stroke="#9945FF" stroke-width="3" stroke-linecap="round"/>
    <text x="25" y="25" text-anchor="middle" fill="#9945FF" font-family="Inter, sans-serif" font-size="14" font-weight="700">$</text>
  </g>

  <!-- Line from blockchain to magnifier -->
  <path d="M260 205 L260 240" stroke="#9945FF" stroke-width="2" stroke-dasharray="5"/>

  <!-- Bottom message -->
  <rect x="130" y="320" width="260" height="45" rx="8" fill="rgba(153,69,255,0.1)" stroke="rgba(153,69,255,0.3)"/>
  <text x="260" y="342" text-anchor="middle" fill="#B0B0B0" font-family="Inter, sans-serif" font-size="12">Anyone can compare:</text>
  <text x="260" y="358" text-anchor="middle" fill="#9945FF" font-family="Inter, sans-serif" font-size="13" font-weight="600">All salaries are PUBLIC on-chain</text>
</svg>
