<svg xmlns="http://www.w3.org/2000/svg" viewBox="0 0 520 380">
  <defs>
    <style>
      @import url('https://fonts.googleapis.com/css2?family=Inter:wght@400;600;700&amp;display=swap');
    </style>
  </defs>

  <!-- Background -->
  <rect width="520" height="380" fill="#0A0A0A"/>

  <!-- Title -->
  <text x="260" y="35" text-anchor="middle" fill="#FFFFFF" font-family="Inter, sans-serif" font-size="18" font-weight="700">Payroll Exposure</text>

  <!-- Alice (Employee) - Left -->
  <circle cx="90" cy="150" r="40" fill="#1A1A1A" stroke="#9945FF" stroke-width="2"/>
  <circle cx="90" cy="132" r="14" fill="#9945FF"/>
  <path d="M72 168 Q90 185 108 168" fill="none" stroke="#9945FF" stroke-width="2"/>
  <text x="90" y="210" text-anchor="middle" fill="#9945FF" font-family="Inter, sans-serif" font-size="16" font-weight="700">Alice</text>
  <text x="90" y="228" text-anchor="middle" fill="#707070" font-family="Inter, sans-serif" font-size="11">Employee</text>

  <!-- Bob (Coworker) - Right -->
  <circle cx="430" cy="150" r="40" fill="#1A1A1A" stroke="#14F195" stroke-width="2"/>
  <circle cx="430" cy="132" r="14" fill="#14F195"/>
  <path d="M412 168 Q430 185 448 168" fill="none" stroke="#14F195" stroke-width="2"/>
  <text x="430" y="210" text-anchor="middle" fill="#14F195" font-family="Inter, sans-serif" font-size="16" font-weight="700">Bob</text>
  <text x="430" y="228" text-anchor="middle" fill="#707070" font-family="Inter, sans-serif" font-size="11">Coworker</text>

  <!-- Blockchain (Center) -->
  <rect x="185" y="110" width="150" height="90" rx="10" fill="#141414" stroke="#252525" stroke-width="2"/>
  <text x="260" y="135" text-anchor="middle" fill="#707070" font-family="Inter, sans-serif" font-size="11" font-weight="600">ON-CHAIN LEDGER</text>

  <!-- Transaction records -->
  <rect x="200" y="148" width="120" height="20" rx="4" fill="#1A1A1A"/>
  <text x="260" y="162" text-anchor="middle" fill="#B87BFF" font-family="Monaco, monospace" font-size="10">Alice: $8,500</text>
  <rect x="200" y="172" width="120" height="20" rx="4" fill="#1A1A1A"/>
  <text x="260" y="186" text-anchor="middle" fill="#14F195" font-family="Monaco, monospace" font-size="10">Bob: $12,000</text>

  <!-- Arrows from people to blockchain -->
  <path d="M135 150 L180 150" stroke="#9945FF" stroke-width="2"/>
  <polygon points="180,150 172,146 172,154" fill="#9945FF"/>
  <path d="M385 150 L340 150" stroke="#14F195" stroke-width="2"/>
  <polygon points="340,150 348,146 348,154" fill="#14F195"/>

  <!-- Eye icon (visibility) - watching -->
  <g transform="translate(260, 280)">
    <ellipse cx="0" cy="0" rx="35" ry="20" fill="none" stroke="#9945FF" stroke-width="2"/>
    <circle cx="0" cy="0" r="10" fill="#9945FF"/>
    <circle cx="0" cy="0" r="4" fill="#0A0A0A"/>
  </g>

  <!-- Line from blockchain to eye -->
  <path d="M260 205 L260 255" stroke="#9945FF" stroke-width="2" stroke-dasharray="5"/>

  <!-- Bottom message -->
  <rect x="130" y="320" width="260" height="45" rx="8" fill="rgba(153,69,255,0.1)" stroke="rgba(153,69,255,0.3)"/>
  <text x="260" y="342" text-anchor="middle" fill="#B0B0B0" font-family="Inter, sans-serif" font-size="12">Anyone can compare:</text>
  <text x="260" y="358" text-anchor="middle" fill="#9945FF" font-family="Inter, sans-serif" font-size="13" font-weight="600">All salaries are PUBLIC on-chain</text>
</svg>
